<?xml version="1.0" encoding="UTF-8" standalone="no"?>
<svg
   width="425"
   zoomAndPan="magnify"
   viewBox="0 0 318.75 393"
   height="524"
   preserveAspectRatio="xMidYMid"
   version="1.0"
   id="svg20219"
   sodipodi:docname="event_cal.svg"
   inkscape:version="1.2.2 (732a01da63, 2022-12-09)"
   xmlns:inkscape="http://www.inkscape.org/namespaces/inkscape"
   xmlns:sodipodi="http://sodipodi.sourceforge.net/DTD/sodipodi-0.dtd"
   xmlns="http://www.w3.org/2000/svg"
   xmlns:svg="http://www.w3.org/2000/svg">
  <sodipodi:namedview
     id="namedview20221"
     pagecolor="#ffffff"
     bordercolor="#000000"
     borderopacity="0.25"
     inkscape:showpageshadow="2"
     inkscape:pageopacity="0.0"
     inkscape:pagecheckerboard="0"
     inkscape:deskcolor="#d1d1d1"
     showgrid="false"
     inkscape:zoom="1.5421249"
     inkscape:cx="284.0237"
     inkscape:cy="274.94531"
     inkscape:window-width="1920"
     inkscape:window-height="1046"
     inkscape:window-x="-11"
     inkscape:window-y="-11"
     inkscape:window-maximized="1"
     inkscape:current-layer="svg20219" />
  <defs
     id="defs17821">
    <filter
       x="0"
       y="0"
       width="1"
       height="1"
       id="8830e66e5d">
      <feColorMatrix
         values="0 0 0 0 1 0 0 0 0 1 0 0 0 0 1 0 0 0 1 0"
         color-interpolation-filters="sRGB"
         id="feColorMatrix17722" />
    </filter>
    <clipPath
       id="b3dcb9970b">
      <path
         d="M 597.88281,33.175781 H 1024 V 445.59375 H 597.88281 Z m 0,0"
         clip-rule="nonzero"
         id="path17768" />
    </clipPath>
    <clipPath
       id="1c2c003992">
      <path
         d="m 613.80469,384.99219 h 34.51172 v 34.51172 h -34.51172 z m 0,0"
         clip-rule="nonzero"
         id="path17771" />
    </clipPath>
    <clipPath
       id="91de9b4360">
      <path
         d="m 631.05859,384.99219 c -9.52734,0 -17.2539,7.72656 -17.2539,17.25781 0,9.53125 7.72656,17.25391 17.2539,17.25391 9.53125,0 17.25782,-7.72266 17.25782,-17.25391 0,-9.53125 -7.72657,-17.25781 -17.25782,-17.25781 z m 0,0"
         clip-rule="nonzero"
         id="path17774" />
    </clipPath>
    <clipPath
       id="ade68bfccf">
      <path
         d="m 896.08594,219.84766 h 109.44926 v 29.1875 H 896.08594 Z m 0,0"
         clip-rule="nonzero"
         id="path17777" />
    </clipPath>
    <clipPath
       id="4b2ef627c1">
      <path
         d="m 910.67969,219.84766 h 80.15234 c 3.87109,0 7.58203,1.53906 10.32027,4.27734 2.7344,2.73437 4.2735,6.44531 4.2735,10.31641 0,3.87109 -1.5391,7.58203 -4.2735,10.32031 -2.73824,2.73437 -6.44918,4.27344 -10.32027,4.27344 h -80.15234 c -3.8711,0 -7.58203,-1.53907 -10.32032,-4.27344 -2.73437,-2.73828 -4.27343,-6.44922 -4.27343,-10.32031 0,-3.8711 1.53906,-7.58204 4.27343,-10.31641 2.73829,-2.73828 6.44922,-4.27734 10.32032,-4.27734 z m 0,0"
         clip-rule="nonzero"
         id="path17780" />
    </clipPath>
    <mask
       id="ba1989499f">
      <g
         filter="url(#8830e66e5d)"
         id="g17785">
        <rect
           x="-102.45"
           width="1229.4"
           fill="#000000"
           y="-57.599998"
           height="691.20001"
           fill-opacity="0.48"
           id="rect17783" />
      </g>
    </mask>
    <clipPath
       id="54f00792bd">
      <rect
         x="0"
         width="22"
         y="0"
         height="24"
         id="rect17788" />
    </clipPath>
    <mask
       id="32880a6fd7">
      <g
         filter="url(#8830e66e5d)"
         id="g17793">
        <rect
           x="-102.45"
           width="1229.4"
           fill="#000000"
           y="-57.599998"
           height="691.20001"
           fill-opacity="0.48"
           id="rect17791" />
      </g>
    </mask>
    <clipPath
       id="beb686ebf5">
      <rect
         x="0"
         width="26"
         y="0"
         height="24"
         id="rect17796" />
    </clipPath>
    <mask
       id="5a2a0e10c2">
      <g
         filter="url(#8830e66e5d)"
         id="g17801">
        <rect
           x="-102.45"
           width="1229.4"
           fill="#000000"
           y="-57.599998"
           height="691.20001"
           fill-opacity="0.48"
           id="rect17799" />
      </g>
    </mask>
    <clipPath
       id="aa1228b9e5">
      <rect
         x="0"
         width="8"
         y="0"
         height="23"
         id="rect17804" />
    </clipPath>
    <mask
       id="8da61bbc76">
      <g
         filter="url(#8830e66e5d)"
         id="g17809">
        <rect
           x="-102.45"
           width="1229.4"
           fill="#000000"
           y="-57.599998"
           height="691.20001"
           fill-opacity="0.48"
           id="rect17807" />
      </g>
    </mask>
    <clipPath
       id="6e509cbfb7">
      <rect
         x="0"
         width="12"
         y="0"
         height="23"
         id="rect17812" />
    </clipPath>
  </defs>
  <g
     id="g28106"
     transform="matrix(0.74803366,0,0,0.95291678,-447.23647,-31.613758)">
    <g
       clip-path="url(#b3dcb9970b)"
       id="g19467">
      <path
         fill="#000000"
         d="M 597.88281,33.175781 H 1024.8008 V 445.59375 H 597.88281 Z m 0,0"
         fill-opacity="1"
         fill-rule="nonzero"
         id="path19465" />
    </g>
    <g
       clip-path="url(#1c2c003992)"
       id="g19473">
      <g
         clip-path="url(#91de9b4360)"
         id="g19471">
        <path
           fill="#ff516b"
           d="m 613.80469,384.99219 h 34.51172 v 34.51172 h -34.51172 z m 0,0"
           fill-opacity="1"
           fill-rule="nonzero"
           id="path19469" />
      </g>
    </g>
    <g
       clip-path="url(#ade68bfccf)"
       id="g19479">
      <g
         clip-path="url(#4b2ef627c1)"
         id="g19477">
        <path
           fill="#ff516b"
           d="M 896.08594,219.84766 H 1005.418 v 29.1875 H 896.08594 Z m 0,0"
           fill-opacity="1"
           fill-rule="nonzero"
           id="path19475" />
      </g>
    </g>
    <g
       fill="#fdf4f1"
       fill-opacity="1"
       id="g19487">
      <g
         transform="translate(607.22155,84.899178)"
         id="g19485">
        <g
           id="g19483">
          <path
             d="m 16.890625,0.21875 c -2.335937,0 -4.449219,-0.445312 -6.34375,-1.34375 C 8.648438,-2.019531 7.019531,-3.234375 5.65625,-4.765625 4.300781,-6.304688 3.25,-8.039062 2.5,-9.96875 1.757812,-11.894531 1.390625,-13.875 1.390625,-15.90625 c 0,-2.113281 0.394531,-4.132812 1.1875,-6.0625 0.789063,-1.925781 1.878906,-3.644531 3.265625,-5.15625 1.382812,-1.507812 3.023438,-2.703125 4.921875,-3.578125 1.90625,-0.882813 3.988281,-1.328125 6.25,-1.328125 2.300781,0 4.398437,0.464844 6.296875,1.390625 1.894531,0.929687 3.515625,2.167969 4.859375,3.71875 1.34375,1.554687 2.390625,3.289063 3.140625,5.203125 0.75,1.90625 1.125,3.875 1.125,5.90625 0,2.09375 -0.390625,4.105469 -1.171875,6.03125 -0.773437,1.917969 -1.855469,3.632812 -3.25,5.140625 -1.386719,1.511719 -3.027344,2.699219 -4.921875,3.5625 -1.898438,0.867187 -3.964844,1.296875 -6.203125,1.296875 z m -9.234375,-16.125 c 0,1.375 0.207031,2.710938 0.625,4 0.425781,1.28125 1.03125,2.421875 1.8125,3.421875 0.789062,1 1.757812,1.792969 2.90625,2.375 1.15625,0.585937 2.46875,0.875 3.9375,0.875 1.488281,0 2.816406,-0.304687 3.984375,-0.921875 1.164063,-0.613281 2.132813,-1.4375 2.90625,-2.46875 0.78125,-1.03125 1.367187,-2.179688 1.765625,-3.453125 0.40625,-1.269531 0.609375,-2.546875 0.609375,-3.828125 0,-1.375 -0.21875,-2.691406 -0.65625,-3.953125 -0.429687,-1.269531 -1.039063,-2.40625 -1.828125,-3.40625 -0.792969,-1 -1.765625,-1.789063 -2.921875,-2.375 -1.148437,-0.582031 -2.433594,-0.875 -3.859375,-0.875 -1.523438,0 -2.859375,0.308594 -4.015625,0.921875 -1.148437,0.605469 -2.109375,1.417969 -2.890625,2.4375 -0.773438,1.011719 -1.359375,2.148438 -1.765625,3.40625 -0.40625,1.25 -0.609375,2.53125 -0.609375,3.84375 z m 0,0"
             id="path19481" />
        </g>
      </g>
    </g>
    <g
       fill="#fdf4f1"
       fill-opacity="1"
       id="g19495">
      <g
         transform="translate(641.08332,84.899178)"
         id="g19493">
        <g
           id="g19491">
          <path
             d="m 13.65625,0.453125 c -1.90625,0 -3.621094,-0.324219 -5.140625,-0.96875 C 6.992188,-1.160156 5.691406,-2.054688 4.609375,-3.203125 3.535156,-4.347656 2.707031,-5.648438 2.125,-7.109375 c -0.585938,-1.46875 -0.875,-3.007813 -0.875,-4.625 0,-2.207031 0.5,-4.226563 1.5,-6.0625 1,-1.84375 2.425781,-3.316406 4.28125,-4.421875 1.851562,-1.101562 4.050781,-1.65625 6.59375,-1.65625 2.53125,0 4.707031,0.554688 6.53125,1.65625 1.820312,1.105469 3.179688,2.554688 4.078125,4.34375 l -5.875,1.796875 c -0.5,-0.863281 -1.171875,-1.523437 -2.015625,-1.984375 -0.835938,-0.46875 -1.757812,-0.703125 -2.765625,-0.703125 -1.136719,0 -2.179687,0.292969 -3.125,0.875 -0.9375,0.585937 -1.679687,1.40625 -2.21875,2.46875 -0.53125,1.054687 -0.796875,2.28125 -0.796875,3.6875 0,1.375 0.273438,2.59375 0.828125,3.65625 0.550781,1.054687 1.289063,1.886719 2.21875,2.5 0.925781,0.617187 1.957031,0.921875 3.09375,0.921875 0.71875,0 1.394531,-0.117188 2.03125,-0.359375 0.644531,-0.238281 1.21875,-0.566406 1.71875,-0.984375 0.507813,-0.414062 0.882813,-0.894531 1.125,-1.4375 l 5.875,1.796875 C 23.785156,-4.472656 23,-3.425781 21.96875,-2.5 c -1.03125,0.917969 -2.242188,1.640625 -3.625,2.171875 -1.386719,0.519531 -2.949219,0.78125 -4.6875,0.78125 z m 0,0"
             id="path19489" />
        </g>
      </g>
    </g>
    <g
       fill="#fdf4f1"
       fill-opacity="1"
       id="g19503">
      <g
         transform="translate(666.34528,84.899178)"
         id="g19501">
        <g
           id="g19499">
          <path
             d="m 16.796875,-1.203125 c -0.511719,0.210937 -1.125,0.449219 -1.84375,0.71875 -0.710937,0.261719 -1.476563,0.4765625 -2.296875,0.640625 -0.824219,0.164062 -1.652344,0.25 -2.484375,0.25 C 9.066406,0.40625 8.050781,0.210938 7.125,-0.171875 6.195312,-0.566406 5.457031,-1.1875 4.90625,-2.03125 4.351562,-2.882812 4.078125,-4 4.078125,-5.375 v -13.484375 h -3.09375 v -4.609375 h 3.09375 v -7.625 h 6 v 7.625 H 15 v 4.609375 h -4.921875 v 11.46875 c 0.03125,0.804687 0.253906,1.386719 0.671875,1.75 0.414062,0.355469 0.9375,0.53125 1.5625,0.53125 0.632812,0 1.25,-0.101563 1.84375,-0.3125 0.59375,-0.207031 1.070312,-0.382813 1.4375,-0.53125 z m 0,0"
             id="path19497" />
        </g>
      </g>
    </g>
    <g
       fill="#ff516b"
       fill-opacity="1"
       id="g19517">
      <g
         transform="translate(694.29624,84.899178)"
         id="g19515">
        <g
           id="g19513">
          <path
             d="m 1.703125,0 c 0,-1.34375 0.101563,-2.550781 0.3125,-3.625 0.207031,-1.070312 0.570313,-2.070312 1.09375,-3 C 3.628906,-7.550781 4.34375,-8.425781 5.25,-9.25 c 0.914062,-0.820312 2.078125,-1.617188 3.484375,-2.390625 1.226563,-0.65625 2.300781,-1.226563 3.21875,-1.71875 0.925781,-0.5 1.710937,-0.957031 2.359375,-1.375 0.644531,-0.414063 1.128906,-0.84375 1.453125,-1.28125 0.332031,-0.4375 0.5,-0.9375 0.5,-1.5 0,-0.59375 -0.167969,-1.132813 -0.5,-1.625 -0.324219,-0.5 -0.789063,-0.894531 -1.390625,-1.1875 -0.59375,-0.300781 -1.339844,-0.453125 -2.234375,-0.453125 -0.71875,0 -1.386719,0.08984 -2,0.265625 C 9.535156,-20.335938 8.96875,-20.082031 8.4375,-19.75 7.914062,-19.425781 7.429688,-19.0625 6.984375,-18.65625 6.535156,-18.25 6.132812,-17.820312 5.78125,-17.375 l -3.8125,-4.390625 c 0.414062,-0.425781 0.972656,-0.882813 1.671875,-1.375 0.707031,-0.488281 1.546875,-0.945313 2.515625,-1.375 0.96875,-0.4375 2.039062,-0.796875 3.21875,-1.078125 1.1875,-0.289062 2.453125,-0.4375 3.796875,-0.4375 2.03125,0 3.757813,0.324219 5.1875,0.96875 1.4375,0.648438 2.535156,1.539062 3.296875,2.671875 0.757812,1.125 1.140625,2.453125 1.140625,3.984375 0,1.042969 -0.195313,1.96875 -0.578125,2.78125 -0.386719,0.804688 -0.882812,1.511719 -1.484375,2.125 -0.59375,0.605469 -1.246094,1.148438 -1.953125,1.625 -0.699219,0.480469 -1.375,0.902344 -2.03125,1.265625 -0.929688,0.46875 -1.765625,0.90625 -2.515625,1.3125 -0.742187,0.40625 -1.398437,0.8125 -1.96875,1.21875 -0.5625,0.398437 -1.0625,0.804687 -1.5,1.21875 -0.429687,0.417969 -0.808594,0.898437 -1.140625,1.4375 H 23.296875 V 0 Z m 0,0"
             id="path19511" />
        </g>
      </g>
    </g>
    <g
       fill="#ff516b"
       fill-opacity="1"
       id="g19525">
      <g
         transform="translate(719.5582,84.899178)"
         id="g19523">
        <g
           id="g19521">
          <path
             d="m 25.3125,-13.125 c 0,2.625 -0.5,4.964844 -1.5,7.015625 -1,2.042969 -2.375,3.648437 -4.125,4.8125 -1.75,1.167969 -3.730469,1.75 -5.9375,1.75 -2.210938,0 -4.1875,-0.582031 -5.9375,-1.75 -1.742188,-1.164063 -3.117188,-2.769531 -4.125,-4.8125 -1,-2.050781 -1.5,-4.390625 -1.5,-7.015625 0,-2.625 0.5,-4.957031 1.5,-7 1.007812,-2.050781 2.382812,-3.664062 4.125,-4.84375 1.75,-1.1875 3.726562,-1.78125 5.9375,-1.78125 2.207031,0 4.1875,0.59375 5.9375,1.78125 1.75,1.179688 3.125,2.792969 4.125,4.84375 1,2.042969 1.5,4.375 1.5,7 z m -6.046875,0 c 0,-1.613281 -0.234375,-3.023438 -0.703125,-4.234375 -0.460938,-1.207031 -1.109375,-2.15625 -1.953125,-2.84375 -0.835937,-0.6875 -1.789063,-1.03125 -2.859375,-1.03125 -1.105469,0 -2.074219,0.34375 -2.90625,1.03125 -0.835938,0.6875 -1.484375,1.636719 -1.953125,2.84375 -0.460937,1.210937 -0.6875,2.621094 -0.6875,4.234375 0,1.617188 0.226563,3.023438 0.6875,4.21875 0.46875,1.1875 1.117187,2.125 1.953125,2.8125 0.832031,0.6875 1.800781,1.03125 2.90625,1.03125 1.070312,0 2.019531,-0.34375 2.84375,-1.03125 0.820312,-0.6875 1.472656,-1.632812 1.953125,-2.84375 0.476563,-1.207031 0.71875,-2.601562 0.71875,-4.1875 z m 0,0"
             id="path19519" />
        </g>
      </g>
    </g>
    <g
       fill="#ff516b"
       fill-opacity="1"
       id="g19533">
      <g
         transform="translate(747.05969,84.899178)"
         id="g19531">
        <g
           id="g19529">
          <path
             d="m 1.703125,0 c 0,-1.34375 0.101563,-2.550781 0.3125,-3.625 0.207031,-1.070312 0.570313,-2.070312 1.09375,-3 C 3.628906,-7.550781 4.34375,-8.425781 5.25,-9.25 c 0.914062,-0.820312 2.078125,-1.617188 3.484375,-2.390625 1.226563,-0.65625 2.300781,-1.226563 3.21875,-1.71875 0.925781,-0.5 1.710937,-0.957031 2.359375,-1.375 0.644531,-0.414063 1.128906,-0.84375 1.453125,-1.28125 0.332031,-0.4375 0.5,-0.9375 0.5,-1.5 0,-0.59375 -0.167969,-1.132813 -0.5,-1.625 -0.324219,-0.5 -0.789063,-0.894531 -1.390625,-1.1875 -0.59375,-0.300781 -1.339844,-0.453125 -2.234375,-0.453125 -0.71875,0 -1.386719,0.08984 -2,0.265625 C 9.535156,-20.335938 8.96875,-20.082031 8.4375,-19.75 7.914062,-19.425781 7.429688,-19.0625 6.984375,-18.65625 6.535156,-18.25 6.132812,-17.820312 5.78125,-17.375 l -3.8125,-4.390625 c 0.414062,-0.425781 0.972656,-0.882813 1.671875,-1.375 0.707031,-0.488281 1.546875,-0.945313 2.515625,-1.375 0.96875,-0.4375 2.039062,-0.796875 3.21875,-1.078125 1.1875,-0.289062 2.453125,-0.4375 3.796875,-0.4375 2.03125,0 3.757813,0.324219 5.1875,0.96875 1.4375,0.648438 2.535156,1.539062 3.296875,2.671875 0.757812,1.125 1.140625,2.453125 1.140625,3.984375 0,1.042969 -0.195313,1.96875 -0.578125,2.78125 -0.386719,0.804688 -0.882812,1.511719 -1.484375,2.125 -0.59375,0.605469 -1.246094,1.148438 -1.953125,1.625 -0.699219,0.480469 -1.375,0.902344 -2.03125,1.265625 -0.929688,0.46875 -1.765625,0.90625 -2.515625,1.3125 -0.742187,0.40625 -1.398437,0.8125 -1.96875,1.21875 -0.5625,0.398437 -1.0625,0.804687 -1.5,1.21875 -0.429687,0.417969 -0.808594,0.898437 -1.140625,1.4375 H 23.296875 V 0 Z m 0,0"
             id="path19527" />
        </g>
      </g>
    </g>
    <g
       fill="#ff516b"
       fill-opacity="1"
       id="g19541">
      <g
         transform="translate(772.32165,84.899178)"
         id="g19539">
        <g
           id="g19537">
          <path
             d="M 13.984375,5.6875 V -0.984375 H 0.890625 V -6.3125 L 15.90625,-25.578125 h 4.078125 v 19.21875 h 3.9375 v 5.375 h -3.9375 V 5.6875 Z M 6.90625,-6.359375 h 7.75 v -10.125 z m 0,0"
             id="path19535" />
        </g>
      </g>
    </g>
    <g
       fill="#fdf4f1"
       fill-opacity="1"
       id="g19549">
      <g
         transform="translate(608.95508,134.10399)"
         id="g19547">
        <g
           id="g19545">
          <path
             d="M 5.3125,0.265625 C 4.53125,0.265625 3.734375,0.175781 2.921875,0 2.109375,-0.164062 1.457031,-0.363281 0.96875,-0.59375 L 1.21875,-2.5 c 0.632812,0.304688 1.347656,0.570312 2.140625,0.796875 0.800781,0.230469 1.59375,0.34375 2.375,0.34375 0.882813,0 1.570313,-0.160156 2.0625,-0.484375 0.488281,-0.320312 0.734375,-0.804688 0.734375,-1.453125 0,-0.488281 -0.125,-0.894531 -0.375,-1.21875 -0.25,-0.320313 -0.617188,-0.59375 -1.09375,-0.8125 C 6.59375,-5.546875 5.9375,-5.78125 5.09375,-6.03125 4.226562,-6.289062 3.507812,-6.566406 2.9375,-6.859375 2.375,-7.148438 1.914062,-7.546875 1.5625,-8.046875 1.21875,-8.554688 1.046875,-9.195312 1.046875,-9.96875 c 0,-1.070312 0.410156,-1.9375 1.234375,-2.59375 0.832031,-0.664062 2.003906,-1 3.515625,-1 0.800781,0 1.566406,0.09375 2.296875,0.28125 0.726562,0.179688 1.363281,0.390625 1.90625,0.640625 l -0.1875,1.921875 c -0.710938,-0.425781 -1.390625,-0.734375 -2.046875,-0.921875 -0.65625,-0.1875 -1.339844,-0.28125 -2.046875,-0.28125 -0.824219,0 -1.480469,0.152344 -1.96875,0.453125 -0.492188,0.304688 -0.734375,0.773438 -0.734375,1.40625 0,0.429688 0.109375,0.78125 0.328125,1.0625 0.226562,0.28125 0.550781,0.523438 0.96875,0.71875 0.414062,0.1875 1,0.398438 1.75,0.625 1.488281,0.460938 2.597656,1 3.328125,1.625 0.738281,0.625 1.109375,1.492188 1.109375,2.59375 0,1.167969 -0.4375,2.078125 -1.3125,2.734375 -0.875,0.6484375 -2.167969,0.96875 -3.875,0.96875 z m 0,0"
             id="path19543" />
        </g>
      </g>
    </g>
    <g
       fill="#fdf4f1"
       fill-opacity="1"
       id="g19557">
      <g
         transform="translate(620.0434,134.10399)"
         id="g19555">
        <g
           id="g19553">
          <path
             d="m 6.875,0.265625 c -1.835938,0 -3.214844,-0.515625 -4.140625,-1.546875 -0.917969,-1.03125 -1.375,-2.484375 -1.375,-4.359375 v -7.640625 h 1.8125 V -6.125 c 0,1.449219 0.257813,2.605469 0.78125,3.46875 0.519531,0.867188 1.492187,1.296875 2.921875,1.296875 1.425781,0 2.398438,-0.429687 2.921875,-1.296875 0.519531,-0.875 0.78125,-2.03125 0.78125,-3.46875 v -7.15625 H 12.375 v 7.640625 c 0,1.875 -0.460938,3.328125 -1.375,4.359375 C 10.082031,-0.25 8.707031,0.265625 6.875,0.265625 Z m 0,0"
             id="path19551" />
        </g>
      </g>
    </g>
    <g
       fill="#fdf4f1"
       fill-opacity="1"
       id="g19565">
      <g
         transform="translate(633.78988,134.10399)"
         id="g19563">
        <g
           id="g19561">
          <path
             d="M 1.515625,-13.28125 H 3.46875 l 6.5625,9.9375 v -9.9375 h 1.8125 V 0 H 10.3125 L 3.328125,-10.5 V 0 h -1.8125 z m 0,0"
             id="path19559" />
        </g>
      </g>
    </g>
    <g
       fill="#fdf4f1"
       fill-opacity="1"
       id="g19579">
      <g
         transform="translate(667.20523,134.10399)"
         id="g19577">
        <g
           id="g19575">
          <path
             d="m 12.609375,0 -1.25,-10.046875 L 7.75,-3.15625 4.0625,-10.0625 2.8125,0 H 0.90625 l 1.796875,-13.28125 h 1.53125 l 3.5,6.578125 3.453125,-6.578125 h 1.546875 L 14.5,0 Z m 0,0"
             id="path19573" />
        </g>
      </g>
    </g>
    <g
       fill="#fdf4f1"
       fill-opacity="1"
       id="g19587">
      <g
         transform="translate(682.62255,134.10399)"
         id="g19585">
        <g
           id="g19583">
          <path
             d="m 7.3125,0.265625 c -1.273438,0 -2.402344,-0.28125 -3.390625,-0.84375 C 2.929688,-1.148438 2.15625,-1.957031 1.59375,-3 1.039062,-4.050781 0.765625,-5.265625 0.765625,-6.640625 c 0,-1.382813 0.273437,-2.597656 0.828125,-3.640625 0.5625,-1.039062 1.335938,-1.847656 2.328125,-2.421875 0.988281,-0.570313 2.117187,-0.859375 3.390625,-0.859375 1.257812,0 2.382812,0.289062 3.375,0.859375 1,0.574219 1.773438,1.382813 2.328125,2.421875 0.5625,1.042969 0.84375,2.257812 0.84375,3.640625 0,1.375 -0.28125,2.589844 -0.84375,3.640625 -0.554687,1.042969 -1.328125,1.851562 -2.328125,2.421875 -0.992188,0.5625 -2.117188,0.84375 -3.375,0.84375 z m 0,-1.75 c 0.988281,0 1.828125,-0.222656 2.515625,-0.671875 0.695313,-0.445312 1.21875,-1.054688 1.5625,-1.828125 0.351563,-0.78125 0.53125,-1.664063 0.53125,-2.65625 0,-0.988281 -0.179687,-1.867187 -0.53125,-2.640625 -0.34375,-0.78125 -0.867187,-1.394531 -1.5625,-1.84375 -0.6875,-0.457031 -1.527344,-0.6875 -2.515625,-0.6875 -0.992188,0 -1.835938,0.230469 -2.53125,0.6875 -0.699219,0.449219 -1.21875,1.0625 -1.5625,1.84375 -0.34375,0.773438 -0.515625,1.652344 -0.515625,2.640625 0,0.992187 0.171875,1.875 0.515625,2.65625 0.34375,0.773437 0.863281,1.382813 1.5625,1.828125 0.695312,0.449219 1.539062,0.671875 2.53125,0.671875 z m 0,0"
             id="path19581" />
        </g>
      </g>
    </g>
    <g
       fill="#fdf4f1"
       fill-opacity="1"
       id="g19595">
      <g
         transform="translate(697.24243,134.10399)"
         id="g19593">
        <g
           id="g19591">
          <path
             d="M 1.515625,-13.28125 H 3.46875 l 6.5625,9.9375 v -9.9375 h 1.8125 V 0 H 10.3125 L 3.328125,-10.5 V 0 h -1.8125 z m 0,0"
             id="path19589" />
        </g>
      </g>
    </g>
    <g
       fill="#fdf4f1"
       fill-opacity="1"
       id="g19603">
      <g
         transform="translate(730.42158,134.10399)"
         id="g19601">
        <g
           id="g19599">
          <path
             d="m 4.15625,-11.65625 h -3.875 v -1.625 h 9.546875 v 1.625 H 5.96875 V 0 h -1.8125 z m 0,0"
             id="path19597" />
        </g>
      </g>
    </g>
    <g
       fill="#fdf4f1"
       fill-opacity="1"
       id="g19611">
      <g
         transform="translate(740.54157,134.10399)"
         id="g19609">
        <g
           id="g19607">
          <path
             d="m 6.875,0.265625 c -1.835938,0 -3.214844,-0.515625 -4.140625,-1.546875 -0.917969,-1.03125 -1.375,-2.484375 -1.375,-4.359375 v -7.640625 h 1.8125 V -6.125 c 0,1.449219 0.257813,2.605469 0.78125,3.46875 0.519531,0.867188 1.492187,1.296875 2.921875,1.296875 1.425781,0 2.398438,-0.429687 2.921875,-1.296875 0.519531,-0.875 0.78125,-2.03125 0.78125,-3.46875 v -7.15625 H 12.375 v 7.640625 c 0,1.875 -0.460938,3.328125 -1.375,4.359375 C 10.082031,-0.25 8.707031,0.265625 6.875,0.265625 Z m 0,0"
             id="path19605" />
        </g>
      </g>
    </g>
    <g
       fill="#fdf4f1"
       fill-opacity="1"
       id="g19619">
      <g
         transform="translate(754.28805,134.10399)"
         id="g19617">
        <g
           id="g19615">
          <path
             d="M 1.515625,-13.28125 H 9.625 v 1.625 H 3.328125 v 3.890625 h 5 V -6.125 h -5 v 4.5 h 6.46875 V 0 h -8.28125 z m 0,0"
             id="path19613" />
        </g>
      </g>
    </g>
    <g
       fill="#fdf4f1"
       fill-opacity="1"
       id="g19627">
      <g
         transform="translate(785.18117,134.10399)"
         id="g19625">
        <g
           id="g19623">
          <path
             d="M 0.078125,-13.28125 H 1.96875 l 2.8125,10.953125 3.25,-10.6875 h 1.890625 l 3.25,10.6875 2.8125,-10.953125 h 1.90625 L 14.125,0 H 12.203125 L 8.984375,-10.6875 5.75,0 H 3.828125 Z m 0,0"
             id="path19621" />
        </g>
      </g>
    </g>
    <g
       fill="#fdf4f1"
       fill-opacity="1"
       id="g19635">
      <g
         transform="translate(803.14273,134.10399)"
         id="g19633">
        <g
           id="g19631">
          <path
             d="M 1.515625,-13.28125 H 9.625 v 1.625 H 3.328125 v 3.890625 h 5 V -6.125 h -5 v 4.5 h 6.46875 V 0 h -8.28125 z m 0,0"
             id="path19629" />
        </g>
      </g>
    </g>
    <g
       fill="#fdf4f1"
       fill-opacity="1"
       id="g19643">
      <g
         transform="translate(813.66144,134.10399)"
         id="g19641">
        <g
           id="g19639">
          <path
             d="M 1.515625,-13.28125 H 6.4375 c 1.289062,0 2.4375,0.261719 3.4375,0.78125 1,0.523438 1.773438,1.289062 2.328125,2.296875 0.5625,1.011719 0.84375,2.199219 0.84375,3.5625 0,1.367187 -0.28125,2.554687 -0.84375,3.5625 C 11.648438,-2.078125 10.875,-1.3125 9.875,-0.78125 8.875,-0.257812 7.726562,0 6.4375,0 H 1.515625 Z M 6.4375,-1.625 c 1.476562,0 2.617188,-0.453125 3.421875,-1.359375 0.800781,-0.90625 1.203125,-2.125 1.203125,-3.65625 0,-1.53125 -0.402344,-2.75 -1.203125,-3.65625 C 9.054688,-11.203125 7.914062,-11.65625 6.4375,-11.65625 H 3.328125 V -1.625 Z m 0,0"
             id="path19637" />
        </g>
      </g>
    </g>
    <g
       fill="#fdf4f1"
       fill-opacity="1"
       id="g19651">
      <g
         transform="translate(846.38295,134.10399)"
         id="g19649">
        <g
           id="g19647">
          <path
             d="m 4.15625,-11.65625 h -3.875 v -1.625 h 9.546875 v 1.625 H 5.96875 V 0 h -1.8125 z m 0,0"
             id="path19645" />
        </g>
      </g>
    </g>
    <g
       fill="#fdf4f1"
       fill-opacity="1"
       id="g19659">
      <g
         transform="translate(856.50294,134.10399)"
         id="g19657">
        <g
           id="g19655">
          <path
             d="m 1.515625,-13.28125 h 1.8125 v 5.484375 h 6.75 v -5.484375 h 1.8125 V 0 h -1.8125 v -6.09375 h -6.75 V 0 h -1.8125 z m 0,0"
             id="path19653" />
        </g>
      </g>
    </g>
    <g
       fill="#fdf4f1"
       fill-opacity="1"
       id="g19667">
      <g
         transform="translate(869.90766,134.10399)"
         id="g19665">
        <g
           id="g19663">
          <path
             d="m 6.875,0.265625 c -1.835938,0 -3.214844,-0.515625 -4.140625,-1.546875 -0.917969,-1.03125 -1.375,-2.484375 -1.375,-4.359375 v -7.640625 h 1.8125 V -6.125 c 0,1.449219 0.257813,2.605469 0.78125,3.46875 0.519531,0.867188 1.492187,1.296875 2.921875,1.296875 1.425781,0 2.398438,-0.429687 2.921875,-1.296875 0.519531,-0.875 0.78125,-2.03125 0.78125,-3.46875 v -7.15625 H 12.375 v 7.640625 c 0,1.875 -0.460938,3.328125 -1.375,4.359375 C 10.082031,-0.25 8.707031,0.265625 6.875,0.265625 Z m 0,0"
             id="path19661" />
        </g>
      </g>
    </g>
    <g
       fill="#fdf4f1"
       fill-opacity="1"
       id="g19675">
      <g
         transform="translate(910.61838,134.10399)"
         id="g19673">
        <g
           id="g19671">
          <path
             d="M 1.515625,-13.28125 H 9.625 v 1.625 H 3.328125 v 3.890625 H 8.1875 V -6.125 H 3.328125 V 0 h -1.8125 z m 0,0"
             id="path19669" />
        </g>
      </g>
    </g>
    <g
       fill="#fdf4f1"
       fill-opacity="1"
       id="g19683">
      <g
         transform="translate(920.54851,134.10399)"
         id="g19681">
        <g
           id="g19679">
          <path
             d="m 1.515625,-13.28125 h 4.3125 c 1.445313,0 2.570313,0.335938 3.375,1 0.8125,0.65625 1.21875,1.667969 1.21875,3.03125 0,1.773438 -0.773437,3.023438 -2.3125,3.75 L 11.09375,0 H 8.890625 L 6.1875,-5.1875 H 3.421875 V 0 H 1.515625 Z M 5.8125,-6.796875 c 0.882812,0 1.5625,-0.210937 2.03125,-0.640625 0.46875,-0.4375 0.703125,-1.039062 0.703125,-1.8125 0,-0.769531 -0.234375,-1.363281 -0.703125,-1.78125 -0.460938,-0.425781 -1.136719,-0.640625 -2.03125,-0.640625 H 3.421875 v 4.875 z m 0,0"
             id="path19677" />
        </g>
      </g>
    </g>
    <g
       fill="#fdf4f1"
       fill-opacity="1"
       id="g19691">
      <g
         transform="translate(931.99757,134.10399)"
         id="g19689">
        <g
           id="g19687">
          <path
             d="m 1.515625,-13.28125 h 1.8125 V 0 h -1.8125 z m 0,0"
             id="path19685" />
        </g>
      </g>
    </g>
    <g
       fill="#fdf4f1"
       fill-opacity="1"
       id="g19699">
      <g
         transform="translate(965.987,134.10399)"
         id="g19697">
        <g
           id="g19695">
          <path
             d="M 5.3125,0.265625 C 4.53125,0.265625 3.734375,0.175781 2.921875,0 2.109375,-0.164062 1.457031,-0.363281 0.96875,-0.59375 L 1.21875,-2.5 c 0.632812,0.304688 1.347656,0.570312 2.140625,0.796875 0.800781,0.230469 1.59375,0.34375 2.375,0.34375 0.882813,0 1.570313,-0.160156 2.0625,-0.484375 0.488281,-0.320312 0.734375,-0.804688 0.734375,-1.453125 0,-0.488281 -0.125,-0.894531 -0.375,-1.21875 -0.25,-0.320313 -0.617188,-0.59375 -1.09375,-0.8125 C 6.59375,-5.546875 5.9375,-5.78125 5.09375,-6.03125 4.226562,-6.289062 3.507812,-6.566406 2.9375,-6.859375 2.375,-7.148438 1.914062,-7.546875 1.5625,-8.046875 1.21875,-8.554688 1.046875,-9.195312 1.046875,-9.96875 c 0,-1.070312 0.410156,-1.9375 1.234375,-2.59375 0.832031,-0.664062 2.003906,-1 3.515625,-1 0.800781,0 1.566406,0.09375 2.296875,0.28125 0.726562,0.179688 1.363281,0.390625 1.90625,0.640625 l -0.1875,1.921875 c -0.710938,-0.425781 -1.390625,-0.734375 -2.046875,-0.921875 -0.65625,-0.1875 -1.339844,-0.28125 -2.046875,-0.28125 -0.824219,0 -1.480469,0.152344 -1.96875,0.453125 -0.492188,0.304688 -0.734375,0.773438 -0.734375,1.40625 0,0.429688 0.109375,0.78125 0.328125,1.0625 0.226562,0.28125 0.550781,0.523438 0.96875,0.71875 0.414062,0.1875 1,0.398438 1.75,0.625 1.488281,0.460938 2.597656,1 3.328125,1.625 0.738281,0.625 1.109375,1.492188 1.109375,2.59375 0,1.167969 -0.4375,2.078125 -1.3125,2.734375 -0.875,0.6484375 -2.167969,0.96875 -3.875,0.96875 z m 0,0"
             id="path19693" />
        </g>
      </g>
    </g>
    <g
       fill="#fdf4f1"
       fill-opacity="1"
       id="g19707">
      <g
         transform="translate(977.07532,134.10399)"
         id="g19705">
        <g
           id="g19703">
          <path
             d="M 8.390625,-3.59375 H 3.296875 L 2.03125,0 H 0.140625 l 4.75,-13.28125 h 1.90625 L 11.5625,0 H 9.65625 Z m -0.5625,-1.625 L 5.84375,-10.765625 3.875,-5.21875 Z m 0,0"
             id="path19701" />
        </g>
      </g>
    </g>
    <g
       fill="#fdf4f1"
       fill-opacity="1"
       id="g19715">
      <g
         transform="translate(988.77122,134.10399)"
         id="g19713">
        <g
           id="g19711">
          <path
             d="m 4.15625,-11.65625 h -3.875 v -1.625 h 9.546875 v 1.625 H 5.96875 V 0 h -1.8125 z m 0,0"
             id="path19709" />
        </g>
      </g>
    </g>
    <g
       mask="url(#ba1989499f)"
       id="g19737">
      <g
         transform="translate(619,166)"
         id="g19735">
        <g
           clip-path="url(#54f00792bd)"
           id="g19733">
          <g
             fill="#fdf4f1"
             fill-opacity="1"
             id="g19723">
            <g
               transform="translate(0.824778,17.891496)"
               id="g19721">
              <g
                 id="g19719">
                <path
                   d="m 4.703125,-5.53125 c 0.65625,-0.976562 1.132813,-1.789062 1.4375,-2.4375 0.3125,-0.644531 0.46875,-1.234375 0.46875,-1.765625 0,-0.65625 -0.1875,-1.175781 -0.5625,-1.5625 -0.375,-0.394531 -0.882813,-0.59375 -1.515625,-0.59375 -1.179688,0 -2.25,0.5 -3.21875,1.5 L 1.078125,-12.28125 c 0.476563,-0.382812 1.023437,-0.695312 1.640625,-0.9375 0.625,-0.238281 1.296875,-0.359375 2.015625,-0.359375 1.175781,0 2.082031,0.34375 2.71875,1.03125 0.644531,0.679687 0.96875,1.554687 0.96875,2.625 0,0.835937 -0.164063,1.625 -0.484375,2.375 -0.324219,0.742187 -0.871094,1.695313 -1.640625,2.859375 l -2,3.03125 H 8.9375 v 1.640625 H 1.078125 Z m 0,0"
                   id="path19717" />
              </g>
            </g>
          </g>
          <g
             fill="#fdf4f1"
             fill-opacity="1"
             id="g19731">
            <g
               transform="translate(10.77389,17.891496)"
               id="g19729">
              <g
                 id="g19727">
                <path
                   d="m 5.1875,-13.5625 c 1.375,0 2.453125,0.453125 3.234375,1.359375 0.789063,0.898437 1.1875,2.089844 1.1875,3.578125 0,1.28125 -0.277344,2.492188 -0.828125,3.625 -0.554688,1.136719 -1.261719,2.125 -2.125,2.96875 C 5.789062,-1.1875 4.875,-0.507812 3.90625,0 L 2.671875,-1.15625 c 1.050781,-0.539062 2,-1.238281 2.84375,-2.09375 0.84375,-0.851562 1.457031,-1.800781 1.84375,-2.84375 -0.71875,0.523438 -1.585937,0.78125 -2.59375,0.78125 -0.761719,0 -1.445313,-0.171875 -2.046875,-0.515625 C 2.125,-6.179688 1.65625,-6.664062 1.3125,-7.28125 c -0.335938,-0.613281 -0.5,-1.300781 -0.5,-2.0625 0,-0.8125 0.179688,-1.535156 0.546875,-2.171875 0.375,-0.632813 0.890625,-1.132813 1.546875,-1.5 C 3.5625,-13.378906 4.320312,-13.5625 5.1875,-13.5625 Z m 0,6.6875 c 0.738281,0 1.34375,-0.238281 1.8125,-0.71875 0.46875,-0.476562 0.703125,-1.085938 0.703125,-1.828125 0,-0.757813 -0.230469,-1.378906 -0.6875,-1.859375 C 6.554688,-11.757812 5.945312,-12 5.1875,-12 c -0.75,0 -1.359375,0.25 -1.828125,0.75 -0.460937,0.492188 -0.6875,1.109375 -0.6875,1.859375 0,0.71875 0.226563,1.320313 0.6875,1.796875 C 3.828125,-7.113281 4.4375,-6.875 5.1875,-6.875 Z m 0,0"
                   id="path19725" />
              </g>
            </g>
          </g>
        </g>
      </g>
    </g>
    <g
       fill="#fdf4f1"
       fill-opacity="1"
       id="g19745">
      <g
         transform="translate(624.80281,240.06407)"
         id="g19743">
        <g
           id="g19741">
          <path
             d="m 6.015625,-7.96875 c 0.757813,0 1.4375,0.179688 2.03125,0.53125 0.601563,0.34375 1.070313,0.824219 1.40625,1.4375 0.34375,0.605469 0.515625,1.289062 0.515625,2.046875 0,0.8125 -0.1875,1.542969 -0.5625,2.1875 -0.367188,0.636719 -0.875,1.136719 -1.53125,1.5 -0.65625,0.3515625 -1.417969,0.53125 -2.28125,0.53125 -1.375,0 -2.460938,-0.445313 -3.25,-1.34375 -0.78125,-0.90625 -1.171875,-2.101563 -1.171875,-3.59375 0,-1.3125 0.285156,-2.550781 0.859375,-3.71875 0.570312,-1.175781 1.300781,-2.203125 2.1875,-3.078125 0.894531,-0.875 1.84375,-1.570312 2.84375,-2.09375 l 1.234375,1.171875 c -1.136719,0.5625 -2.148437,1.296875 -3.03125,2.203125 -0.875,0.90625 -1.507813,1.914062 -1.890625,3.015625 0.707031,-0.53125 1.585938,-0.796875 2.640625,-0.796875 z M 5.59375,-1.296875 c 0.75,0 1.351562,-0.242187 1.8125,-0.734375 0.46875,-0.488281 0.703125,-1.109375 0.703125,-1.859375 0,-0.71875 -0.234375,-1.316406 -0.703125,-1.796875 -0.460938,-0.488281 -1.0625,-0.734375 -1.8125,-0.734375 -0.742188,0 -1.34375,0.246094 -1.8125,0.734375 -0.46875,0.480469 -0.703125,1.085938 -0.703125,1.8125 0,0.761719 0.226563,1.382812 0.6875,1.859375 0.46875,0.480469 1.078125,0.71875 1.828125,0.71875 z m 0,0"
             id="path19739" />
        </g>
      </g>
    </g>
    <g
       fill="#fdf4f1"
       fill-opacity="1"
       id="g19753">
      <g
         transform="translate(621.96826,296.23661)"
         id="g19751">
        <g
           id="g19749">
          <path
             d="m 2.921875,-10.6875 c -0.417969,0.34375 -0.777344,0.601562 -1.078125,0.765625 -0.292969,0.15625 -0.589844,0.289063 -0.890625,0.390625 l -0.3125,-1.6875 c 0.53125,-0.175781 1.054687,-0.457031 1.578125,-0.84375 0.53125,-0.382812 0.9375,-0.789062 1.21875,-1.21875 H 4.671875 V 0 h -1.75 z m 0,0"
             id="path19747" />
        </g>
      </g>
    </g>
    <g
       fill="#fdf4f1"
       fill-opacity="1"
       id="g19761">
      <g
         transform="translate(628.15797,296.23661)"
         id="g19759">
        <g
           id="g19757">
          <path
             d="m 6.6875,-6.953125 c 1.625,0.53125 2.4375,1.636719 2.4375,3.3125 0,0.792969 -0.199219,1.484375 -0.59375,2.078125 -0.398438,0.585938 -0.945312,1.039062 -1.640625,1.359375 -0.6875,0.3125 -1.464844,0.46875 -2.328125,0.46875 -1.3125,0 -2.578125,-0.3320312 -3.796875,-1 l 0.4375,-1.671875 c 0.59375,0.34375 1.148437,0.605469 1.671875,0.78125 0.519531,0.179688 1.085938,0.265625 1.703125,0.265625 0.8125,0 1.453125,-0.203125 1.921875,-0.609375 0.476562,-0.40625 0.71875,-0.945312 0.71875,-1.625 0,-0.757812 -0.265625,-1.351562 -0.796875,-1.78125 C 5.898438,-5.800781 5.117188,-6.015625 4.078125,-6.015625 H 3.25 V -7.65625 h 0.828125 c 0.820313,0 1.46875,-0.191406 1.9375,-0.578125 0.476563,-0.382813 0.71875,-0.910156 0.71875,-1.578125 0,-0.707031 -0.183594,-1.234375 -0.546875,-1.578125 -0.355469,-0.351563 -0.882812,-0.53125 -1.578125,-0.53125 -0.5,0 -0.980469,0.09375 -1.4375,0.28125 -0.460937,0.1875 -0.9375,0.453125 -1.4375,0.796875 l -0.3125,-1.84375 c 1.03125,-0.582031 2.175781,-0.875 3.4375,-0.875 1.21875,0 2.164063,0.324219 2.84375,0.96875 0.675781,0.648438 1.015625,1.496094 1.015625,2.546875 0,0.730469 -0.179688,1.367187 -0.53125,1.90625 -0.355469,0.53125 -0.855469,0.929687 -1.5,1.1875 z m 0,0"
             id="path19755" />
        </g>
      </g>
    </g>
    <g
       fill="#fdf4f1"
       fill-opacity="1"
       id="g19769">
      <g
         transform="translate(618.59491,352.40927)"
         id="g19767">
        <g
           id="g19765">
          <path
             d="m 4.703125,-5.53125 c 0.65625,-0.976562 1.132813,-1.789062 1.4375,-2.4375 0.3125,-0.644531 0.46875,-1.234375 0.46875,-1.765625 0,-0.65625 -0.1875,-1.175781 -0.5625,-1.5625 -0.375,-0.394531 -0.882813,-0.59375 -1.515625,-0.59375 -1.179688,0 -2.25,0.5 -3.21875,1.5 L 1.078125,-12.28125 c 0.476563,-0.382812 1.023437,-0.695312 1.640625,-0.9375 0.625,-0.238281 1.296875,-0.359375 2.015625,-0.359375 1.175781,0 2.082031,0.34375 2.71875,1.03125 0.644531,0.679687 0.96875,1.554687 0.96875,2.625 0,0.835937 -0.164063,1.625 -0.484375,2.375 -0.324219,0.742187 -0.871094,1.695313 -1.640625,2.859375 l -2,3.03125 H 8.9375 v 1.640625 H 1.078125 Z m 0,0"
             id="path19763" />
        </g>
      </g>
    </g>
    <g
       fill="#fdf4f1"
       fill-opacity="1"
       id="g19777">
      <g
         transform="translate(628.54402,352.40927)"
         id="g19775">
        <g
           id="g19773">
          <path
             d="m 6.625,0.265625 c -1.15625,0 -2.15625,-0.296875 -3,-0.890625 -0.835938,-0.59375 -1.476562,-1.421875 -1.921875,-2.484375 -0.449219,-1.0625 -0.671875,-2.28125 -0.671875,-3.65625 0,-1.351563 0.234375,-2.539063 0.703125,-3.5625 0.476563,-1.019531 1.140625,-1.8125 1.984375,-2.375 0.851562,-0.570313 1.820312,-0.859375 2.90625,-0.859375 1.113281,0 2.09375,0.289062 2.9375,0.859375 0.851562,0.5625 1.507812,1.355469 1.96875,2.375 0.457031,1.023437 0.6875,2.210937 0.6875,3.5625 0,1.375 -0.226562,2.59375 -0.671875,3.65625 -0.4375,1.0625 -1.078125,1.890625 -1.921875,2.484375 -0.84375,0.59375 -1.84375,0.890625 -3,0.890625 z m 0,-1.625 c 1.175781,0 2.082031,-0.46875 2.71875,-1.40625 0.644531,-0.9375 0.96875,-2.269531 0.96875,-4 0,-1.6875 -0.328125,-2.96875 -0.984375,-3.84375 -0.648437,-0.875 -1.546875,-1.3125 -2.703125,-1.3125 -1.105469,0 -1.996094,0.445313 -2.671875,1.328125 -0.679687,0.886719 -1.015625,2.164062 -1.015625,3.828125 0,1.730469 0.316406,3.0625 0.953125,4 0.644531,0.9375 1.554687,1.40625 2.734375,1.40625 z m 0,0"
             id="path19771" />
        </g>
      </g>
    </g>
    <g
       fill="#fdf4f1"
       fill-opacity="1"
       id="g19785">
      <g
         transform="translate(620.44557,408.58182)"
         id="g19783">
        <g
           id="g19781">
          <path
             d="m 4.703125,-5.53125 c 0.65625,-0.976562 1.132813,-1.789062 1.4375,-2.4375 0.3125,-0.644531 0.46875,-1.234375 0.46875,-1.765625 0,-0.65625 -0.1875,-1.175781 -0.5625,-1.5625 -0.375,-0.394531 -0.882813,-0.59375 -1.515625,-0.59375 -1.179688,0 -2.25,0.5 -3.21875,1.5 L 1.078125,-12.28125 c 0.476563,-0.382812 1.023437,-0.695312 1.640625,-0.9375 0.625,-0.238281 1.296875,-0.359375 2.015625,-0.359375 1.175781,0 2.082031,0.34375 2.71875,1.03125 0.644531,0.679687 0.96875,1.554687 0.96875,2.625 0,0.835937 -0.164063,1.625 -0.484375,2.375 -0.324219,0.742187 -0.871094,1.695313 -1.640625,2.859375 l -2,3.03125 H 8.9375 v 1.640625 H 1.078125 Z m 0,0"
             id="path19779" />
        </g>
      </g>
    </g>
    <g
       fill="#fdf4f1"
       fill-opacity="1"
       id="g19793">
      <g
         transform="translate(630.39468,408.58182)"
         id="g19791">
        <g
           id="g19789">
          <path
             d="M 9.359375,-13.28125 3.609375,0 h -1.90625 l 5,-11.578125 h -5.9375 v -1.703125 z m 0,0"
             id="path19787" />
        </g>
      </g>
    </g>
    <g
       mask="url(#32880a6fd7)"
       id="g19815">
      <g
         transform="translate(676,166)"
         id="g19813">
        <g
           clip-path="url(#beb686ebf5)"
           id="g19811">
          <g
             fill="#fdf4f1"
             fill-opacity="1"
             id="g19801">
            <g
               transform="translate(1.137878,17.891496)"
               id="g19799">
              <g
                 id="g19797">
                <path
                   d="m 6.6875,-6.953125 c 1.625,0.53125 2.4375,1.636719 2.4375,3.3125 0,0.792969 -0.199219,1.484375 -0.59375,2.078125 -0.398438,0.585938 -0.945312,1.039062 -1.640625,1.359375 -0.6875,0.3125 -1.464844,0.46875 -2.328125,0.46875 -1.3125,0 -2.578125,-0.3320312 -3.796875,-1 l 0.4375,-1.671875 c 0.59375,0.34375 1.148437,0.605469 1.671875,0.78125 0.519531,0.179688 1.085938,0.265625 1.703125,0.265625 0.8125,0 1.453125,-0.203125 1.921875,-0.609375 0.476562,-0.40625 0.71875,-0.945312 0.71875,-1.625 0,-0.757812 -0.265625,-1.351562 -0.796875,-1.78125 C 5.898438,-5.800781 5.117188,-6.015625 4.078125,-6.015625 H 3.25 V -7.65625 h 0.828125 c 0.820313,0 1.46875,-0.191406 1.9375,-0.578125 0.476563,-0.382813 0.71875,-0.910156 0.71875,-1.578125 0,-0.707031 -0.183594,-1.234375 -0.546875,-1.578125 -0.355469,-0.351563 -0.882812,-0.53125 -1.578125,-0.53125 -0.5,0 -0.980469,0.09375 -1.4375,0.28125 -0.460937,0.1875 -0.9375,0.453125 -1.4375,0.796875 l -0.3125,-1.84375 c 1.03125,-0.582031 2.175781,-0.875 3.4375,-0.875 1.21875,0 2.164063,0.324219 2.84375,0.96875 0.675781,0.648438 1.015625,1.496094 1.015625,2.546875 0,0.730469 -0.179688,1.367187 -0.53125,1.90625 -0.355469,0.53125 -0.855469,0.929687 -1.5,1.1875 z m 0,0"
                   id="path19795" />
              </g>
            </g>
          </g>
          <g
             fill="#fdf4f1"
             fill-opacity="1"
             id="g19809">
            <g
               transform="translate(11.409762,17.891496)"
               id="g19807">
              <g
                 id="g19805">
                <path
                   d="m 6.625,0.265625 c -1.15625,0 -2.15625,-0.296875 -3,-0.890625 -0.835938,-0.59375 -1.476562,-1.421875 -1.921875,-2.484375 -0.449219,-1.0625 -0.671875,-2.28125 -0.671875,-3.65625 0,-1.351563 0.234375,-2.539063 0.703125,-3.5625 0.476563,-1.019531 1.140625,-1.8125 1.984375,-2.375 0.851562,-0.570313 1.820312,-0.859375 2.90625,-0.859375 1.113281,0 2.09375,0.289062 2.9375,0.859375 0.851562,0.5625 1.507812,1.355469 1.96875,2.375 0.457031,1.023437 0.6875,2.210937 0.6875,3.5625 0,1.375 -0.226562,2.59375 -0.671875,3.65625 -0.4375,1.0625 -1.078125,1.890625 -1.921875,2.484375 -0.84375,0.59375 -1.84375,0.890625 -3,0.890625 z m 0,-1.625 c 1.175781,0 2.082031,-0.46875 2.71875,-1.40625 0.644531,-0.9375 0.96875,-2.269531 0.96875,-4 0,-1.6875 -0.328125,-2.96875 -0.984375,-3.84375 -0.648437,-0.875 -1.546875,-1.3125 -2.703125,-1.3125 -1.105469,0 -1.996094,0.445313 -2.671875,1.328125 -0.679687,0.886719 -1.015625,2.164062 -1.015625,3.828125 0,1.730469 0.316406,3.0625 0.953125,4 0.644531,0.9375 1.554687,1.40625 2.734375,1.40625 z m 0,0"
                   id="path19803" />
              </g>
            </g>
          </g>
        </g>
      </g>
    </g>
    <g
       fill="#fdf4f1"
       fill-opacity="1"
       id="g19823">
      <g
         transform="translate(684.13056,240.06407)"
         id="g19821">
        <g
           id="g19819">
          <path
             d="M 9.359375,-13.28125 3.609375,0 h -1.90625 l 5,-11.578125 h -5.9375 v -1.703125 z m 0,0"
             id="path19817" />
        </g>
      </g>
    </g>
    <g
       fill="#fdf4f1"
       fill-opacity="1"
       id="g19831">
      <g
         transform="translate(680.32382,296.23661)"
         id="g19829">
        <g
           id="g19827">
          <path
             d="m 2.921875,-10.6875 c -0.417969,0.34375 -0.777344,0.601562 -1.078125,0.765625 -0.292969,0.15625 -0.589844,0.289063 -0.890625,0.390625 l -0.3125,-1.6875 c 0.53125,-0.175781 1.054687,-0.457031 1.578125,-0.84375 0.53125,-0.382812 0.9375,-0.789062 1.21875,-1.21875 H 4.671875 V 0 h -1.75 z m 0,0"
             id="path19825" />
        </g>
      </g>
    </g>
    <g
       fill="#fdf4f1"
       fill-opacity="1"
       id="g19839">
      <g
         transform="translate(686.51353,296.23661)"
         id="g19837">
        <g
           id="g19835">
          <path
             d="M 10.453125,-4.96875 V -3.4375 H 8.75 V 0 H 6.921875 V -3.4375 H 0.375 l 7.0625,-9.84375 H 8.75 v 8.3125 z m -3.53125,0 v -4.953125 l -3.53125,4.953125 z m 0,0"
             id="path19833" />
        </g>
      </g>
    </g>
    <g
       fill="#fdf4f1"
       fill-opacity="1"
       id="g19847">
      <g
         transform="translate(680.8392,352.40927)"
         id="g19845">
        <g
           id="g19843">
          <path
             d="m 4.703125,-5.53125 c 0.65625,-0.976562 1.132813,-1.789062 1.4375,-2.4375 0.3125,-0.644531 0.46875,-1.234375 0.46875,-1.765625 0,-0.65625 -0.1875,-1.175781 -0.5625,-1.5625 -0.375,-0.394531 -0.882813,-0.59375 -1.515625,-0.59375 -1.179688,0 -2.25,0.5 -3.21875,1.5 L 1.078125,-12.28125 c 0.476563,-0.382812 1.023437,-0.695312 1.640625,-0.9375 0.625,-0.238281 1.296875,-0.359375 2.015625,-0.359375 1.175781,0 2.082031,0.34375 2.71875,1.03125 0.644531,0.679687 0.96875,1.554687 0.96875,2.625 0,0.835937 -0.164063,1.625 -0.484375,2.375 -0.324219,0.742187 -0.871094,1.695313 -1.640625,2.859375 l -2,3.03125 H 8.9375 v 1.640625 H 1.078125 Z m 0,0"
             id="path19841" />
        </g>
      </g>
    </g>
    <g
       fill="#fdf4f1"
       fill-opacity="1"
       id="g19855">
      <g
         transform="translate(690.78831,352.40927)"
         id="g19853">
        <g
           id="g19851">
          <path
             d="m 2.921875,-10.6875 c -0.417969,0.34375 -0.777344,0.601562 -1.078125,0.765625 -0.292969,0.15625 -0.589844,0.289063 -0.890625,0.390625 l -0.3125,-1.6875 c 0.53125,-0.175781 1.054687,-0.457031 1.578125,-0.84375 0.53125,-0.382812 0.9375,-0.789062 1.21875,-1.21875 H 4.671875 V 0 h -1.75 z m 0,0"
             id="path19849" />
        </g>
      </g>
    </g>
    <g
       fill="#fdf4f1"
       fill-opacity="1"
       id="g19863">
      <g
         transform="translate(678.18034,408.58182)"
         id="g19861">
        <g
           id="g19859">
          <path
             d="m 4.703125,-5.53125 c 0.65625,-0.976562 1.132813,-1.789062 1.4375,-2.4375 0.3125,-0.644531 0.46875,-1.234375 0.46875,-1.765625 0,-0.65625 -0.1875,-1.175781 -0.5625,-1.5625 -0.375,-0.394531 -0.882813,-0.59375 -1.515625,-0.59375 -1.179688,0 -2.25,0.5 -3.21875,1.5 L 1.078125,-12.28125 c 0.476563,-0.382812 1.023437,-0.695312 1.640625,-0.9375 0.625,-0.238281 1.296875,-0.359375 2.015625,-0.359375 1.175781,0 2.082031,0.34375 2.71875,1.03125 0.644531,0.679687 0.96875,1.554687 0.96875,2.625 0,0.835937 -0.164063,1.625 -0.484375,2.375 -0.324219,0.742187 -0.871094,1.695313 -1.640625,2.859375 l -2,3.03125 H 8.9375 v 1.640625 H 1.078125 Z m 0,0"
             id="path19857" />
        </g>
      </g>
    </g>
    <g
       fill="#fdf4f1"
       fill-opacity="1"
       id="g19871">
      <g
         transform="translate(688.12945,408.58182)"
         id="g19869">
        <g
           id="g19867">
          <path
             d="m 8.375,-7.265625 c 0.632812,0.335937 1.125,0.804687 1.46875,1.40625 0.34375,0.605469 0.515625,1.292969 0.515625,2.0625 0,0.804687 -0.195313,1.511719 -0.578125,2.125 C 9.40625,-1.066406 8.867188,-0.59375 8.171875,-0.25 7.484375,0.09375 6.675781,0.265625 5.75,0.265625 4.8125,0.265625 3.992188,0.09375 3.296875,-0.25 c -0.6875,-0.34375 -1.21875,-0.816406 -1.59375,-1.421875 -0.375,-0.613281 -0.5625,-1.320313 -0.5625,-2.125 0,-0.769531 0.175781,-1.457031 0.53125,-2.0625 0.351563,-0.613281 0.847656,-1.09375 1.484375,-1.4375 C 2.707031,-7.609375 2.359375,-7.992188 2.109375,-8.453125 1.867188,-8.921875 1.75,-9.425781 1.75,-9.96875 c 0,-0.613281 0.140625,-1.191406 0.421875,-1.734375 0.28125,-0.550781 0.722656,-1 1.328125,-1.34375 0.601562,-0.34375 1.351562,-0.515625 2.25,-0.515625 0.894531,0 1.632812,0.171875 2.21875,0.515625 0.59375,0.34375 1.023438,0.792969 1.296875,1.34375 0.28125,0.542969 0.421875,1.121094 0.421875,1.734375 0,0.574219 -0.117188,1.089844 -0.34375,1.546875 -0.230469,0.449219 -0.554688,0.835937 -0.96875,1.15625 z m -2.625,-4.65625 c -0.699219,0 -1.242188,0.179687 -1.625,0.53125 -0.386719,0.355469 -0.578125,0.828125 -0.578125,1.421875 0,0.5625 0.195313,1.03125 0.59375,1.40625 C 4.535156,-8.1875 5.070312,-8 5.75,-8 c 0.675781,0 1.195312,-0.179688 1.5625,-0.546875 0.375,-0.375 0.5625,-0.847656 0.5625,-1.421875 0,-0.59375 -0.183594,-1.066406 -0.546875,-1.421875 C 6.960938,-11.742188 6.4375,-11.921875 5.75,-11.921875 Z m 0,10.5625 c 0.863281,0 1.535156,-0.21875 2.015625,-0.65625 C 8.253906,-2.453125 8.5,-3.046875 8.5,-3.796875 8.5,-4.566406 8.253906,-5.195312 7.765625,-5.6875 7.285156,-6.175781 6.613281,-6.421875 5.75,-6.421875 c -0.855469,0 -1.527344,0.246094 -2.015625,0.734375 C 3.242188,-5.195312 3,-4.566406 3,-3.796875 c 0,0.75 0.242188,1.34375 0.734375,1.78125 0.488281,0.4375 1.160156,0.65625 2.015625,0.65625 z m 0,0"
             id="path19865" />
        </g>
      </g>
    </g>
    <g
       fill="#fdf4f1"
       fill-opacity="1"
       id="g19879">
      <g
         transform="translate(744.51236,183.89141)"
         id="g19877">
        <g
           id="g19875">
          <path
             d="m 2.921875,-10.6875 c -0.417969,0.34375 -0.777344,0.601562 -1.078125,0.765625 -0.292969,0.15625 -0.589844,0.289063 -0.890625,0.390625 l -0.3125,-1.6875 c 0.53125,-0.175781 1.054687,-0.457031 1.578125,-0.84375 0.53125,-0.382812 0.9375,-0.789062 1.21875,-1.21875 H 4.671875 V 0 h -1.75 z m 0,0"
             id="path19873" />
        </g>
      </g>
    </g>
    <g
       fill="#fdf4f1"
       fill-opacity="1"
       id="g19887">
      <g
         transform="translate(741.8535,240.06407)"
         id="g19885">
        <g
           id="g19883">
          <path
             d="m 8.375,-7.265625 c 0.632812,0.335937 1.125,0.804687 1.46875,1.40625 0.34375,0.605469 0.515625,1.292969 0.515625,2.0625 0,0.804687 -0.195313,1.511719 -0.578125,2.125 C 9.40625,-1.066406 8.867188,-0.59375 8.171875,-0.25 7.484375,0.09375 6.675781,0.265625 5.75,0.265625 4.8125,0.265625 3.992188,0.09375 3.296875,-0.25 c -0.6875,-0.34375 -1.21875,-0.816406 -1.59375,-1.421875 -0.375,-0.613281 -0.5625,-1.320313 -0.5625,-2.125 0,-0.769531 0.175781,-1.457031 0.53125,-2.0625 0.351563,-0.613281 0.847656,-1.09375 1.484375,-1.4375 C 2.707031,-7.609375 2.359375,-7.992188 2.109375,-8.453125 1.867188,-8.921875 1.75,-9.425781 1.75,-9.96875 c 0,-0.613281 0.140625,-1.191406 0.421875,-1.734375 0.28125,-0.550781 0.722656,-1 1.328125,-1.34375 0.601562,-0.34375 1.351562,-0.515625 2.25,-0.515625 0.894531,0 1.632812,0.171875 2.21875,0.515625 0.59375,0.34375 1.023438,0.792969 1.296875,1.34375 0.28125,0.542969 0.421875,1.121094 0.421875,1.734375 0,0.574219 -0.117188,1.089844 -0.34375,1.546875 -0.230469,0.449219 -0.554688,0.835937 -0.96875,1.15625 z m -2.625,-4.65625 c -0.699219,0 -1.242188,0.179687 -1.625,0.53125 -0.386719,0.355469 -0.578125,0.828125 -0.578125,1.421875 0,0.5625 0.195313,1.03125 0.59375,1.40625 C 4.535156,-8.1875 5.070312,-8 5.75,-8 c 0.675781,0 1.195312,-0.179688 1.5625,-0.546875 0.375,-0.375 0.5625,-0.847656 0.5625,-1.421875 0,-0.59375 -0.183594,-1.066406 -0.546875,-1.421875 C 6.960938,-11.742188 6.4375,-11.921875 5.75,-11.921875 Z m 0,10.5625 c 0.863281,0 1.535156,-0.21875 2.015625,-0.65625 C 8.253906,-2.453125 8.5,-3.046875 8.5,-3.796875 8.5,-4.566406 8.253906,-5.195312 7.765625,-5.6875 7.285156,-6.175781 6.613281,-6.421875 5.75,-6.421875 c -0.855469,0 -1.527344,0.246094 -2.015625,0.734375 C 3.242188,-5.195312 3,-4.566406 3,-3.796875 c 0,0.75 0.242188,1.34375 0.734375,1.78125 0.488281,0.4375 1.160156,0.65625 2.015625,0.65625 z m 0,0"
             id="path19881" />
        </g>
      </g>
    </g>
    <g
       fill="#fdf4f1"
       fill-opacity="1"
       id="g19895">
      <g
         transform="translate(739.38205,296.23661)"
         id="g19893">
        <g
           id="g19891">
          <path
             d="m 2.921875,-10.6875 c -0.417969,0.34375 -0.777344,0.601562 -1.078125,0.765625 -0.292969,0.15625 -0.589844,0.289063 -0.890625,0.390625 l -0.3125,-1.6875 c 0.53125,-0.175781 1.054687,-0.457031 1.578125,-0.84375 0.53125,-0.382812 0.9375,-0.789062 1.21875,-1.21875 H 4.671875 V 0 h -1.75 z m 0,0"
             id="path19889" />
        </g>
      </g>
    </g>
    <g
       fill="#fdf4f1"
       fill-opacity="1"
       id="g19903">
      <g
         transform="translate(745.57176,296.23661)"
         id="g19901">
        <g
           id="g19899">
          <path
             d="m 4.9375,-8.390625 c 0.925781,0 1.722656,0.183594 2.390625,0.546875 0.664063,0.367188 1.175781,0.871094 1.53125,1.515625 0.351563,0.648437 0.53125,1.382813 0.53125,2.203125 0,0.886719 -0.210937,1.664062 -0.625,2.328125 -0.40625,0.65625 -0.96875,1.167969 -1.6875,1.53125 C 6.367188,0.0859375 5.566406,0.265625 4.671875,0.265625 3.984375,0.265625 3.3125,0.175781 2.65625,0 2.007812,-0.175781 1.445312,-0.421875 0.96875,-0.734375 l 0.4375,-1.671875 c 0.539062,0.304688 1.054688,0.53125 1.546875,0.6875 0.5,0.15625 1.039063,0.234375 1.625,0.234375 0.84375,0 1.523437,-0.238281 2.046875,-0.71875 0.53125,-0.476563 0.796875,-1.117187 0.796875,-1.921875 0,-0.882812 -0.28125,-1.566406 -0.84375,-2.046875 C 6.023438,-6.660156 5.28125,-6.90625 4.34375,-6.90625 c -0.792969,0 -1.683594,0.125 -2.671875,0.375 l 0.8125,-6.75 H 8.75 l -0.078125,1.703125 H 3.96875 l -0.40625,3.28125 c 0.488281,-0.0625 0.945312,-0.09375 1.375,-0.09375 z m 0,0"
             id="path19897" />
        </g>
      </g>
    </g>
    <g
       fill="#fdf4f1"
       fill-opacity="1"
       id="g19911">
      <g
         transform="translate(737.66023,352.40927)"
         id="g19909">
        <g
           id="g19907">
          <path
             d="m 4.703125,-5.53125 c 0.65625,-0.976562 1.132813,-1.789062 1.4375,-2.4375 0.3125,-0.644531 0.46875,-1.234375 0.46875,-1.765625 0,-0.65625 -0.1875,-1.175781 -0.5625,-1.5625 -0.375,-0.394531 -0.882813,-0.59375 -1.515625,-0.59375 -1.179688,0 -2.25,0.5 -3.21875,1.5 L 1.078125,-12.28125 c 0.476563,-0.382812 1.023437,-0.695312 1.640625,-0.9375 0.625,-0.238281 1.296875,-0.359375 2.015625,-0.359375 1.175781,0 2.082031,0.34375 2.71875,1.03125 0.644531,0.679687 0.96875,1.554687 0.96875,2.625 0,0.835937 -0.164063,1.625 -0.484375,2.375 -0.324219,0.742187 -0.871094,1.695313 -1.640625,2.859375 l -2,3.03125 H 8.9375 v 1.640625 H 1.078125 Z m 0,0"
             id="path19905" />
        </g>
      </g>
    </g>
    <g
       fill="#fdf4f1"
       fill-opacity="1"
       id="g19919">
      <g
         transform="translate(747.60934,352.40927)"
         id="g19917">
        <g
           id="g19915">
          <path
             d="m 4.703125,-5.53125 c 0.65625,-0.976562 1.132813,-1.789062 1.4375,-2.4375 0.3125,-0.644531 0.46875,-1.234375 0.46875,-1.765625 0,-0.65625 -0.1875,-1.175781 -0.5625,-1.5625 -0.375,-0.394531 -0.882813,-0.59375 -1.515625,-0.59375 -1.179688,0 -2.25,0.5 -3.21875,1.5 L 1.078125,-12.28125 c 0.476563,-0.382812 1.023437,-0.695312 1.640625,-0.9375 0.625,-0.238281 1.296875,-0.359375 2.015625,-0.359375 1.175781,0 2.082031,0.34375 2.71875,1.03125 0.644531,0.679687 0.96875,1.554687 0.96875,2.625 0,0.835937 -0.164063,1.625 -0.484375,2.375 -0.324219,0.742187 -0.871094,1.695313 -1.640625,2.859375 l -2,3.03125 H 8.9375 v 1.640625 H 1.078125 Z m 0,0"
             id="path19913" />
        </g>
      </g>
    </g>
    <g
       fill="#fdf4f1"
       fill-opacity="1"
       id="g19927">
      <g
         transform="translate(737.23856,408.58182)"
         id="g19925">
        <g
           id="g19923">
          <path
             d="m 4.703125,-5.53125 c 0.65625,-0.976562 1.132813,-1.789062 1.4375,-2.4375 0.3125,-0.644531 0.46875,-1.234375 0.46875,-1.765625 0,-0.65625 -0.1875,-1.175781 -0.5625,-1.5625 -0.375,-0.394531 -0.882813,-0.59375 -1.515625,-0.59375 -1.179688,0 -2.25,0.5 -3.21875,1.5 L 1.078125,-12.28125 c 0.476563,-0.382812 1.023437,-0.695312 1.640625,-0.9375 0.625,-0.238281 1.296875,-0.359375 2.015625,-0.359375 1.175781,0 2.082031,0.34375 2.71875,1.03125 0.644531,0.679687 0.96875,1.554687 0.96875,2.625 0,0.835937 -0.164063,1.625 -0.484375,2.375 -0.324219,0.742187 -0.871094,1.695313 -1.640625,2.859375 l -2,3.03125 H 8.9375 v 1.640625 H 1.078125 Z m 0,0"
             id="path19921" />
        </g>
      </g>
    </g>
    <g
       fill="#fdf4f1"
       fill-opacity="1"
       id="g19935">
      <g
         transform="translate(747.18768,408.58182)"
         id="g19933">
        <g
           id="g19931">
          <path
             d="m 5.1875,-13.5625 c 1.375,0 2.453125,0.453125 3.234375,1.359375 0.789063,0.898437 1.1875,2.089844 1.1875,3.578125 0,1.28125 -0.277344,2.492188 -0.828125,3.625 -0.554688,1.136719 -1.261719,2.125 -2.125,2.96875 C 5.789062,-1.1875 4.875,-0.507812 3.90625,0 L 2.671875,-1.15625 c 1.050781,-0.539062 2,-1.238281 2.84375,-2.09375 0.84375,-0.851562 1.457031,-1.800781 1.84375,-2.84375 -0.71875,0.523438 -1.585937,0.78125 -2.59375,0.78125 -0.761719,0 -1.445313,-0.171875 -2.046875,-0.515625 C 2.125,-6.179688 1.65625,-6.664062 1.3125,-7.28125 c -0.335938,-0.613281 -0.5,-1.300781 -0.5,-2.0625 0,-0.8125 0.179688,-1.535156 0.546875,-2.171875 0.375,-0.632813 0.890625,-1.132813 1.546875,-1.5 C 3.5625,-13.378906 4.320312,-13.5625 5.1875,-13.5625 Z m 0,6.6875 c 0.738281,0 1.34375,-0.238281 1.8125,-0.71875 0.46875,-0.476562 0.703125,-1.085938 0.703125,-1.828125 0,-0.757813 -0.230469,-1.378906 -0.6875,-1.859375 C 6.554688,-11.757812 5.945312,-12 5.1875,-12 c -0.75,0 -1.359375,0.25 -1.828125,0.75 -0.460937,0.492188 -0.6875,1.109375 -0.6875,1.859375 0,0.71875 0.226563,1.320313 0.6875,1.796875 C 3.828125,-7.113281 4.4375,-6.875 5.1875,-6.875 Z m 0,0"
             id="path19929" />
        </g>
      </g>
    </g>
    <g
       fill="#fdf4f1"
       fill-opacity="1"
       id="g19943">
      <g
         transform="translate(801.34515,183.89141)"
         id="g19941">
        <g
           id="g19939">
          <path
             d="m 4.703125,-5.53125 c 0.65625,-0.976562 1.132813,-1.789062 1.4375,-2.4375 0.3125,-0.644531 0.46875,-1.234375 0.46875,-1.765625 0,-0.65625 -0.1875,-1.175781 -0.5625,-1.5625 -0.375,-0.394531 -0.882813,-0.59375 -1.515625,-0.59375 -1.179688,0 -2.25,0.5 -3.21875,1.5 L 1.078125,-12.28125 c 0.476563,-0.382812 1.023437,-0.695312 1.640625,-0.9375 0.625,-0.238281 1.296875,-0.359375 2.015625,-0.359375 1.175781,0 2.082031,0.34375 2.71875,1.03125 0.644531,0.679687 0.96875,1.554687 0.96875,2.625 0,0.835937 -0.164063,1.625 -0.484375,2.375 -0.324219,0.742187 -0.871094,1.695313 -1.640625,2.859375 l -2,3.03125 H 8.9375 v 1.640625 H 1.078125 Z m 0,0"
             id="path19937" />
        </g>
      </g>
    </g>
    <g
       fill="#fdf4f1"
       fill-opacity="1"
       id="g19951">
      <g
         transform="translate(800.92349,240.06407)"
         id="g19949">
        <g
           id="g19947">
          <path
             d="m 5.1875,-13.5625 c 1.375,0 2.453125,0.453125 3.234375,1.359375 0.789063,0.898437 1.1875,2.089844 1.1875,3.578125 0,1.28125 -0.277344,2.492188 -0.828125,3.625 -0.554688,1.136719 -1.261719,2.125 -2.125,2.96875 C 5.789062,-1.1875 4.875,-0.507812 3.90625,0 L 2.671875,-1.15625 c 1.050781,-0.539062 2,-1.238281 2.84375,-2.09375 0.84375,-0.851562 1.457031,-1.800781 1.84375,-2.84375 -0.71875,0.523438 -1.585937,0.78125 -2.59375,0.78125 -0.761719,0 -1.445313,-0.171875 -2.046875,-0.515625 C 2.125,-6.179688 1.65625,-6.664062 1.3125,-7.28125 c -0.335938,-0.613281 -0.5,-1.300781 -0.5,-2.0625 0,-0.8125 0.179688,-1.535156 0.546875,-2.171875 0.375,-0.632813 0.890625,-1.132813 1.546875,-1.5 C 3.5625,-13.378906 4.320312,-13.5625 5.1875,-13.5625 Z m 0,6.6875 c 0.738281,0 1.34375,-0.238281 1.8125,-0.71875 0.46875,-0.476562 0.703125,-1.085938 0.703125,-1.828125 0,-0.757813 -0.230469,-1.378906 -0.6875,-1.859375 C 6.554688,-11.757812 5.945312,-12 5.1875,-12 c -0.75,0 -1.359375,0.25 -1.828125,0.75 -0.460937,0.492188 -0.6875,1.109375 -0.6875,1.859375 0,0.71875 0.226563,1.320313 0.6875,1.796875 C 3.828125,-7.113281 4.4375,-6.875 5.1875,-6.875 Z m 0,0"
             id="path19945" />
        </g>
      </g>
    </g>
    <g
       fill="#fdf4f1"
       fill-opacity="1"
       id="g19959">
      <g
         transform="translate(797.83124,296.23661)"
         id="g19957">
        <g
           id="g19955">
          <path
             d="m 2.921875,-10.6875 c -0.417969,0.34375 -0.777344,0.601562 -1.078125,0.765625 -0.292969,0.15625 -0.589844,0.289063 -0.890625,0.390625 l -0.3125,-1.6875 c 0.53125,-0.175781 1.054687,-0.457031 1.578125,-0.84375 0.53125,-0.382812 0.9375,-0.789062 1.21875,-1.21875 H 4.671875 V 0 h -1.75 z m 0,0"
             id="path19953" />
        </g>
      </g>
    </g>
    <g
       fill="#fdf4f1"
       fill-opacity="1"
       id="g19967">
      <g
         transform="translate(804.02095,296.23661)"
         id="g19965">
        <g
           id="g19963">
          <path
             d="m 6.015625,-7.96875 c 0.757813,0 1.4375,0.179688 2.03125,0.53125 0.601563,0.34375 1.070313,0.824219 1.40625,1.4375 0.34375,0.605469 0.515625,1.289062 0.515625,2.046875 0,0.8125 -0.1875,1.542969 -0.5625,2.1875 -0.367188,0.636719 -0.875,1.136719 -1.53125,1.5 -0.65625,0.3515625 -1.417969,0.53125 -2.28125,0.53125 -1.375,0 -2.460938,-0.445313 -3.25,-1.34375 -0.78125,-0.90625 -1.171875,-2.101563 -1.171875,-3.59375 0,-1.3125 0.285156,-2.550781 0.859375,-3.71875 0.570312,-1.175781 1.300781,-2.203125 2.1875,-3.078125 0.894531,-0.875 1.84375,-1.570312 2.84375,-2.09375 l 1.234375,1.171875 c -1.136719,0.5625 -2.148437,1.296875 -3.03125,2.203125 -0.875,0.90625 -1.507813,1.914062 -1.890625,3.015625 0.707031,-0.53125 1.585938,-0.796875 2.640625,-0.796875 z M 5.59375,-1.296875 c 0.75,0 1.351562,-0.242187 1.8125,-0.734375 0.46875,-0.488281 0.703125,-1.109375 0.703125,-1.859375 0,-0.71875 -0.234375,-1.316406 -0.703125,-1.796875 -0.460938,-0.488281 -1.0625,-0.734375 -1.8125,-0.734375 -0.742188,0 -1.34375,0.246094 -1.8125,0.734375 -0.46875,0.480469 -0.703125,1.085938 -0.703125,1.8125 0,0.761719 0.226563,1.382812 0.6875,1.859375 0.46875,0.480469 1.078125,0.71875 1.828125,0.71875 z m 0,0"
             id="path19961" />
        </g>
      </g>
    </g>
    <g
       fill="#fdf4f1"
       fill-opacity="1"
       id="g19975">
      <g
         transform="translate(796.20313,352.40927)"
         id="g19973">
        <g
           id="g19971">
          <path
             d="m 4.703125,-5.53125 c 0.65625,-0.976562 1.132813,-1.789062 1.4375,-2.4375 0.3125,-0.644531 0.46875,-1.234375 0.46875,-1.765625 0,-0.65625 -0.1875,-1.175781 -0.5625,-1.5625 -0.375,-0.394531 -0.882813,-0.59375 -1.515625,-0.59375 -1.179688,0 -2.25,0.5 -3.21875,1.5 L 1.078125,-12.28125 c 0.476563,-0.382812 1.023437,-0.695312 1.640625,-0.9375 0.625,-0.238281 1.296875,-0.359375 2.015625,-0.359375 1.175781,0 2.082031,0.34375 2.71875,1.03125 0.644531,0.679687 0.96875,1.554687 0.96875,2.625 0,0.835937 -0.164063,1.625 -0.484375,2.375 -0.324219,0.742187 -0.871094,1.695313 -1.640625,2.859375 l -2,3.03125 H 8.9375 v 1.640625 H 1.078125 Z m 0,0"
             id="path19969" />
        </g>
      </g>
    </g>
    <g
       fill="#fdf4f1"
       fill-opacity="1"
       id="g19983">
      <g
         transform="translate(806.15224,352.40927)"
         id="g19981">
        <g
           id="g19979">
          <path
             d="m 6.6875,-6.953125 c 1.625,0.53125 2.4375,1.636719 2.4375,3.3125 0,0.792969 -0.199219,1.484375 -0.59375,2.078125 -0.398438,0.585938 -0.945312,1.039062 -1.640625,1.359375 -0.6875,0.3125 -1.464844,0.46875 -2.328125,0.46875 -1.3125,0 -2.578125,-0.3320312 -3.796875,-1 l 0.4375,-1.671875 c 0.59375,0.34375 1.148437,0.605469 1.671875,0.78125 0.519531,0.179688 1.085938,0.265625 1.703125,0.265625 0.8125,0 1.453125,-0.203125 1.921875,-0.609375 0.476562,-0.40625 0.71875,-0.945312 0.71875,-1.625 0,-0.757812 -0.265625,-1.351562 -0.796875,-1.78125 C 5.898438,-5.800781 5.117188,-6.015625 4.078125,-6.015625 H 3.25 V -7.65625 h 0.828125 c 0.820313,0 1.46875,-0.191406 1.9375,-0.578125 0.476563,-0.382813 0.71875,-0.910156 0.71875,-1.578125 0,-0.707031 -0.183594,-1.234375 -0.546875,-1.578125 -0.355469,-0.351563 -0.882812,-0.53125 -1.578125,-0.53125 -0.5,0 -0.980469,0.09375 -1.4375,0.28125 -0.460937,0.1875 -0.9375,0.453125 -1.4375,0.796875 l -0.3125,-1.84375 c 1.03125,-0.582031 2.175781,-0.875 3.4375,-0.875 1.21875,0 2.164063,0.324219 2.84375,0.96875 0.675781,0.648438 1.015625,1.496094 1.015625,2.546875 0,0.730469 -0.179688,1.367187 -0.53125,1.90625 -0.355469,0.53125 -0.855469,0.929687 -1.5,1.1875 z m 0,0"
             id="path19977" />
        </g>
      </g>
    </g>
    <g
       fill="#fdf4f1"
       fill-opacity="1"
       id="g19991">
      <g
         transform="translate(794.5516,408.58182)"
         id="g19989">
        <g
           id="g19987">
          <path
             d="m 6.6875,-6.953125 c 1.625,0.53125 2.4375,1.636719 2.4375,3.3125 0,0.792969 -0.199219,1.484375 -0.59375,2.078125 -0.398438,0.585938 -0.945312,1.039062 -1.640625,1.359375 -0.6875,0.3125 -1.464844,0.46875 -2.328125,0.46875 -1.3125,0 -2.578125,-0.3320312 -3.796875,-1 l 0.4375,-1.671875 c 0.59375,0.34375 1.148437,0.605469 1.671875,0.78125 0.519531,0.179688 1.085938,0.265625 1.703125,0.265625 0.8125,0 1.453125,-0.203125 1.921875,-0.609375 0.476562,-0.40625 0.71875,-0.945312 0.71875,-1.625 0,-0.757812 -0.265625,-1.351562 -0.796875,-1.78125 C 5.898438,-5.800781 5.117188,-6.015625 4.078125,-6.015625 H 3.25 V -7.65625 h 0.828125 c 0.820313,0 1.46875,-0.191406 1.9375,-0.578125 0.476563,-0.382813 0.71875,-0.910156 0.71875,-1.578125 0,-0.707031 -0.183594,-1.234375 -0.546875,-1.578125 -0.355469,-0.351563 -0.882812,-0.53125 -1.578125,-0.53125 -0.5,0 -0.980469,0.09375 -1.4375,0.28125 -0.460937,0.1875 -0.9375,0.453125 -1.4375,0.796875 l -0.3125,-1.84375 c 1.03125,-0.582031 2.175781,-0.875 3.4375,-0.875 1.21875,0 2.164063,0.324219 2.84375,0.96875 0.675781,0.648438 1.015625,1.496094 1.015625,2.546875 0,0.730469 -0.179688,1.367187 -0.53125,1.90625 -0.355469,0.53125 -0.855469,0.929687 -1.5,1.1875 z m 0,0"
             id="path19985" />
        </g>
      </g>
    </g>
    <g
       fill="#fdf4f1"
       fill-opacity="1"
       id="g19999">
      <g
         transform="translate(804.82348,408.58182)"
         id="g19997">
        <g
           id="g19995">
          <path
             d="m 6.625,0.265625 c -1.15625,0 -2.15625,-0.296875 -3,-0.890625 -0.835938,-0.59375 -1.476562,-1.421875 -1.921875,-2.484375 -0.449219,-1.0625 -0.671875,-2.28125 -0.671875,-3.65625 0,-1.351563 0.234375,-2.539063 0.703125,-3.5625 0.476563,-1.019531 1.140625,-1.8125 1.984375,-2.375 0.851562,-0.570313 1.820312,-0.859375 2.90625,-0.859375 1.113281,0 2.09375,0.289062 2.9375,0.859375 0.851562,0.5625 1.507812,1.355469 1.96875,2.375 0.457031,1.023437 0.6875,2.210937 0.6875,3.5625 0,1.375 -0.226562,2.59375 -0.671875,3.65625 -0.4375,1.0625 -1.078125,1.890625 -1.921875,2.484375 -0.84375,0.59375 -1.84375,0.890625 -3,0.890625 z m 0,-1.625 c 1.175781,0 2.082031,-0.46875 2.71875,-1.40625 0.644531,-0.9375 0.96875,-2.269531 0.96875,-4 0,-1.6875 -0.328125,-2.96875 -0.984375,-3.84375 -0.648437,-0.875 -1.546875,-1.3125 -2.703125,-1.3125 -1.105469,0 -1.996094,0.445313 -2.671875,1.328125 -0.679687,0.886719 -1.015625,2.164062 -1.015625,3.828125 0,1.730469 0.316406,3.0625 0.953125,4 0.644531,0.9375 1.554687,1.40625 2.734375,1.40625 z m 0,0"
             id="path19993" />
        </g>
      </g>
    </g>
    <g
       fill="#fdf4f1"
       fill-opacity="1"
       id="g20007">
      <g
         transform="translate(859.88808,183.89141)"
         id="g20005">
        <g
           id="g20003">
          <path
             d="m 6.6875,-6.953125 c 1.625,0.53125 2.4375,1.636719 2.4375,3.3125 0,0.792969 -0.199219,1.484375 -0.59375,2.078125 -0.398438,0.585938 -0.945312,1.039062 -1.640625,1.359375 -0.6875,0.3125 -1.464844,0.46875 -2.328125,0.46875 -1.3125,0 -2.578125,-0.3320312 -3.796875,-1 l 0.4375,-1.671875 c 0.59375,0.34375 1.148437,0.605469 1.671875,0.78125 0.519531,0.179688 1.085938,0.265625 1.703125,0.265625 0.8125,0 1.453125,-0.203125 1.921875,-0.609375 0.476562,-0.40625 0.71875,-0.945312 0.71875,-1.625 0,-0.757812 -0.265625,-1.351562 -0.796875,-1.78125 C 5.898438,-5.800781 5.117188,-6.015625 4.078125,-6.015625 H 3.25 V -7.65625 h 0.828125 c 0.820313,0 1.46875,-0.191406 1.9375,-0.578125 0.476563,-0.382813 0.71875,-0.910156 0.71875,-1.578125 0,-0.707031 -0.183594,-1.234375 -0.546875,-1.578125 -0.355469,-0.351563 -0.882812,-0.53125 -1.578125,-0.53125 -0.5,0 -0.980469,0.09375 -1.4375,0.28125 -0.460937,0.1875 -0.9375,0.453125 -1.4375,0.796875 l -0.3125,-1.84375 c 1.03125,-0.582031 2.175781,-0.875 3.4375,-0.875 1.21875,0 2.164063,0.324219 2.84375,0.96875 0.675781,0.648438 1.015625,1.496094 1.015625,2.546875 0,0.730469 -0.179688,1.367187 -0.53125,1.90625 -0.355469,0.53125 -0.855469,0.929687 -1.5,1.1875 z m 0,0"
             id="path20001" />
        </g>
      </g>
    </g>
    <g
       fill="#fdf4f1"
       fill-opacity="1"
       id="g20015">
      <g
         transform="translate(855.30828,240.06407)"
         id="g20013">
        <g
           id="g20011">
          <path
             d="m 2.921875,-10.6875 c -0.417969,0.34375 -0.777344,0.601562 -1.078125,0.765625 -0.292969,0.15625 -0.589844,0.289063 -0.890625,0.390625 l -0.3125,-1.6875 c 0.53125,-0.175781 1.054687,-0.457031 1.578125,-0.84375 0.53125,-0.382812 0.9375,-0.789062 1.21875,-1.21875 H 4.671875 V 0 h -1.75 z m 0,0"
             id="path20009" />
        </g>
      </g>
    </g>
    <g
       fill="#fdf4f1"
       fill-opacity="1"
       id="g20023">
      <g
         transform="translate(861.49799,240.06407)"
         id="g20021">
        <g
           id="g20019">
          <path
             d="m 6.625,0.265625 c -1.15625,0 -2.15625,-0.296875 -3,-0.890625 -0.835938,-0.59375 -1.476562,-1.421875 -1.921875,-2.484375 -0.449219,-1.0625 -0.671875,-2.28125 -0.671875,-3.65625 0,-1.351563 0.234375,-2.539063 0.703125,-3.5625 0.476563,-1.019531 1.140625,-1.8125 1.984375,-2.375 0.851562,-0.570313 1.820312,-0.859375 2.90625,-0.859375 1.113281,0 2.09375,0.289062 2.9375,0.859375 0.851562,0.5625 1.507812,1.355469 1.96875,2.375 0.457031,1.023437 0.6875,2.210937 0.6875,3.5625 0,1.375 -0.226562,2.59375 -0.671875,3.65625 -0.4375,1.0625 -1.078125,1.890625 -1.921875,2.484375 -0.84375,0.59375 -1.84375,0.890625 -3,0.890625 z m 0,-1.625 c 1.175781,0 2.082031,-0.46875 2.71875,-1.40625 0.644531,-0.9375 0.96875,-2.269531 0.96875,-4 0,-1.6875 -0.328125,-2.96875 -0.984375,-3.84375 -0.648437,-0.875 -1.546875,-1.3125 -2.703125,-1.3125 -1.105469,0 -1.996094,0.445313 -2.671875,1.328125 -0.679687,0.886719 -1.015625,2.164062 -1.015625,3.828125 0,1.730469 0.316406,3.0625 0.953125,4 0.644531,0.9375 1.554687,1.40625 2.734375,1.40625 z m 0,0"
             id="path20017" />
        </g>
      </g>
    </g>
    <g
       fill="#fdf4f1"
       fill-opacity="1"
       id="g20031">
      <g
         transform="translate(857.15894,296.23661)"
         id="g20029">
        <g
           id="g20027">
          <path
             d="m 2.921875,-10.6875 c -0.417969,0.34375 -0.777344,0.601562 -1.078125,0.765625 -0.292969,0.15625 -0.589844,0.289063 -0.890625,0.390625 l -0.3125,-1.6875 c 0.53125,-0.175781 1.054687,-0.457031 1.578125,-0.84375 0.53125,-0.382812 0.9375,-0.789062 1.21875,-1.21875 H 4.671875 V 0 h -1.75 z m 0,0"
             id="path20025" />
        </g>
      </g>
    </g>
    <g
       fill="#fdf4f1"
       fill-opacity="1"
       id="g20039">
      <g
         transform="translate(863.34865,296.23661)"
         id="g20037">
        <g
           id="g20035">
          <path
             d="M 9.359375,-13.28125 3.609375,0 h -1.90625 l 5,-11.578125 h -5.9375 v -1.703125 z m 0,0"
             id="path20033" />
        </g>
      </g>
    </g>
    <g
       fill="#fdf4f1"
       fill-opacity="1"
       id="g20047">
      <g
         transform="translate(854.55865,352.40927)"
         id="g20045">
        <g
           id="g20043">
          <path
             d="m 4.703125,-5.53125 c 0.65625,-0.976562 1.132813,-1.789062 1.4375,-2.4375 0.3125,-0.644531 0.46875,-1.234375 0.46875,-1.765625 0,-0.65625 -0.1875,-1.175781 -0.5625,-1.5625 -0.375,-0.394531 -0.882813,-0.59375 -1.515625,-0.59375 -1.179688,0 -2.25,0.5 -3.21875,1.5 L 1.078125,-12.28125 c 0.476563,-0.382812 1.023437,-0.695312 1.640625,-0.9375 0.625,-0.238281 1.296875,-0.359375 2.015625,-0.359375 1.175781,0 2.082031,0.34375 2.71875,1.03125 0.644531,0.679687 0.96875,1.554687 0.96875,2.625 0,0.835937 -0.164063,1.625 -0.484375,2.375 -0.324219,0.742187 -0.871094,1.695313 -1.640625,2.859375 l -2,3.03125 H 8.9375 v 1.640625 H 1.078125 Z m 0,0"
             id="path20041" />
        </g>
      </g>
    </g>
    <g
       fill="#fdf4f1"
       fill-opacity="1"
       id="g20055">
      <g
         transform="translate(864.50776,352.40927)"
         id="g20053">
        <g
           id="g20051">
          <path
             d="M 10.453125,-4.96875 V -3.4375 H 8.75 V 0 H 6.921875 V -3.4375 H 0.375 l 7.0625,-9.84375 H 8.75 v 8.3125 z m -3.53125,0 v -4.953125 l -3.53125,4.953125 z m 0,0"
             id="path20049" />
        </g>
      </g>
    </g>
    <g
       fill="#fdf4f1"
       fill-opacity="1"
       id="g20063">
      <g
         transform="translate(856.79584,408.58182)"
         id="g20061">
        <g
           id="g20059">
          <path
             d="m 6.6875,-6.953125 c 1.625,0.53125 2.4375,1.636719 2.4375,3.3125 0,0.792969 -0.199219,1.484375 -0.59375,2.078125 -0.398438,0.585938 -0.945312,1.039062 -1.640625,1.359375 -0.6875,0.3125 -1.464844,0.46875 -2.328125,0.46875 -1.3125,0 -2.578125,-0.3320312 -3.796875,-1 l 0.4375,-1.671875 c 0.59375,0.34375 1.148437,0.605469 1.671875,0.78125 0.519531,0.179688 1.085938,0.265625 1.703125,0.265625 0.8125,0 1.453125,-0.203125 1.921875,-0.609375 0.476562,-0.40625 0.71875,-0.945312 0.71875,-1.625 0,-0.757812 -0.265625,-1.351562 -0.796875,-1.78125 C 5.898438,-5.800781 5.117188,-6.015625 4.078125,-6.015625 H 3.25 V -7.65625 h 0.828125 c 0.820313,0 1.46875,-0.191406 1.9375,-0.578125 0.476563,-0.382813 0.71875,-0.910156 0.71875,-1.578125 0,-0.707031 -0.183594,-1.234375 -0.546875,-1.578125 -0.355469,-0.351563 -0.882812,-0.53125 -1.578125,-0.53125 -0.5,0 -0.980469,0.09375 -1.4375,0.28125 -0.460937,0.1875 -0.9375,0.453125 -1.4375,0.796875 l -0.3125,-1.84375 c 1.03125,-0.582031 2.175781,-0.875 3.4375,-0.875 1.21875,0 2.164063,0.324219 2.84375,0.96875 0.675781,0.648438 1.015625,1.496094 1.015625,2.546875 0,0.730469 -0.179688,1.367187 -0.53125,1.90625 -0.355469,0.53125 -0.855469,0.929687 -1.5,1.1875 z m 0,0"
             id="path20057" />
        </g>
      </g>
    </g>
    <g
       fill="#fdf4f1"
       fill-opacity="1"
       id="g20071">
      <g
         transform="translate(867.06772,408.58182)"
         id="g20069">
        <g
           id="g20067">
          <path
             d="m 2.921875,-10.6875 c -0.417969,0.34375 -0.777344,0.601562 -1.078125,0.765625 -0.292969,0.15625 -0.589844,0.289063 -0.890625,0.390625 l -0.3125,-1.6875 c 0.53125,-0.175781 1.054687,-0.457031 1.578125,-0.84375 0.53125,-0.382812 0.9375,-0.789062 1.21875,-1.21875 H 4.671875 V 0 h -1.75 z m 0,0"
             id="path20065" />
        </g>
      </g>
    </g>
    <g
       fill="#fdf4f1"
       fill-opacity="1"
       id="g20079">
      <g
         transform="translate(918.24357,183.89141)"
         id="g20077">
        <g
           id="g20075">
          <path
             d="M 10.453125,-4.96875 V -3.4375 H 8.75 V 0 H 6.921875 V -3.4375 H 0.375 l 7.0625,-9.84375 H 8.75 v 8.3125 z m -3.53125,0 v -4.953125 l -3.53125,4.953125 z m 0,0"
             id="path20073" />
        </g>
      </g>
    </g>
    <g
       fill="#fdf4f1"
       fill-opacity="1"
       id="g20087">
      <g
         transform="translate(917.54079,240.06407)"
         id="g20085">
        <g
           id="g20083">
          <path
             d="m 2.921875,-10.6875 c -0.417969,0.34375 -0.777344,0.601562 -1.078125,0.765625 -0.292969,0.15625 -0.589844,0.289063 -0.890625,0.390625 l -0.3125,-1.6875 c 0.53125,-0.175781 1.054687,-0.457031 1.578125,-0.84375 0.53125,-0.382812 0.9375,-0.789062 1.21875,-1.21875 H 4.671875 V 0 h -1.75 z m 0,0"
             id="path20081" />
        </g>
      </g>
    </g>
    <g
       fill="#fdf4f1"
       fill-opacity="1"
       id="g20095">
      <g
         transform="translate(923.7305,240.06407)"
         id="g20093">
        <g
           id="g20091">
          <path
             d="m 2.921875,-10.6875 c -0.417969,0.34375 -0.777344,0.601562 -1.078125,0.765625 -0.292969,0.15625 -0.589844,0.289063 -0.890625,0.390625 l -0.3125,-1.6875 c 0.53125,-0.175781 1.054687,-0.457031 1.578125,-0.84375 0.53125,-0.382812 0.9375,-0.789062 1.21875,-1.21875 H 4.671875 V 0 h -1.75 z m 0,0"
             id="path20089" />
        </g>
      </g>
    </g>
    <g
       fill="#fdf4f1"
       fill-opacity="1"
       id="g20103">
      <g
         transform="translate(914.88193,296.23661)"
         id="g20101">
        <g
           id="g20099">
          <path
             d="m 2.921875,-10.6875 c -0.417969,0.34375 -0.777344,0.601562 -1.078125,0.765625 -0.292969,0.15625 -0.589844,0.289063 -0.890625,0.390625 l -0.3125,-1.6875 c 0.53125,-0.175781 1.054687,-0.457031 1.578125,-0.84375 0.53125,-0.382812 0.9375,-0.789062 1.21875,-1.21875 H 4.671875 V 0 h -1.75 z m 0,0"
             id="path20097" />
        </g>
      </g>
    </g>
    <g
       fill="#fdf4f1"
       fill-opacity="1"
       id="g20111">
      <g
         transform="translate(921.07164,296.23661)"
         id="g20109">
        <g
           id="g20107">
          <path
             d="m 8.375,-7.265625 c 0.632812,0.335937 1.125,0.804687 1.46875,1.40625 0.34375,0.605469 0.515625,1.292969 0.515625,2.0625 0,0.804687 -0.195313,1.511719 -0.578125,2.125 C 9.40625,-1.066406 8.867188,-0.59375 8.171875,-0.25 7.484375,0.09375 6.675781,0.265625 5.75,0.265625 4.8125,0.265625 3.992188,0.09375 3.296875,-0.25 c -0.6875,-0.34375 -1.21875,-0.816406 -1.59375,-1.421875 -0.375,-0.613281 -0.5625,-1.320313 -0.5625,-2.125 0,-0.769531 0.175781,-1.457031 0.53125,-2.0625 0.351563,-0.613281 0.847656,-1.09375 1.484375,-1.4375 C 2.707031,-7.609375 2.359375,-7.992188 2.109375,-8.453125 1.867188,-8.921875 1.75,-9.425781 1.75,-9.96875 c 0,-0.613281 0.140625,-1.191406 0.421875,-1.734375 0.28125,-0.550781 0.722656,-1 1.328125,-1.34375 0.601562,-0.34375 1.351562,-0.515625 2.25,-0.515625 0.894531,0 1.632812,0.171875 2.21875,0.515625 0.59375,0.34375 1.023438,0.792969 1.296875,1.34375 0.28125,0.542969 0.421875,1.121094 0.421875,1.734375 0,0.574219 -0.117188,1.089844 -0.34375,1.546875 -0.230469,0.449219 -0.554688,0.835937 -0.96875,1.15625 z m -2.625,-4.65625 c -0.699219,0 -1.242188,0.179687 -1.625,0.53125 -0.386719,0.355469 -0.578125,0.828125 -0.578125,1.421875 0,0.5625 0.195313,1.03125 0.59375,1.40625 C 4.535156,-8.1875 5.070312,-8 5.75,-8 c 0.675781,0 1.195312,-0.179688 1.5625,-0.546875 0.375,-0.375 0.5625,-0.847656 0.5625,-1.421875 0,-0.59375 -0.183594,-1.066406 -0.546875,-1.421875 C 6.960938,-11.742188 6.4375,-11.921875 5.75,-11.921875 Z m 0,10.5625 c 0.863281,0 1.535156,-0.21875 2.015625,-0.65625 C 8.253906,-2.453125 8.5,-3.046875 8.5,-3.796875 8.5,-4.566406 8.253906,-5.195312 7.765625,-5.6875 7.285156,-6.175781 6.613281,-6.421875 5.75,-6.421875 c -0.855469,0 -1.527344,0.246094 -2.015625,0.734375 C 3.242188,-5.195312 3,-4.566406 3,-3.796875 c 0,0.75 0.242188,1.34375 0.734375,1.78125 0.488281,0.4375 1.160156,0.65625 2.015625,0.65625 z m 0,0"
             id="path20105" />
        </g>
      </g>
    </g>
    <g
       fill="#fdf4f1"
       fill-opacity="1"
       id="g20119">
      <g
         transform="translate(913.61692,352.40927)"
         id="g20117">
        <g
           id="g20115">
          <path
             d="m 4.703125,-5.53125 c 0.65625,-0.976562 1.132813,-1.789062 1.4375,-2.4375 0.3125,-0.644531 0.46875,-1.234375 0.46875,-1.765625 0,-0.65625 -0.1875,-1.175781 -0.5625,-1.5625 -0.375,-0.394531 -0.882813,-0.59375 -1.515625,-0.59375 -1.179688,0 -2.25,0.5 -3.21875,1.5 L 1.078125,-12.28125 c 0.476563,-0.382812 1.023437,-0.695312 1.640625,-0.9375 0.625,-0.238281 1.296875,-0.359375 2.015625,-0.359375 1.175781,0 2.082031,0.34375 2.71875,1.03125 0.644531,0.679687 0.96875,1.554687 0.96875,2.625 0,0.835937 -0.164063,1.625 -0.484375,2.375 -0.324219,0.742187 -0.871094,1.695313 -1.640625,2.859375 l -2,3.03125 H 8.9375 v 1.640625 H 1.078125 Z m 0,0"
             id="path20113" />
        </g>
      </g>
    </g>
    <g
       fill="#fdf4f1"
       fill-opacity="1"
       id="g20127">
      <g
         transform="translate(923.56603,352.40927)"
         id="g20125">
        <g
           id="g20123">
          <path
             d="m 4.9375,-8.390625 c 0.925781,0 1.722656,0.183594 2.390625,0.546875 0.664063,0.367188 1.175781,0.871094 1.53125,1.515625 0.351563,0.648437 0.53125,1.382813 0.53125,2.203125 0,0.886719 -0.210937,1.664062 -0.625,2.328125 -0.40625,0.65625 -0.96875,1.167969 -1.6875,1.53125 C 6.367188,0.0859375 5.566406,0.265625 4.671875,0.265625 3.984375,0.265625 3.3125,0.175781 2.65625,0 2.007812,-0.175781 1.445312,-0.421875 0.96875,-0.734375 l 0.4375,-1.671875 c 0.539062,0.304688 1.054688,0.53125 1.546875,0.6875 0.5,0.15625 1.039063,0.234375 1.625,0.234375 0.84375,0 1.523437,-0.238281 2.046875,-0.71875 0.53125,-0.476563 0.796875,-1.117187 0.796875,-1.921875 0,-0.882812 -0.28125,-1.566406 -0.84375,-2.046875 C 6.023438,-6.660156 5.28125,-6.90625 4.34375,-6.90625 c -0.792969,0 -1.683594,0.125 -2.671875,0.375 l 0.8125,-6.75 H 8.75 l -0.078125,1.703125 H 3.96875 l -0.40625,3.28125 c 0.488281,-0.0625 0.945312,-0.09375 1.375,-0.09375 z m 0,0"
             id="path20121" />
        </g>
      </g>
    </g>
    <g
       mask="url(#5a2a0e10c2)"
       id="g20141">
      <g
         transform="translate(920,391)"
         id="g20139">
        <g
           clip-path="url(#aa1228b9e5)"
           id="g20137">
          <g
             fill="#fdf4f1"
             fill-opacity="1"
             id="g20135">
            <g
               transform="translate(0.633036,17.581906)"
               id="g20133">
              <g
                 id="g20131">
                <path
                   d="m 2.921875,-10.6875 c -0.417969,0.34375 -0.777344,0.601562 -1.078125,0.765625 -0.292969,0.15625 -0.589844,0.289063 -0.890625,0.390625 l -0.3125,-1.6875 c 0.53125,-0.175781 1.054687,-0.457031 1.578125,-0.84375 0.53125,-0.382812 0.9375,-0.789062 1.21875,-1.21875 H 4.671875 V 0 h -1.75 z m 0,0"
                   id="path20129" />
              </g>
            </g>
          </g>
        </g>
      </g>
    </g>
    <g
       fill="#fdf4f1"
       fill-opacity="1"
       id="g20149">
      <g
         transform="translate(977.30179,183.89141)"
         id="g20147">
        <g
           id="g20145">
          <path
             d="m 4.9375,-8.390625 c 0.925781,0 1.722656,0.183594 2.390625,0.546875 0.664063,0.367188 1.175781,0.871094 1.53125,1.515625 0.351563,0.648437 0.53125,1.382813 0.53125,2.203125 0,0.886719 -0.210937,1.664062 -0.625,2.328125 -0.40625,0.65625 -0.96875,1.167969 -1.6875,1.53125 C 6.367188,0.0859375 5.566406,0.265625 4.671875,0.265625 3.984375,0.265625 3.3125,0.175781 2.65625,0 2.007812,-0.175781 1.445312,-0.421875 0.96875,-0.734375 l 0.4375,-1.671875 c 0.539062,0.304688 1.054688,0.53125 1.546875,0.6875 0.5,0.15625 1.039063,0.234375 1.625,0.234375 0.84375,0 1.523437,-0.238281 2.046875,-0.71875 0.53125,-0.476563 0.796875,-1.117187 0.796875,-1.921875 0,-0.882812 -0.28125,-1.566406 -0.84375,-2.046875 C 6.023438,-6.660156 5.28125,-6.90625 4.34375,-6.90625 c -0.792969,0 -1.683594,0.125 -2.671875,0.375 l 0.8125,-6.75 H 8.75 l -0.078125,1.703125 H 3.96875 l -0.40625,3.28125 c 0.488281,-0.0625 0.945312,-0.09375 1.375,-0.09375 z m 0,0"
             id="path20143" />
        </g>
      </g>
    </g>
    <g
       fill="#fdf4f1"
       fill-opacity="1"
       id="g20157">
      <g
         transform="translate(974.37354,240.06407)"
         id="g20155">
        <g
           id="g20153">
          <path
             d="m 2.921875,-10.6875 c -0.417969,0.34375 -0.777344,0.601562 -1.078125,0.765625 -0.292969,0.15625 -0.589844,0.289063 -0.890625,0.390625 l -0.3125,-1.6875 c 0.53125,-0.175781 1.054687,-0.457031 1.578125,-0.84375 0.53125,-0.382812 0.9375,-0.789062 1.21875,-1.21875 H 4.671875 V 0 h -1.75 z m 0,0"
             id="path20151" />
        </g>
      </g>
    </g>
    <g
       fill="#fdf4f1"
       fill-opacity="1"
       id="g20165">
      <g
         transform="translate(980.56325,240.06407)"
         id="g20163">
        <g
           id="g20161">
          <path
             d="m 4.703125,-5.53125 c 0.65625,-0.976562 1.132813,-1.789062 1.4375,-2.4375 0.3125,-0.644531 0.46875,-1.234375 0.46875,-1.765625 0,-0.65625 -0.1875,-1.175781 -0.5625,-1.5625 -0.375,-0.394531 -0.882813,-0.59375 -1.515625,-0.59375 -1.179688,0 -2.25,0.5 -3.21875,1.5 L 1.078125,-12.28125 c 0.476563,-0.382812 1.023437,-0.695312 1.640625,-0.9375 0.625,-0.238281 1.296875,-0.359375 2.015625,-0.359375 1.175781,0 2.082031,0.34375 2.71875,1.03125 0.644531,0.679687 0.96875,1.554687 0.96875,2.625 0,0.835937 -0.164063,1.625 -0.484375,2.375 -0.324219,0.742187 -0.871094,1.695313 -1.640625,2.859375 l -2,3.03125 H 8.9375 v 1.640625 H 1.078125 Z m 0,0"
             id="path20159" />
        </g>
      </g>
    </g>
    <g
       fill="#fdf4f1"
       fill-opacity="1"
       id="g20173">
      <g
         transform="translate(973.95187,296.23661)"
         id="g20171">
        <g
           id="g20169">
          <path
             d="m 2.921875,-10.6875 c -0.417969,0.34375 -0.777344,0.601562 -1.078125,0.765625 -0.292969,0.15625 -0.589844,0.289063 -0.890625,0.390625 l -0.3125,-1.6875 c 0.53125,-0.175781 1.054687,-0.457031 1.578125,-0.84375 0.53125,-0.382812 0.9375,-0.789062 1.21875,-1.21875 H 4.671875 V 0 h -1.75 z m 0,0"
             id="path20167" />
        </g>
      </g>
    </g>
    <g
       fill="#fdf4f1"
       fill-opacity="1"
       id="g20181">
      <g
         transform="translate(980.14158,296.23661)"
         id="g20179">
        <g
           id="g20177">
          <path
             d="m 5.1875,-13.5625 c 1.375,0 2.453125,0.453125 3.234375,1.359375 0.789063,0.898437 1.1875,2.089844 1.1875,3.578125 0,1.28125 -0.277344,2.492188 -0.828125,3.625 -0.554688,1.136719 -1.261719,2.125 -2.125,2.96875 C 5.789062,-1.1875 4.875,-0.507812 3.90625,0 L 2.671875,-1.15625 c 1.050781,-0.539062 2,-1.238281 2.84375,-2.09375 0.84375,-0.851562 1.457031,-1.800781 1.84375,-2.84375 -0.71875,0.523438 -1.585937,0.78125 -2.59375,0.78125 -0.761719,0 -1.445313,-0.171875 -2.046875,-0.515625 C 2.125,-6.179688 1.65625,-6.664062 1.3125,-7.28125 c -0.335938,-0.613281 -0.5,-1.300781 -0.5,-2.0625 0,-0.8125 0.179688,-1.535156 0.546875,-2.171875 0.375,-0.632813 0.890625,-1.132813 1.546875,-1.5 C 3.5625,-13.378906 4.320312,-13.5625 5.1875,-13.5625 Z m 0,6.6875 c 0.738281,0 1.34375,-0.238281 1.8125,-0.71875 0.46875,-0.476562 0.703125,-1.085938 0.703125,-1.828125 0,-0.757813 -0.230469,-1.378906 -0.6875,-1.859375 C 6.554688,-11.757812 5.945312,-12 5.1875,-12 c -0.75,0 -1.359375,0.25 -1.828125,0.75 -0.460937,0.492188 -0.6875,1.109375 -0.6875,1.859375 0,0.71875 0.226563,1.320313 0.6875,1.796875 C 3.828125,-7.113281 4.4375,-6.875 5.1875,-6.875 Z m 0,0"
             id="path20175" />
        </g>
      </g>
    </g>
    <g
       fill="#fdf4f1"
       fill-opacity="1"
       id="g20189">
      <g
         transform="translate(972.06607,352.40927)"
         id="g20187">
        <g
           id="g20185">
          <path
             d="m 4.703125,-5.53125 c 0.65625,-0.976562 1.132813,-1.789062 1.4375,-2.4375 0.3125,-0.644531 0.46875,-1.234375 0.46875,-1.765625 0,-0.65625 -0.1875,-1.175781 -0.5625,-1.5625 -0.375,-0.394531 -0.882813,-0.59375 -1.515625,-0.59375 -1.179688,0 -2.25,0.5 -3.21875,1.5 L 1.078125,-12.28125 c 0.476563,-0.382812 1.023437,-0.695312 1.640625,-0.9375 0.625,-0.238281 1.296875,-0.359375 2.015625,-0.359375 1.175781,0 2.082031,0.34375 2.71875,1.03125 0.644531,0.679687 0.96875,1.554687 0.96875,2.625 0,0.835937 -0.164063,1.625 -0.484375,2.375 -0.324219,0.742187 -0.871094,1.695313 -1.640625,2.859375 l -2,3.03125 H 8.9375 v 1.640625 H 1.078125 Z m 0,0"
             id="path20183" />
        </g>
      </g>
    </g>
    <g
       fill="#fdf4f1"
       fill-opacity="1"
       id="g20197">
      <g
         transform="translate(982.01518,352.40927)"
         id="g20195">
        <g
           id="g20193">
          <path
             d="m 6.015625,-7.96875 c 0.757813,0 1.4375,0.179688 2.03125,0.53125 0.601563,0.34375 1.070313,0.824219 1.40625,1.4375 0.34375,0.605469 0.515625,1.289062 0.515625,2.046875 0,0.8125 -0.1875,1.542969 -0.5625,2.1875 -0.367188,0.636719 -0.875,1.136719 -1.53125,1.5 -0.65625,0.3515625 -1.417969,0.53125 -2.28125,0.53125 -1.375,0 -2.460938,-0.445313 -3.25,-1.34375 -0.78125,-0.90625 -1.171875,-2.101563 -1.171875,-3.59375 0,-1.3125 0.285156,-2.550781 0.859375,-3.71875 0.570312,-1.175781 1.300781,-2.203125 2.1875,-3.078125 0.894531,-0.875 1.84375,-1.570312 2.84375,-2.09375 l 1.234375,1.171875 c -1.136719,0.5625 -2.148437,1.296875 -3.03125,2.203125 -0.875,0.90625 -1.507813,1.914062 -1.890625,3.015625 0.707031,-0.53125 1.585938,-0.796875 2.640625,-0.796875 z M 5.59375,-1.296875 c 0.75,0 1.351562,-0.242187 1.8125,-0.734375 0.46875,-0.488281 0.703125,-1.109375 0.703125,-1.859375 0,-0.71875 -0.234375,-1.316406 -0.703125,-1.796875 -0.460938,-0.488281 -1.0625,-0.734375 -1.8125,-0.734375 -0.742188,0 -1.34375,0.246094 -1.8125,0.734375 -0.46875,0.480469 -0.703125,1.085938 -0.703125,1.8125 0,0.761719 0.226563,1.382812 0.6875,1.859375 0.46875,0.480469 1.078125,0.71875 1.828125,0.71875 z m 0,0"
             id="path20191" />
        </g>
      </g>
    </g>
    <g
       mask="url(#8da61bbc76)"
       id="g20211">
      <g
         transform="translate(977,391)"
         id="g20209">
        <g
           clip-path="url(#6e509cbfb7)"
           id="g20207">
          <g
             fill="#fdf4f1"
             fill-opacity="1"
             id="g20205">
            <g
               transform="translate(0.465785,17.581906)"
               id="g20203">
              <g
                 id="g20201">
                <path
                   d="m 4.703125,-5.53125 c 0.65625,-0.976562 1.132813,-1.789062 1.4375,-2.4375 0.3125,-0.644531 0.46875,-1.234375 0.46875,-1.765625 0,-0.65625 -0.1875,-1.175781 -0.5625,-1.5625 -0.375,-0.394531 -0.882813,-0.59375 -1.515625,-0.59375 -1.179688,0 -2.25,0.5 -3.21875,1.5 L 1.078125,-12.28125 c 0.476563,-0.382812 1.023437,-0.695312 1.640625,-0.9375 0.625,-0.238281 1.296875,-0.359375 2.015625,-0.359375 1.175781,0 2.082031,0.34375 2.71875,1.03125 0.644531,0.679687 0.96875,1.554687 0.96875,2.625 0,0.835937 -0.164063,1.625 -0.484375,2.375 -0.324219,0.742187 -0.871094,1.695313 -1.640625,2.859375 l -2,3.03125 H 8.9375 v 1.640625 H 1.078125 Z m 0,0"
                   id="path20199" />
              </g>
            </g>
          </g>
        </g>
      </g>
    </g>
  </g>
</svg>
