<?xml version="1.0" encoding="UTF-8" standalone="no"?>
<svg
   width="286.60419"
   zoomAndPan="magnify"
   viewBox="0 0 214.95314 214.95312"
   height="286.60416"
   preserveAspectRatio="xMidYMid"
   version="1.0"
   id="svg59461"
   sodipodi:docname="ft_display.svg"
   inkscape:version="1.2.2 (732a01da63, 2022-12-09)"
   xmlns:inkscape="http://www.inkscape.org/namespaces/inkscape"
   xmlns:sodipodi="http://sodipodi.sourceforge.net/DTD/sodipodi-0.dtd"
   xmlns="http://www.w3.org/2000/svg"
   xmlns:svg="http://www.w3.org/2000/svg">
  <sodipodi:namedview
     id="namedview59463"
     pagecolor="#ffffff"
     bordercolor="#000000"
     borderopacity="0.25"
     inkscape:showpageshadow="2"
     inkscape:pageopacity="0.0"
     inkscape:pagecheckerboard="0"
     inkscape:deskcolor="#d1d1d1"
     showgrid="false"
     inkscape:zoom="2.9587847"
     inkscape:cx="114.57407"
     inkscape:cy="143.30208"
     inkscape:window-width="1920"
     inkscape:window-height="1046"
     inkscape:window-x="-11"
     inkscape:window-y="-11"
     inkscape:window-maximized="1"
     inkscape:current-layer="svg59461" />
  <defs
     id="defs55587">
    <clipPath
       id="f616bc5521">
      <path
         d="M 114.36719,205.07812 H 329.32031 V 420.87109 H 114.36719 Z m 0,0"
         clip-rule="nonzero"
         id="path55569" />
    </clipPath>
    <clipPath
       id="4bbd97104a">
      <path
         d="m 127.86328,205.07812 h 187.96484 c 7.45313,0 13.49219,6.04297 13.49219,13.4961 V 406.8125 c 0,7.45312 -6.03906,13.49219 -13.49219,13.49219 H 127.86328 c -7.45312,0 -13.49609,-6.03907 -13.49609,-13.49219 V 218.57422 c 0,-7.45313 6.04297,-13.4961 13.49609,-13.4961 z m 0,0"
         clip-rule="nonzero"
         id="path55572" />
    </clipPath>
    <clipPath
       id="91ff46f4e5">
      <path
         d="m 190,219 h 67 v 58.625 h -67 z m 0,0"
         clip-rule="nonzero"
         id="path55575" />
    </clipPath>
    <clipPath
       id="b150af2d2a">
      <path
         d="m 225,277.50391 h 60.76172 V 342 H 225 Z m 0,0"
         clip-rule="nonzero"
         id="path55578" />
    </clipPath>
    <clipPath
       id="fe0e5c7ef1">
      <path
         d="M 160.57031,277.50391 H 221 V 342 h -60.42969 z m 0,0"
         clip-rule="nonzero"
         id="path55581" />
    </clipPath>
    <clipPath
       id="36f77b84c9">
      <path
         d="m 191,286 h 65 v 67.96484 h -65 z m 0,0"
         clip-rule="nonzero"
         id="path55584" />
    </clipPath>
  </defs>
  <rect
     style="fill:#000000;fill-opacity:1;stroke-width:1.23551"
     id="rect930"
     width="215.25"
     height="215.25"
     x="3.5527137e-15"
     y="1.110223e-16" />
  <g
     clip-path="url(#f616bc5521)"
     id="g58741"
     transform="translate(-114.36718,-205.07812)">
    <g
       clip-path="url(#4bbd97104a)"
       id="g58739">
      <path
         fill="#aea5a6"
         d="M 114.36719,205.07812 H 329.32031 V 420.03125 H 114.36719 Z m 0,0"
         fill-opacity="1"
         fill-rule="nonzero"
         id="path58737" />
    </g>
  </g>
  <g
     clip-path="url(#91ff46f4e5)"
     id="g58745"
     transform="translate(-114.36718,-205.07812)">
    <path
       fill="#ffffff"
       d="m 223.25781,277.48437 c -0.44531,-0.004 -0.73437,-0.2539 -0.80078,-0.3125 l -25.68359,-25.6875 c -6.11719,-5.53515 -8.21875,-13.96484 -5.36719,-20.96484 3.32031,-8.16016 11.70312,-10.28906 12.26562,-10.42187 7.20313,-1.67969 14.90235,1.44921 19.59375,7.83984 4.69141,-6.39063 12.39063,-9.51953 19.59375,-7.83984 0.36329,0.0859 8.91016,2.16406 12.26954,10.42187 2.87109,7.05469 0.71093,15.47656 -5.36719,20.96484 l -25.6875,25.6875 c -0.0664,0.0586 -0.36328,0.31641 -0.81641,0.3125 z m 0,0"
       fill-opacity="1"
       fill-rule="nonzero"
       id="path58743" />
  </g>
  <g
     clip-path="url(#b150af2d2a)"
     id="g58749"
     transform="translate(-114.36718,-205.07812)">
    <path
       fill="#d3c7c3"
       d="m 285.6875,333.03516 c -0.21094,-5.58985 -3.3125,-10.66407 -8.41406,-14.40625 -2.35547,-1.73047 -5.13672,-3.17188 -8.25391,-4.25 4.5625,-3.82422 7.46484,-9.5625 7.46484,-15.98047 0,-11.50782 -9.32812,-20.83985 -20.83593,-20.83985 -11.51172,0 -20.83985,9.33203 -20.83985,20.83985 0,6.41797 2.90625,12.15625 7.46875,15.98047 -3.12109,1.07812 -5.89843,2.51953 -8.2539,4.25 -5.09766,3.74218 -8.19922,8.8164 -8.41407,14.40625 -0.0742,1.96093 0.14063,3.61328 0.59766,5.02343 7.79297,1.92578 18.11719,3.09766 29.44141,3.09766 11.35156,0 21.69531,-1.17969 29.49609,-3.11328 0.42188,-1.40625 0.61328,-3.05469 0.54297,-5.00781"
       fill-opacity="1"
       fill-rule="nonzero"
       id="path58747" />
  </g>
  <g
     clip-path="url(#fe0e5c7ef1)"
     id="g58753"
     transform="translate(-114.36718,-205.07812)">
    <path
       fill="#d3c7c3"
       d="m 220.73828,333.03516 c -0.20703,-5.58985 -3.3125,-10.66407 -8.41406,-14.40625 -2.35547,-1.73047 -5.13672,-3.17188 -8.25391,-4.25 4.5625,-3.82422 7.46485,-9.5625 7.46485,-15.98047 0,-11.50782 -9.32813,-20.83985 -20.83594,-20.83985 -11.50781,0 -20.83985,9.33203 -20.83985,20.83985 0,6.41797 2.90625,12.15625 7.46875,15.98047 -3.12109,1.07812 -5.89843,2.51953 -8.2539,4.25 -5.09766,3.74218 -8.19922,8.8164 -8.41406,14.40625 -0.0742,1.96093 0.14062,3.61328 0.59765,5.02343 7.79297,1.92578 18.11719,3.09766 29.44141,3.09766 11.35156,0 21.69531,-1.17969 29.5,-3.11328 0.41797,-1.40625 0.60937,-3.05469 0.53906,-5.00781"
       fill-opacity="1"
       fill-rule="nonzero"
       id="path58751" />
  </g>
  <g
     clip-path="url(#36f77b84c9)"
     id="g58757"
     transform="translate(-114.36718,-205.07812)">
    <path
       fill="#ffffff"
       d="m 255.10547,345.51562 c -0.21875,-5.9414 -3.51953,-11.33984 -8.94531,-15.3164 -2.50391,-1.83985 -5.45704,-3.375 -8.77344,-4.52344 4.85156,-4.05859 7.9375,-10.16016 7.9375,-16.98437 0,-12.23047 -9.91797,-22.14844 -22.14844,-22.14844 -12.23828,0 -22.15234,9.91797 -22.15234,22.14844 0,6.82421 3.08593,12.92578 7.9375,16.98828 -3.31641,1.14453 -6.26953,2.67968 -8.77344,4.51953 -5.42188,3.97656 -8.71875,9.375 -8.94922,15.3164 -0.0781,2.08594 0.15234,3.83985 0.63672,5.33594 8.28906,2.04688 19.26172,3.29297 31.30078,3.29297 12.06641,0 23.0625,-1.25 31.35547,-3.30859 0.44531,-1.4961 0.65234,-3.2461 0.57422,-5.32032"
       fill-opacity="1"
       fill-rule="nonzero"
       id="path58755" />
  </g>
  <g
     fill="#ffffff"
     fill-opacity="1"
     id="g59309"
     transform="translate(-114.36718,-205.07812)">
    <g
       transform="translate(136.98612,376.80254)"
       id="g59307">
      <g
         id="g59305">
        <path
           d="m 7.28125,0.359375 c -1.023438,0 -2.121094,-0.136719 -3.296875,-0.40625 C 2.816406,-0.328125 1.90625,-0.632812 1.25,-0.96875 L 1.640625,-4.5 c 2.28125,1.117188 4.289063,1.671875 6.03125,1.671875 0.914063,0 1.632813,-0.175781 2.15625,-0.53125 0.519531,-0.351563 0.78125,-0.878906 0.78125,-1.578125 0,-0.519531 -0.148437,-0.945312 -0.4375,-1.28125 C 9.890625,-6.5625 9.476562,-6.847656 8.9375,-7.078125 8.40625,-7.316406 7.546875,-7.644531 6.359375,-8.0625 5.253906,-8.4375 4.335938,-8.835938 3.609375,-9.265625 2.878906,-9.691406 2.300781,-10.238281 1.875,-10.90625 1.457031,-11.570312 1.25,-12.390625 1.25,-13.359375 c 0,-1.550781 0.566406,-2.800781 1.703125,-3.75 1.144531,-0.957031 2.785156,-1.4375 4.921875,-1.4375 1,0 2,0.117187 3,0.34375 1,0.21875 1.910156,0.492187 2.734375,0.8125 l -0.328125,3.40625 c -1.074219,-0.46875 -2.058594,-0.816406 -2.953125,-1.046875 -0.898437,-0.226562 -1.78125,-0.34375 -2.65625,-0.34375 -0.992187,0 -1.746094,0.167969 -2.265625,0.5 -0.523438,0.324219 -0.78125,0.796875 -0.78125,1.421875 0,0.480469 0.132812,0.875 0.40625,1.1875 0.28125,0.3125 0.660156,0.574219 1.140625,0.78125 0.476563,0.210937 1.179687,0.460937 2.109375,0.75 2.101562,0.65625 3.632812,1.417969 4.59375,2.28125 0.957031,0.855469 1.4375,2.027344 1.4375,3.515625 0,1.417969 -0.496094,2.65625 -1.484375,3.71875 C 11.847656,-0.164062 10,0.359375 7.28125,0.359375 Z m 0,0"
           id="path59303" />
      </g>
    </g>
  </g>
  <g
     fill="#ffffff"
     fill-opacity="1"
     id="g59317"
     transform="translate(-114.36718,-205.07812)">
    <g
       transform="translate(152.05425,376.80254)"
       id="g59315">
      <g
         id="g59313">
        <path
           d="m 8.0625,-13.203125 c 1.644531,0 2.867188,0.539063 3.671875,1.609375 0.800781,1.0625 1.203125,2.523438 1.203125,4.375 V 0 H 9.71875 v -6.984375 c 0,-1.226563 -0.203125,-2.128906 -0.609375,-2.703125 -0.398437,-0.570312 -1.027344,-0.859375 -1.890625,-0.859375 -1.023438,0 -1.859375,0.371094 -2.515625,1.109375 V 0 h -3.21875 v -19.484375 h 3.21875 v 7.328125 c 0.519531,-0.332031 1.046875,-0.585938 1.578125,-0.765625 0.539062,-0.1875 1.132812,-0.28125 1.78125,-0.28125 z m 0,0"
           id="path59311" />
      </g>
    </g>
  </g>
  <g
     fill="#ffffff"
     fill-opacity="1"
     id="g59325"
     transform="translate(-114.36718,-205.07812)">
    <g
       transform="translate(166.36897,376.80254)"
       id="g59323">
      <g
         id="g59321">
        <path
           d="m 7.40625,0.265625 c -1.367188,0 -2.554688,-0.3007812 -3.5625,-0.90625 -1,-0.613281 -1.773438,-1.429687 -2.3125,-2.453125 C 1,-4.113281 0.734375,-5.238281 0.734375,-6.46875 0.734375,-7.695312 1,-8.832031 1.53125,-9.875 c 0.539062,-1.039062 1.3125,-1.863281 2.3125,-2.46875 1.007812,-0.601562 2.195312,-0.90625 3.5625,-0.90625 1.363281,0 2.546875,0.304688 3.546875,0.90625 1.007813,0.605469 1.78125,1.429688 2.3125,2.46875 0.539063,1.042969 0.8125,2.179688 0.8125,3.40625 0,1.230469 -0.273437,2.355469 -0.8125,3.375 -0.53125,1.023438 -1.304687,1.839844 -2.3125,2.453125 -1,0.6054688 -2.183594,0.90625 -3.546875,0.90625 z m 0,-2.65625 c 1.050781,0 1.875,-0.367187 2.46875,-1.109375 0.601562,-0.75 0.90625,-1.738281 0.90625,-2.96875 0,-1.25 -0.304688,-2.25 -0.90625,-3 -0.59375,-0.757812 -1.417969,-1.140625 -2.46875,-1.140625 -1.054688,0 -1.882812,0.382813 -2.484375,1.140625 -0.59375,0.75 -0.890625,1.75 -0.890625,3 0,1.230469 0.296875,2.21875 0.890625,2.96875 0.601563,0.742188 1.429687,1.109375 2.484375,1.109375 z m 0,0"
           id="path59319" />
      </g>
    </g>
  </g>
  <g
     fill="#ffffff"
     fill-opacity="1"
     id="g59333"
     transform="translate(-114.36718,-205.07812)">
    <g
       transform="translate(181.17731,376.80254)"
       id="g59331">
      <g
         id="g59329">
        <path
           d="M 0.265625,-12.984375 H 3.40625 l 2.234375,9.0625 2.4375,-8.8125 h 2.703125 l 2.421875,8.8125 2.25,-9.0625 h 3.15625 L 14.8125,0 H 12.109375 L 9.4375,-8.46875 6.75,0 H 4.046875 Z m 0,0"
           id="path59327" />
      </g>
    </g>
  </g>
  <g
     fill="#ffffff"
     fill-opacity="1"
     id="g59341"
     transform="translate(-114.36718,-205.07812)">
    <g
       transform="translate(200.03845,376.80254)"
       id="g59339">
      <g
         id="g59337">
        <path
           d="M 7.53125,0.265625 C 6.09375,0.265625 4.859375,-0.03125 3.828125,-0.625 2.796875,-1.226562 2.019531,-2.039062 1.5,-3.0625 0.988281,-4.082031 0.734375,-5.21875 0.734375,-6.46875 0.734375,-7.726562 0.988281,-8.875 1.5,-9.90625 2.019531,-10.9375 2.800781,-11.75 3.84375,-12.34375 4.882812,-12.945312 6.148438,-13.25 7.640625,-13.25 c 1.332031,0 2.492187,0.277344 3.484375,0.828125 l -0.265625,2.59375 c -0.9375,-0.476563 -1.90625,-0.71875 -2.90625,-0.71875 -1.230469,0 -2.195313,0.375 -2.890625,1.125 -0.6875,0.742187 -1.03125,1.726563 -1.03125,2.953125 0,1.179688 0.351562,2.152344 1.0625,2.921875 0.707031,0.773437 1.648438,1.15625 2.828125,1.15625 0.988281,0 1.976563,-0.285156 2.96875,-0.859375 l 0.28125,2.734375 c -0.46875,0.242187 -1.023437,0.4296875 -1.65625,0.5625 -0.625,0.144531 -1.289063,0.21875 -1.984375,0.21875 z m 0,0"
           id="path59335" />
      </g>
    </g>
  </g>
  <g
     fill="#ffffff"
     fill-opacity="1"
     id="g59349"
     transform="translate(-114.36718,-205.07812)">
    <g
       transform="translate(211.85914,376.80254)"
       id="g59347">
      <g
         id="g59345">
        <path
           d="m 4.3125,0.265625 c -1.074219,0 -1.96875,-0.3476562 -2.6875,-1.046875 -0.71875,-0.707031 -1.078125,-1.660156 -1.078125,-2.859375 0,-1.125 0.40625,-2.023437 1.21875,-2.703125 0.8125,-0.6875 1.769531,-1.171875 2.875,-1.453125 C 5.753906,-8.085938 6.820312,-8.25 7.84375,-8.28125 7.8125,-9.050781 7.617188,-9.597656 7.265625,-9.921875 c -0.355469,-0.332031 -0.9375,-0.5 -1.75,-0.5 -0.574219,0 -1.136719,0.07813 -1.6875,0.234375 -0.542969,0.15625 -1.167969,0.40625 -1.875,0.75 l -0.296875,-2.625 c 1.582031,-0.757812 3.160156,-1.140625 4.734375,-1.140625 1.519531,0 2.679687,0.417969 3.484375,1.25 0.8125,0.835937 1.21875,2.15625 1.21875,3.96875 v 3.515625 c 0,0.65625 0.03125,1.132812 0.09375,1.421875 0.0625,0.28125 0.164062,0.464844 0.3125,0.546875 0.144531,0.074219 0.390625,0.109375 0.734375,0.109375 H 12.65625 L 12.375,0.265625 h -1.171875 c -0.710937,0 -1.308594,-0.136719 -1.796875,-0.40625 C 8.914062,-0.410156 8.539062,-0.78125 8.28125,-1.25 7.875,-0.78125 7.3125,-0.410156 6.59375,-0.140625 5.875,0.128906 5.113281,0.265625 4.3125,0.265625 Z m 1.359375,-2.46875 c 0.320313,0 0.691406,-0.082031 1.109375,-0.25 0.414062,-0.164063 0.78125,-0.394531 1.09375,-0.6875 v -2.96875 c -1.042969,0.054687 -1.964844,0.28125 -2.765625,0.6875 -0.792969,0.398437 -1.1875,0.949219 -1.1875,1.65625 0,0.53125 0.132813,0.929687 0.40625,1.1875 0.28125,0.25 0.726563,0.375 1.34375,0.375 z m 0,0"
           id="path59343" />
      </g>
    </g>
  </g>
  <g
     fill="#ffffff"
     fill-opacity="1"
     id="g59357"
     transform="translate(-114.36718,-205.07812)">
    <g
       transform="translate(224.79695,376.80254)"
       id="g59355">
      <g
         id="g59353">
        <path
           d="M 5.203125,0.265625 C 4.367188,0.265625 3.609375,0.1875 2.921875,0.03125 2.234375,-0.125 1.53125,-0.367188 0.8125,-0.703125 l 0.28125,-2.75 c 0.726562,0.429687 1.40625,0.75 2.03125,0.96875 0.632812,0.21875 1.289062,0.328125 1.96875,0.328125 1.3125,0 1.96875,-0.429688 1.96875,-1.296875 0,-0.46875 -0.171875,-0.828125 -0.515625,-1.078125 -0.34375,-0.25 -0.96875,-0.550781 -1.875,-0.90625 C 3.390625,-5.894531 2.445312,-6.421875 1.84375,-7.015625 1.238281,-7.617188 0.9375,-8.429688 0.9375,-9.453125 c 0,-1.125 0.429688,-2.035156 1.296875,-2.734375 C 3.097656,-12.894531 4.269531,-13.25 5.75,-13.25 c 1.46875,0 2.804688,0.339844 4.015625,1.015625 l -0.28125,2.75 c -0.65625,-0.445313 -1.277344,-0.789063 -1.859375,-1.03125 -0.585938,-0.25 -1.195312,-0.375 -1.828125,-0.375 -0.554687,0 -0.984375,0.117187 -1.296875,0.34375 -0.304688,0.21875 -0.453125,0.539063 -0.453125,0.953125 0,0.335938 0.085937,0.605469 0.265625,0.8125 0.1875,0.210938 0.445312,0.398438 0.78125,0.5625 0.332031,0.15625 0.878906,0.386719 1.640625,0.6875 1.257813,0.480469 2.164063,1.011719 2.71875,1.59375 0.5625,0.585938 0.84375,1.359375 0.84375,2.328125 0,1.230469 -0.445313,2.183594 -1.328125,2.859375 -0.886719,0.6796875 -2.140625,1.015625 -3.765625,1.015625 z m 0,0"
           id="path59351" />
      </g>
    </g>
  </g>
  <g
     fill="#ffffff"
     fill-opacity="1"
     id="g59365"
     transform="translate(-114.36718,-205.07812)">
    <g
       transform="translate(235.78629,376.80254)"
       id="g59363">
      <g
         id="g59361">
        <path
           d="m 7.765625,0.265625 c -1.5,0 -2.789063,-0.3046875 -3.859375,-0.921875 -1.0625,-0.613281 -1.859375,-1.4375 -2.390625,-2.46875 -0.523437,-1.03125 -0.78125,-2.179688 -0.78125,-3.453125 0,-1.207031 0.25,-2.3125 0.75,-3.3125 0.5,-1.007813 1.222656,-1.8125 2.171875,-2.40625 0.957031,-0.601563 2.09375,-0.90625 3.40625,-0.90625 1.21875,0 2.242188,0.257813 3.078125,0.765625 0.84375,0.5 1.476563,1.179688 1.90625,2.03125 0.425781,0.84375 0.640625,1.792969 0.640625,2.84375 0,0.523438 -0.07422,1.109375 -0.21875,1.765625 H 4.078125 c 0.175781,1.148437 0.625,2 1.34375,2.5625 0.726563,0.5625 1.609375,0.84375 2.640625,0.84375 1.394531,0 2.691406,-0.351563 3.890625,-1.0625 l 0.15625,2.71875 C 11.554688,-0.429688 10.910156,-0.1875 10.171875,0 9.429688,0.175781 8.628906,0.265625 7.765625,0.265625 Z m 1.640625,-8.25 c 0,-0.664063 -0.195312,-1.257813 -0.578125,-1.78125 -0.375,-0.519531 -0.964844,-0.78125 -1.765625,-0.78125 -0.792969,0 -1.433594,0.234375 -1.921875,0.703125 C 4.660156,-9.375 4.332031,-8.753906 4.15625,-7.984375 Z m 0,0"
           id="path59359" />
      </g>
    </g>
  </g>
  <g
     fill="#ffffff"
     fill-opacity="1"
     id="g59379"
     transform="translate(-114.36718,-205.07812)">
    <g
       transform="translate(255.01116,376.80254)"
       id="g59377">
      <g
         id="g59375">
        <path
           d="m 5.4375,-0.859375 -5.40625,-12.125 H 3.609375 L 6.9375,-4.625 l 3.375,-8.359375 h 3.59375 L 5.765625,6.28125 h -3.21875 z m 0,0"
           id="path59373" />
      </g>
    </g>
  </g>
  <g
     fill="#ffffff"
     fill-opacity="1"
     id="g59387"
     transform="translate(-114.36718,-205.07812)">
    <g
       transform="translate(268.96217,376.80254)"
       id="g59385">
      <g
         id="g59383">
        <path
           d="m 7.40625,0.265625 c -1.367188,0 -2.554688,-0.3007812 -3.5625,-0.90625 -1,-0.613281 -1.773438,-1.429687 -2.3125,-2.453125 C 1,-4.113281 0.734375,-5.238281 0.734375,-6.46875 0.734375,-7.695312 1,-8.832031 1.53125,-9.875 c 0.539062,-1.039062 1.3125,-1.863281 2.3125,-2.46875 1.007812,-0.601562 2.195312,-0.90625 3.5625,-0.90625 1.363281,0 2.546875,0.304688 3.546875,0.90625 1.007813,0.605469 1.78125,1.429688 2.3125,2.46875 0.539063,1.042969 0.8125,2.179688 0.8125,3.40625 0,1.230469 -0.273437,2.355469 -0.8125,3.375 -0.53125,1.023438 -1.304687,1.839844 -2.3125,2.453125 -1,0.6054688 -2.183594,0.90625 -3.546875,0.90625 z m 0,-2.65625 c 1.050781,0 1.875,-0.367187 2.46875,-1.109375 0.601562,-0.75 0.90625,-1.738281 0.90625,-2.96875 0,-1.25 -0.304688,-2.25 -0.90625,-3 -0.59375,-0.757812 -1.417969,-1.140625 -2.46875,-1.140625 -1.054688,0 -1.882812,0.382813 -2.484375,1.140625 -0.59375,0.75 -0.890625,1.75 -0.890625,3 0,1.230469 0.296875,2.21875 0.890625,2.96875 0.601563,0.742188 1.429687,1.109375 2.484375,1.109375 z m 0,0"
           id="path59381" />
      </g>
    </g>
  </g>
  <g
     fill="#ffffff"
     fill-opacity="1"
     id="g59395"
     transform="translate(-114.36718,-205.07812)">
    <g
       transform="translate(283.77051,376.80254)"
       id="g59393">
      <g
         id="g59391">
        <path
           d="M 12.84375,-12.984375 V 0 H 9.828125 l -0.0625,-0.78125 c -0.398437,0.292969 -0.855469,0.542969 -1.375,0.75 -0.523437,0.195312 -1.023437,0.296875 -1.5,0.296875 -1.929687,0 -3.328125,-0.550781 -4.203125,-1.65625 C 1.8125,-2.503906 1.375,-4.039062 1.375,-6 v -6.984375 H 4.59375 V -6 c 0,1.210938 0.203125,2.105469 0.609375,2.6875 0.414063,0.585938 1.070313,0.875 1.96875,0.875 1,0 1.8125,-0.363281 2.4375,-1.09375 v -9.453125 z m 0,0"
           id="path59389" />
      </g>
    </g>
  </g>
  <g
     fill="#ffffff"
     fill-opacity="1"
     id="g59403"
     transform="translate(-114.36718,-205.07812)">
    <g
       transform="translate(298.11121,376.80254)"
       id="g59401">
      <g
         id="g59399">
        <path
           d="m 1.5,-12.984375 h 3.015625 l 0.078125,1.375 c 0.382812,-0.4375 0.875,-0.816406 1.46875,-1.140625 0.601562,-0.332031 1.234375,-0.5 1.890625,-0.5 0.207031,0 0.394531,0.01563 0.5625,0.04687 l -0.234375,3.17188 c -0.324219,-0.08203 -0.695312,-0.125 -1.109375,-0.125 -0.542969,0 -1.039063,0.125 -1.484375,0.375 -0.449219,0.25 -0.765625,0.558594 -0.953125,0.921875 V 0 H 1.5 Z m 0,0"
           id="path59397" />
      </g>
    </g>
  </g>
  <g
     fill="#ffffff"
     fill-opacity="1"
     id="g59411"
     transform="translate(-114.36718,-205.07812)">
    <g
       transform="translate(177.53664,412.78498)"
       id="g59409">
      <g
         id="g59407">
        <path
           d="M 11.4375,-4.3125 H 4.8125 L 3.296875,0 h -3.21875 l 6.46875,-18.1875 H 9.6875 L 16.15625,0 H 12.9375 Z m -1.046875,-2.90625 -2.25,-6.5 -2.296875,6.5 z m 0,0"
           id="path59405" />
      </g>
    </g>
  </g>
  <g
     fill="#ffffff"
     fill-opacity="1"
     id="g59419"
     transform="translate(-114.36718,-205.07812)">
    <g
       transform="translate(193.77384,412.78498)"
       id="g59417">
      <g
         id="g59415">
        <path
           d="m 1.5,-12.984375 h 3.015625 l 0.078125,1.375 c 0.382812,-0.4375 0.875,-0.816406 1.46875,-1.140625 0.601562,-0.332031 1.234375,-0.5 1.890625,-0.5 0.207031,0 0.394531,0.01563 0.5625,0.04687 l -0.234375,3.17188 c -0.324219,-0.08203 -0.695312,-0.125 -1.109375,-0.125 -0.542969,0 -1.039063,0.125 -1.484375,0.375 -0.449219,0.25 -0.765625,0.558594 -0.953125,0.921875 V 0 H 1.5 Z m 0,0"
           id="path59413" />
      </g>
    </g>
  </g>
  <g
     fill="#ffffff"
     fill-opacity="1"
     id="g59427"
     transform="translate(-114.36718,-205.07812)">
    <g
       transform="translate(202.34708,412.78498)"
       id="g59425">
      <g
         id="g59423">
        <path
           d="m 5.75,0.265625 c -1.148438,0 -2.015625,-0.3320312 -2.609375,-1 -0.585937,-0.664063 -0.875,-1.46875 -0.875,-2.40625 v -7.203125 h -1.84375 l 0.28125,-2.640625 h 1.5625 v -2.859375 l 3.21875,-0.34375 v 3.203125 H 8.34375 v 2.640625 H 5.484375 v 5.875 c 0,0.6875 0.035156,1.167969 0.109375,1.4375 0.082031,0.273438 0.25,0.449219 0.5,0.53125 0.25,0.074219 0.703125,0.109375 1.359375,0.109375 H 8.34375 L 8.0625,0.265625 Z m 0,0"
           id="path59421" />
      </g>
    </g>
  </g>
  <g
     fill="#ffffff"
     fill-opacity="1"
     id="g59435"
     transform="translate(-114.36718,-205.07812)">
    <g
       transform="translate(211.28405,412.78498)"
       id="g59433">
      <g
         id="g59431">
        <path
           d="M 0.265625,-12.984375 H 3.40625 l 2.234375,9.0625 2.4375,-8.8125 h 2.703125 l 2.421875,8.8125 2.25,-9.0625 h 3.15625 L 14.8125,0 H 12.109375 L 9.4375,-8.46875 6.75,0 H 4.046875 Z m 0,0"
           id="path59429" />
      </g>
    </g>
  </g>
  <g
     fill="#ffffff"
     fill-opacity="1"
     id="g59443"
     transform="translate(-114.36718,-205.07812)">
    <g
       transform="translate(230.14519,412.78498)"
       id="g59441">
      <g
         id="g59439">
        <path
           d="m 7.40625,0.265625 c -1.367188,0 -2.554688,-0.3007812 -3.5625,-0.90625 -1,-0.613281 -1.773438,-1.429687 -2.3125,-2.453125 C 1,-4.113281 0.734375,-5.238281 0.734375,-6.46875 0.734375,-7.695312 1,-8.832031 1.53125,-9.875 c 0.539062,-1.039062 1.3125,-1.863281 2.3125,-2.46875 1.007812,-0.601562 2.195312,-0.90625 3.5625,-0.90625 1.363281,0 2.546875,0.304688 3.546875,0.90625 1.007813,0.605469 1.78125,1.429688 2.3125,2.46875 0.539063,1.042969 0.8125,2.179688 0.8125,3.40625 0,1.230469 -0.273437,2.355469 -0.8125,3.375 -0.53125,1.023438 -1.304687,1.839844 -2.3125,2.453125 -1,0.6054688 -2.183594,0.90625 -3.546875,0.90625 z m 0,-2.65625 c 1.050781,0 1.875,-0.367187 2.46875,-1.109375 0.601562,-0.75 0.90625,-1.738281 0.90625,-2.96875 0,-1.25 -0.304688,-2.25 -0.90625,-3 -0.59375,-0.757812 -1.417969,-1.140625 -2.46875,-1.140625 -1.054688,0 -1.882812,0.382813 -2.484375,1.140625 -0.59375,0.75 -0.890625,1.75 -0.890625,3 0,1.230469 0.296875,2.21875 0.890625,2.96875 0.601563,0.742188 1.429687,1.109375 2.484375,1.109375 z m 0,0"
           id="path59437" />
      </g>
    </g>
  </g>
  <g
     fill="#ffffff"
     fill-opacity="1"
     id="g59451"
     transform="translate(-114.36718,-205.07812)">
    <g
       transform="translate(244.95353,412.78498)"
       id="g59449">
      <g
         id="g59447">
        <path
           d="m 1.5,-12.984375 h 3.015625 l 0.078125,1.375 c 0.382812,-0.4375 0.875,-0.816406 1.46875,-1.140625 0.601562,-0.332031 1.234375,-0.5 1.890625,-0.5 0.207031,0 0.394531,0.01563 0.5625,0.04687 l -0.234375,3.17188 c -0.324219,-0.08203 -0.695312,-0.125 -1.109375,-0.125 -0.542969,0 -1.039063,0.125 -1.484375,0.375 -0.449219,0.25 -0.765625,0.558594 -0.953125,0.921875 V 0 H 1.5 Z m 0,0"
           id="path59445" />
      </g>
    </g>
  </g>
  <g
     fill="#ffffff"
     fill-opacity="1"
     id="g59459"
     transform="translate(-114.36718,-205.07812)">
    <g
       transform="translate(253.52677,412.78498)"
       id="g59457">
      <g
         id="g59455">
        <path
           d="m 1.484375,-19.484375 h 3.21875 v 11.8125 l 4.03125,-5.3125 H 12.375 L 7.640625,-6.75 12.46875,0 H 8.828125 l -4.125,-5.765625 V 0 h -3.21875 z m 0,0"
           id="path59453" />
      </g>
    </g>
  </g>
</svg>
