<?xml version="1.0" encoding="UTF-8" standalone="no"?>
<svg
   width="286.60416"
   zoomAndPan="magnify"
   viewBox="0 0 214.95312 214.94923"
   height="286.59897"
   preserveAspectRatio="xMidYMid"
   version="1.0"
   id="svg59461"
   sodipodi:docname="ft_inform.svg"
   inkscape:version="1.2.2 (732a01da63, 2022-12-09)"
   xmlns:inkscape="http://www.inkscape.org/namespaces/inkscape"
   xmlns:sodipodi="http://sodipodi.sourceforge.net/DTD/sodipodi-0.dtd"
   xmlns="http://www.w3.org/2000/svg"
   xmlns:svg="http://www.w3.org/2000/svg">
  <sodipodi:namedview
     id="namedview59463"
     pagecolor="#ffffff"
     bordercolor="#000000"
     borderopacity="0.25"
     inkscape:showpageshadow="2"
     inkscape:pageopacity="0.0"
     inkscape:pagecheckerboard="0"
     inkscape:deskcolor="#d1d1d1"
     showgrid="false"
     inkscape:zoom="2.0922146"
     inkscape:cx="93.202676"
     inkscape:cy="137.65318"
     inkscape:window-width="1920"
     inkscape:window-height="1046"
     inkscape:window-x="-11"
     inkscape:window-y="-11"
     inkscape:window-maximized="1"
     inkscape:current-layer="svg59461" />
  <defs
     id="defs55587">
    <clipPath
       id="2e6cf71c5e">
      <path
         d="M 661.64453,203.95703 H 876.59766 V 419 H 661.64453 Z m 0,0"
         clip-rule="nonzero"
         id="path55560" />
    </clipPath>
    <clipPath
       id="5147b48523">
      <path
         d="m 675.13672,203.95703 h 187.96875 c 7.44922,0 13.49219,6.03906 13.49219,13.49219 V 405.6875 c 0,7.45312 -6.04297,13.49609 -13.49219,13.49609 H 675.13672 c -7.44922,0 -13.49219,-6.04297 -13.49219,-13.49609 V 217.44922 c 0,-7.45313 6.04297,-13.49219 13.49219,-13.49219 z m 0,0"
         clip-rule="nonzero"
         id="path55563" />
    </clipPath>
    <clipPath
       id="2551d34737">
      <path
         d="m 708.71094,218.40625 h 121.4414 v 121.44141 h -121.4414 z m 0,0"
         clip-rule="nonzero"
         id="path55566" />
    </clipPath>
  </defs>
  <rect
     style="fill:#000000;fill-opacity:1;stroke-width:1.21281"
     id="rect3008"
     width="215.25"
     height="215.25"
     x="-2.8421709e-14"
     y="0" />
  <g
     clip-path="url(#2e6cf71c5e)"
     id="g58019"
     inkscape:export-filename="ft_events.svg"
     inkscape:export-xdpi="96"
     inkscape:export-ydpi="96"
     transform="translate(-661.64453,-203.95705)">
    <g
       clip-path="url(#5147b48523)"
       id="g58017">
      <path
         fill="#aea5a6"
         d="M 661.64453,203.95703 H 876.59766 V 418.90625 H 661.64453 Z m 0,0"
         fill-opacity="1"
         fill-rule="nonzero"
         id="path58015" />
    </g>
  </g>
  <g
     clip-path="url(#2551d34737)"
     id="g58023"
     transform="translate(-661.64453,-203.95705)">
    <path
       fill="#ffffff"
       d="m 809.76953,225.55859 h -4.46875 v -3.57422 c 0,-1.97656 -1.60156,-3.57812 -3.57812,-3.57812 -1.97657,0 -3.57813,1.60156 -3.57813,3.57812 v 3.57422 h -57.23437 v -3.57422 c 0,-1.97656 -1.60157,-3.57812 -3.57813,-3.57812 -1.97656,0 -3.57812,1.60156 -3.57812,3.57812 v 3.57422 h -4.46875 c -11.34375,0 -20.57422,9.23047 -20.57422,20.57422 v 73.32813 c 0,11.34375 9.23047,20.57422 20.57422,20.57422 h 80.48437 c 11.34375,0 20.57031,-9.23047 20.57031,-20.57422 v -73.32813 c 0,-11.34375 -9.22656,-20.57422 -20.57031,-20.57422 z m 13.41797,93.90235 c 0,7.39843 -6.01953,13.41797 -13.41797,13.41797 h -80.48437 c -7.39844,0 -13.41797,-6.01954 -13.41797,-13.41797 V 261.33203 H 823.1875 Z m 0,-65.28125 H 715.86719 v -8.04688 c 0,-7.39844 6.01953,-13.41797 13.41797,-13.41797 h 4.46875 v 7.15625 c 0,1.97266 1.60156,3.57422 3.57812,3.57422 1.97656,0 3.57813,-1.60156 3.57813,-3.57422 v -7.15625 h 57.23437 v 7.15625 c 0,1.97266 1.60156,3.57422 3.57813,3.57422 1.97656,0 3.57812,-1.60156 3.57812,-3.57422 v -7.15625 h 4.46875 c 7.39844,0 13.41797,6.01953 13.41797,13.41797 z m 0,0"
       fill-opacity="1"
       fill-rule="nonzero"
       id="path58021" />
  </g>
  <path
     fill="#ffffff"
     d="m 94.121089,97.621073 -2.02343,11.796877 c -0.5,2.91797 2.5664,5.15234 5.1875,3.77344 l 10.597651,-5.57032 10.59375,5.57032 c 2.62891,1.3789 5.69141,-0.86328 5.19141,-3.77344 l -2.02344,-11.796877 8.57422,-8.35546 c 2.11719,-2.06641 0.94531,-5.67579 -1.98437,-6.10157 l -11.84766,-1.72265 -5.29688,-10.73438 c -1.30859,-2.65234 -5.10546,-2.65625 -6.41406,0 l -5.300781,10.73438 -11.84375,1.72265 c -2.92969,0.42578 -4.10547,4.03516 -1.98437,6.10157 z m 0,0"
     fill-opacity="1"
     fill-rule="nonzero"
     id="path58025" />
  <g
     fill="#ffffff"
     fill-opacity="1"
     id="g58547"
     transform="translate(-661.64453,-203.95705)">
    <g
       transform="translate(687.24985,377.92664)"
       id="g58545">
      <g
         id="g58543">
        <path
           d="m 7.28125,0.359375 c -1.023438,0 -2.121094,-0.136719 -3.296875,-0.40625 C 2.816406,-0.328125 1.90625,-0.632812 1.25,-0.96875 L 1.640625,-4.5 c 2.28125,1.117188 4.289063,1.671875 6.03125,1.671875 0.914063,0 1.632813,-0.175781 2.15625,-0.53125 0.519531,-0.351563 0.78125,-0.878906 0.78125,-1.578125 0,-0.519531 -0.148437,-0.945312 -0.4375,-1.28125 C 9.890625,-6.5625 9.476562,-6.847656 8.9375,-7.078125 8.40625,-7.316406 7.546875,-7.644531 6.359375,-8.0625 5.253906,-8.4375 4.335938,-8.835938 3.609375,-9.265625 2.878906,-9.691406 2.300781,-10.238281 1.875,-10.90625 1.457031,-11.570312 1.25,-12.390625 1.25,-13.359375 c 0,-1.550781 0.566406,-2.800781 1.703125,-3.75 1.144531,-0.957031 2.785156,-1.4375 4.921875,-1.4375 1,0 2,0.117187 3,0.34375 1,0.21875 1.910156,0.492187 2.734375,0.8125 l -0.328125,3.40625 c -1.074219,-0.46875 -2.058594,-0.816406 -2.953125,-1.046875 -0.898437,-0.226562 -1.78125,-0.34375 -2.65625,-0.34375 -0.992187,0 -1.746094,0.167969 -2.265625,0.5 -0.523438,0.324219 -0.78125,0.796875 -0.78125,1.421875 0,0.480469 0.132812,0.875 0.40625,1.1875 0.28125,0.3125 0.660156,0.574219 1.140625,0.78125 0.476563,0.210937 1.179687,0.460937 2.109375,0.75 2.101562,0.65625 3.632812,1.417969 4.59375,2.28125 0.957031,0.855469 1.4375,2.027344 1.4375,3.515625 0,1.417969 -0.496094,2.65625 -1.484375,3.71875 C 11.847656,-0.164062 10,0.359375 7.28125,0.359375 Z m 0,0"
           id="path58541" />
      </g>
    </g>
  </g>
  <g
     fill="#ffffff"
     fill-opacity="1"
     id="g58555"
     transform="translate(-661.64453,-203.95705)">
    <g
       transform="translate(702.31798,377.92664)"
       id="g58553">
      <g
         id="g58551">
        <path
           d="m 7.765625,0.265625 c -1.5,0 -2.789063,-0.3046875 -3.859375,-0.921875 -1.0625,-0.613281 -1.859375,-1.4375 -2.390625,-2.46875 -0.523437,-1.03125 -0.78125,-2.179688 -0.78125,-3.453125 0,-1.207031 0.25,-2.3125 0.75,-3.3125 0.5,-1.007813 1.222656,-1.8125 2.171875,-2.40625 0.957031,-0.601563 2.09375,-0.90625 3.40625,-0.90625 1.21875,0 2.242188,0.257813 3.078125,0.765625 0.84375,0.5 1.476563,1.179688 1.90625,2.03125 0.425781,0.84375 0.640625,1.792969 0.640625,2.84375 0,0.523438 -0.07422,1.109375 -0.21875,1.765625 H 4.078125 c 0.175781,1.148437 0.625,2 1.34375,2.5625 0.726563,0.5625 1.609375,0.84375 2.640625,0.84375 1.394531,0 2.691406,-0.351563 3.890625,-1.0625 l 0.15625,2.71875 C 11.554688,-0.429688 10.910156,-0.1875 10.171875,0 9.429688,0.175781 8.628906,0.265625 7.765625,0.265625 Z m 1.640625,-8.25 c 0,-0.664063 -0.195312,-1.257813 -0.578125,-1.78125 -0.375,-0.519531 -0.964844,-0.78125 -1.765625,-0.78125 -0.792969,0 -1.433594,0.234375 -1.921875,0.703125 C 4.660156,-9.375 4.332031,-8.753906 4.15625,-7.984375 Z m 0,0"
           id="path58549" />
      </g>
    </g>
  </g>
  <g
     fill="#ffffff"
     fill-opacity="1"
     id="g58563"
     transform="translate(-661.64453,-203.95705)">
    <g
       transform="translate(715.69744,377.92664)"
       id="g58561">
      <g
         id="g58559">
        <path
           d="m 7.765625,0.265625 c -1.5,0 -2.789063,-0.3046875 -3.859375,-0.921875 -1.0625,-0.613281 -1.859375,-1.4375 -2.390625,-2.46875 -0.523437,-1.03125 -0.78125,-2.179688 -0.78125,-3.453125 0,-1.207031 0.25,-2.3125 0.75,-3.3125 0.5,-1.007813 1.222656,-1.8125 2.171875,-2.40625 0.957031,-0.601563 2.09375,-0.90625 3.40625,-0.90625 1.21875,0 2.242188,0.257813 3.078125,0.765625 0.84375,0.5 1.476563,1.179688 1.90625,2.03125 0.425781,0.84375 0.640625,1.792969 0.640625,2.84375 0,0.523438 -0.07422,1.109375 -0.21875,1.765625 H 4.078125 c 0.175781,1.148437 0.625,2 1.34375,2.5625 0.726563,0.5625 1.609375,0.84375 2.640625,0.84375 1.394531,0 2.691406,-0.351563 3.890625,-1.0625 l 0.15625,2.71875 C 11.554688,-0.429688 10.910156,-0.1875 10.171875,0 9.429688,0.175781 8.628906,0.265625 7.765625,0.265625 Z m 1.640625,-8.25 c 0,-0.664063 -0.195312,-1.257813 -0.578125,-1.78125 -0.375,-0.519531 -0.964844,-0.78125 -1.765625,-0.78125 -0.792969,0 -1.433594,0.234375 -1.921875,0.703125 C 4.660156,-9.375 4.332031,-8.753906 4.15625,-7.984375 Z m 0,0"
           id="path58557" />
      </g>
    </g>
  </g>
  <g
     fill="#ffffff"
     fill-opacity="1"
     id="g58577"
     transform="translate(-661.64453,-203.95705)">
    <g
       transform="translate(734.9223,377.92664)"
       id="g58575">
      <g
         id="g58573">
        <path
           d="m 9.328125,0.359375 c -2.492187,0 -4.371094,-0.71875 -5.640625,-2.15625 -1.261719,-1.445313 -1.890625,-3.445313 -1.890625,-6 V -18.1875 H 5.125 v 9.53125 c 0,1.273438 0.109375,2.328125 0.328125,3.171875 C 5.679688,-4.648438 6.101562,-4 6.71875,-3.53125 c 0.613281,0.46875 1.484375,0.703125 2.609375,0.703125 1.125,0 1.992187,-0.234375 2.609375,-0.703125 0.613281,-0.46875 1.03125,-1.117188 1.25,-1.953125 0.226562,-0.84375 0.34375,-1.898437 0.34375,-3.171875 v -9.53125 h 3.328125 v 10.390625 c 0,2.554687 -0.636719,4.554687 -1.90625,6 -1.261719,1.4375 -3.136719,2.15625 -5.625,2.15625 z m 0,0"
           id="path58571" />
      </g>
    </g>
  </g>
  <g
     fill="#ffffff"
     fill-opacity="1"
     id="g58585"
     transform="translate(-661.64453,-203.95705)">
    <g
       transform="translate(753.57561,377.92664)"
       id="g58583">
      <g
         id="g58581">
        <path
           d="m 8.28125,-13.203125 c 1.238281,0 2.296875,0.308594 3.171875,0.921875 0.882813,0.605469 1.550781,1.417969 2,2.4375 0.457031,1.023438 0.6875,2.148438 0.6875,3.375 0,1.230469 -0.230469,2.355469 -0.6875,3.375 -0.449219,1.023438 -1.117187,1.839844 -2,2.453125 -0.875,0.6054688 -1.933594,0.90625 -3.171875,0.90625 -0.773438,0 -1.433594,-0.085937 -1.984375,-0.25 -0.542969,-0.164063 -1.0625,-0.429687 -1.5625,-0.796875 v 7.0625 H 1.5 v -19.265625 h 2.609375 l 0.328125,1.1875 c 0.5625,-0.46875 1.144531,-0.816406 1.75,-1.046875 0.601562,-0.238281 1.300781,-0.359375 2.09375,-0.359375 z m -0.484375,10.8125 c 0.945313,0 1.6875,-0.367187 2.21875,-1.109375 0.539063,-0.75 0.8125,-1.738281 0.8125,-2.96875 0,-1.226562 -0.273437,-2.210938 -0.8125,-2.953125 -0.53125,-0.75 -1.273437,-1.125 -2.21875,-1.125 -1.074219,0 -1.882813,0.367187 -2.421875,1.09375 -0.53125,0.730469 -0.796875,1.726563 -0.796875,2.984375 0,1.261719 0.265625,2.257812 0.796875,2.984375 0.539062,0.730469 1.347656,1.09375 2.421875,1.09375 z m 0,0"
           id="path58579" />
      </g>
    </g>
  </g>
  <g
     fill="#ffffff"
     fill-opacity="1"
     id="g58593"
     transform="translate(-661.64453,-203.95705)">
    <g
       transform="translate(768.4359,377.92664)"
       id="g58591">
      <g
         id="g58589">
        <path
           d="M 7.53125,0.265625 C 6.09375,0.265625 4.859375,-0.03125 3.828125,-0.625 2.796875,-1.226562 2.019531,-2.039062 1.5,-3.0625 0.988281,-4.082031 0.734375,-5.21875 0.734375,-6.46875 0.734375,-7.726562 0.988281,-8.875 1.5,-9.90625 2.019531,-10.9375 2.800781,-11.75 3.84375,-12.34375 4.882812,-12.945312 6.148438,-13.25 7.640625,-13.25 c 1.332031,0 2.492187,0.277344 3.484375,0.828125 l -0.265625,2.59375 c -0.9375,-0.476563 -1.90625,-0.71875 -2.90625,-0.71875 -1.230469,0 -2.195313,0.375 -2.890625,1.125 -0.6875,0.742187 -1.03125,1.726563 -1.03125,2.953125 0,1.179688 0.351562,2.152344 1.0625,2.921875 0.707031,0.773437 1.648438,1.15625 2.828125,1.15625 0.988281,0 1.976563,-0.285156 2.96875,-0.859375 l 0.28125,2.734375 c -0.46875,0.242187 -1.023437,0.4296875 -1.65625,0.5625 -0.625,0.144531 -1.289063,0.21875 -1.984375,0.21875 z m 0,0"
           id="path58587" />
      </g>
    </g>
  </g>
  <g
     fill="#ffffff"
     fill-opacity="1"
     id="g58601"
     transform="translate(-661.64453,-203.95705)">
    <g
       transform="translate(780.25659,377.92664)"
       id="g58599">
      <g
         id="g58597">
        <path
           d="m 7.40625,0.265625 c -1.367188,0 -2.554688,-0.3007812 -3.5625,-0.90625 -1,-0.613281 -1.773438,-1.429687 -2.3125,-2.453125 C 1,-4.113281 0.734375,-5.238281 0.734375,-6.46875 0.734375,-7.695312 1,-8.832031 1.53125,-9.875 c 0.539062,-1.039062 1.3125,-1.863281 2.3125,-2.46875 1.007812,-0.601562 2.195312,-0.90625 3.5625,-0.90625 1.363281,0 2.546875,0.304688 3.546875,0.90625 1.007813,0.605469 1.78125,1.429688 2.3125,2.46875 0.539063,1.042969 0.8125,2.179688 0.8125,3.40625 0,1.230469 -0.273437,2.355469 -0.8125,3.375 -0.53125,1.023438 -1.304687,1.839844 -2.3125,2.453125 -1,0.6054688 -2.183594,0.90625 -3.546875,0.90625 z m 0,-2.65625 c 1.050781,0 1.875,-0.367187 2.46875,-1.109375 0.601562,-0.75 0.90625,-1.738281 0.90625,-2.96875 0,-1.25 -0.304688,-2.25 -0.90625,-3 -0.59375,-0.757812 -1.417969,-1.140625 -2.46875,-1.140625 -1.054688,0 -1.882812,0.382813 -2.484375,1.140625 -0.59375,0.75 -0.890625,1.75 -0.890625,3 0,1.230469 0.296875,2.21875 0.890625,2.96875 0.601563,0.742188 1.429687,1.109375 2.484375,1.109375 z m 0,0"
           id="path58595" />
      </g>
    </g>
  </g>
  <g
     fill="#ffffff"
     fill-opacity="1"
     id="g58609"
     transform="translate(-661.64453,-203.95705)">
    <g
       transform="translate(795.06493,377.92664)"
       id="g58607">
      <g
         id="g58605">
        <path
           d="m 16.078125,-13.203125 c 1.738281,0 3.023437,0.527344 3.859375,1.578125 0.84375,1.042969 1.265625,2.511719 1.265625,4.40625 V 0 h -3.21875 v -6.984375 c 0,-1.226563 -0.195313,-2.128906 -0.578125,-2.703125 -0.375,-0.570312 -1,-0.859375 -1.875,-0.859375 -0.84375,0 -1.484375,0.292969 -1.921875,0.875 -0.429687,0.574219 -0.640625,1.390625 -0.640625,2.453125 V 0 H 9.75 V -6.984375 C 9.75,-8.210938 9.546875,-9.113281 9.140625,-9.6875 8.742188,-10.257812 8.113281,-10.546875 7.25,-10.546875 c -1.023438,0 -1.859375,0.371094 -2.515625,1.109375 V 0 H 1.5 v -12.984375 h 2.765625 l 0.09375,1.03125 c 1.175781,-0.832031 2.453125,-1.25 3.828125,-1.25 1.65625,0 2.894531,0.601563 3.71875,1.796875 0.445312,-0.570312 1.035156,-1.015625 1.765625,-1.328125 0.726563,-0.3125 1.53125,-0.46875 2.40625,-0.46875 z m 0,0"
           id="path58603" />
      </g>
    </g>
  </g>
  <g
     fill="#ffffff"
     fill-opacity="1"
     id="g58617"
     transform="translate(-661.64453,-203.95705)">
    <g
       transform="translate(817.64115,377.92664)"
       id="g58615">
      <g
         id="g58613">
        <path
           d="m 1.5,-18.1875 h 3.234375 v 3.21875 H 1.5 Z m 0,5.203125 H 4.734375 V 0 H 1.5 Z m 0,0"
           id="path58611" />
      </g>
    </g>
  </g>
  <g
     fill="#ffffff"
     fill-opacity="1"
     id="g58625"
     transform="translate(-661.64453,-203.95705)">
    <g
       transform="translate(823.87623,377.92664)"
       id="g58623">
      <g
         id="g58621">
        <path
           d="m 8.0625,-13.203125 c 1.601562,0 2.820312,0.539063 3.65625,1.609375 0.832031,1.074219 1.25,2.523438 1.25,4.34375 V 0 H 9.75 v -6.984375 c 0,-1.21875 -0.210938,-2.113281 -0.625,-2.6875 -0.40625,-0.582031 -1.058594,-0.875 -1.953125,-0.875 -0.992187,0 -1.804687,0.371094 -2.4375,1.109375 V 0 H 1.5 v -12.984375 h 3.015625 l 0.0625,0.90625 c 1.082031,-0.75 2.242187,-1.125 3.484375,-1.125 z m 0,0"
           id="path58619" />
      </g>
    </g>
  </g>
  <g
     fill="#ffffff"
     fill-opacity="1"
     id="g58633"
     transform="translate(-661.64453,-203.95705)">
    <g
       transform="translate(838.21693,377.92664)"
       id="g58631">
      <g
         id="g58629">
        <path
           d="m 6.65625,6.546875 c -1.84375,0 -3.3125,-0.335937 -4.40625,-1 C 1.164062,4.878906 0.625,3.972656 0.625,2.828125 c 0,-1.242187 0.703125,-2.261719 2.109375,-3.0625 -0.773437,-0.46875 -1.15625,-1.082031 -1.15625,-1.84375 0,-0.394531 0.113281,-0.75 0.34375,-1.0625 0.238281,-0.3125 0.5625,-0.5625 0.96875,-0.75 -0.667969,-0.46875 -1.167969,-1.066406 -1.5,-1.796875 -0.335937,-0.726562 -0.5,-1.523438 -0.5,-2.390625 0,-0.957031 0.203125,-1.828125 0.609375,-2.609375 0.414062,-0.789062 1.019531,-1.414062 1.8125,-1.875 0.800781,-0.457031 1.75,-0.6875 2.84375,-0.6875 1.144531,0 2.132812,0.277344 2.96875,0.828125 0.289062,-0.15625 0.679688,-0.285156 1.171875,-0.390625 0.5,-0.113281 1.035156,-0.171875 1.609375,-0.171875 h 0.828125 l -0.203125,2.015625 h -1.171875 c -0.304687,0 -0.546875,0.01172 -0.734375,0.03125 0.519531,0.792969 0.78125,1.746094 0.78125,2.859375 0,0.949219 -0.203125,1.820313 -0.609375,2.609375 -0.40625,0.792969 -1.011719,1.417969 -1.8125,1.875 -0.792969,0.460938 -1.734375,0.6875 -2.828125,0.6875 -0.398438,0 -0.855469,-0.0625 -1.375,-0.1875 C 4.59375,-3.007812 4.5,-2.867188 4.5,-2.671875 c 0,0.21875 0.128906,0.398437 0.390625,0.53125 0.269531,0.125 0.726563,0.234375 1.375,0.328125 L 8.5,-1.53125 c 2.976562,0.398438 4.46875,1.648438 4.46875,3.765625 0,1.3125 -0.5625,2.359375 -1.6875,3.140625 -1.117188,0.78125 -2.65625,1.171875 -4.625,1.171875 z m -0.5,-11.84375 c 0.75,0 1.328125,-0.242187 1.734375,-0.734375 C 8.296875,-6.53125 8.5,-7.210938 8.5,-8.078125 c 0,-0.863281 -0.203125,-1.539063 -0.609375,-2.03125 -0.40625,-0.5 -0.984375,-0.75 -1.734375,-0.75 -0.761719,0 -1.34375,0.25 -1.75,0.75 C 4,-9.617188 3.796875,-8.941406 3.796875,-8.078125 c 0,0.867187 0.203125,1.546875 0.609375,2.046875 0.40625,0.492188 0.988281,0.734375 1.75,0.734375 z m 0.625,9.40625 C 9,4.109375 10.109375,3.5625 10.109375,2.46875 10.109375,1.976562 9.914062,1.617188 9.53125,1.390625 9.15625,1.160156 8.523438,0.972656 7.640625,0.828125 L 4.78125,0.421875 c -0.992188,0.394531 -1.484375,1 -1.484375,1.8125 0,0.625 0.300781,1.09375 0.90625,1.40625 0.613281,0.3125 1.472656,0.46875 2.578125,0.46875 z m 0,0"
           id="path58627" />
      </g>
    </g>
  </g>
  <g
     fill="#ffffff"
     fill-opacity="1"
     id="g58641"
     transform="translate(-661.64453,-203.95705)">
    <g
       transform="translate(698.72862,413.90908)"
       id="g58639">
      <g
         id="g58637">
        <path
           d="M 11.4375,-4.3125 H 4.8125 L 3.296875,0 h -3.21875 l 6.46875,-18.1875 H 9.6875 L 16.15625,0 H 12.9375 Z m -1.046875,-2.90625 -2.25,-6.5 -2.296875,6.5 z m 0,0"
           id="path58635" />
      </g>
    </g>
  </g>
  <g
     fill="#ffffff"
     fill-opacity="1"
     id="g58649"
     transform="translate(-661.64453,-203.95705)">
    <g
       transform="translate(714.96582,413.90908)"
       id="g58647">
      <g
         id="g58645">
        <path
           d="m 1.5,-12.984375 h 3.015625 l 0.078125,1.375 c 0.382812,-0.4375 0.875,-0.816406 1.46875,-1.140625 0.601562,-0.332031 1.234375,-0.5 1.890625,-0.5 0.207031,0 0.394531,0.01563 0.5625,0.04687 l -0.234375,3.17188 c -0.324219,-0.08203 -0.695312,-0.125 -1.109375,-0.125 -0.542969,0 -1.039063,0.125 -1.484375,0.375 -0.449219,0.25 -0.765625,0.558594 -0.953125,0.921875 V 0 H 1.5 Z m 0,0"
           id="path58643" />
      </g>
    </g>
  </g>
  <g
     fill="#ffffff"
     fill-opacity="1"
     id="g58657"
     transform="translate(-661.64453,-203.95705)">
    <g
       transform="translate(723.53907,413.90908)"
       id="g58655">
      <g
         id="g58653">
        <path
           d="m 5.75,0.265625 c -1.148438,0 -2.015625,-0.3320312 -2.609375,-1 -0.585937,-0.664063 -0.875,-1.46875 -0.875,-2.40625 v -7.203125 h -1.84375 l 0.28125,-2.640625 h 1.5625 v -2.859375 l 3.21875,-0.34375 v 3.203125 H 8.34375 v 2.640625 H 5.484375 v 5.875 c 0,0.6875 0.035156,1.167969 0.109375,1.4375 0.082031,0.273438 0.25,0.449219 0.5,0.53125 0.25,0.074219 0.703125,0.109375 1.359375,0.109375 H 8.34375 L 8.0625,0.265625 Z m 0,0"
           id="path58651" />
      </g>
    </g>
  </g>
  <g
     fill="#ffffff"
     fill-opacity="1"
     id="g58665"
     transform="translate(-661.64453,-203.95705)">
    <g
       transform="translate(732.47603,413.90908)"
       id="g58663">
      <g
         id="g58661">
        <path
           d="m 1.5,-18.1875 h 3.234375 v 3.21875 H 1.5 Z m 0,5.203125 H 4.734375 V 0 H 1.5 Z m 0,0"
           id="path58659" />
      </g>
    </g>
  </g>
  <g
     fill="#ffffff"
     fill-opacity="1"
     id="g58673"
     transform="translate(-661.64453,-203.95705)">
    <g
       transform="translate(738.71112,413.90908)"
       id="g58671">
      <g
         id="g58669">
        <path
           d="M 5.203125,0.265625 C 4.367188,0.265625 3.609375,0.1875 2.921875,0.03125 2.234375,-0.125 1.53125,-0.367188 0.8125,-0.703125 l 0.28125,-2.75 c 0.726562,0.429687 1.40625,0.75 2.03125,0.96875 0.632812,0.21875 1.289062,0.328125 1.96875,0.328125 1.3125,0 1.96875,-0.429688 1.96875,-1.296875 0,-0.46875 -0.171875,-0.828125 -0.515625,-1.078125 -0.34375,-0.25 -0.96875,-0.550781 -1.875,-0.90625 C 3.390625,-5.894531 2.445312,-6.421875 1.84375,-7.015625 1.238281,-7.617188 0.9375,-8.429688 0.9375,-9.453125 c 0,-1.125 0.429688,-2.035156 1.296875,-2.734375 C 3.097656,-12.894531 4.269531,-13.25 5.75,-13.25 c 1.46875,0 2.804688,0.339844 4.015625,1.015625 l -0.28125,2.75 c -0.65625,-0.445313 -1.277344,-0.789063 -1.859375,-1.03125 -0.585938,-0.25 -1.195312,-0.375 -1.828125,-0.375 -0.554687,0 -0.984375,0.117187 -1.296875,0.34375 -0.304688,0.21875 -0.453125,0.539063 -0.453125,0.953125 0,0.335938 0.085937,0.605469 0.265625,0.8125 0.1875,0.210938 0.445312,0.398438 0.78125,0.5625 0.332031,0.15625 0.878906,0.386719 1.640625,0.6875 1.257813,0.480469 2.164063,1.011719 2.71875,1.59375 0.5625,0.585938 0.84375,1.359375 0.84375,2.328125 0,1.230469 -0.445313,2.183594 -1.328125,2.859375 -0.886719,0.6796875 -2.140625,1.015625 -3.765625,1.015625 z m 0,0"
           id="path58667" />
      </g>
    </g>
  </g>
  <g
     fill="#ffffff"
     fill-opacity="1"
     id="g58681"
     transform="translate(-661.64453,-203.95705)">
    <g
       transform="translate(749.70046,413.90908)"
       id="g58679">
      <g
         id="g58677">
        <path
           d="m 5.75,0.265625 c -1.148438,0 -2.015625,-0.3320312 -2.609375,-1 -0.585937,-0.664063 -0.875,-1.46875 -0.875,-2.40625 v -7.203125 h -1.84375 l 0.28125,-2.640625 h 1.5625 v -2.859375 l 3.21875,-0.34375 v 3.203125 H 8.34375 v 2.640625 H 5.484375 v 5.875 c 0,0.6875 0.035156,1.167969 0.109375,1.4375 0.082031,0.273438 0.25,0.449219 0.5,0.53125 0.25,0.074219 0.703125,0.109375 1.359375,0.109375 H 8.34375 L 8.0625,0.265625 Z m 0,0"
           id="path58675" />
      </g>
    </g>
  </g>
  <g
     fill="#ffffff"
     fill-opacity="1"
     id="g58695"
     transform="translate(-661.64453,-203.95705)">
    <g
       transform="translate(764.48282,413.90908)"
       id="g58693">
      <g
         id="g58691">
        <path
           d="m 2,-18.1875 h 11.640625 v 3.21875 H 5.40625 v 3.875 h 6.390625 V -7.875 H 5.40625 v 4.65625 h 8.5 V 0 H 2 Z m 0,0"
           id="path58689" />
      </g>
    </g>
  </g>
  <g
     fill="#ffffff"
     fill-opacity="1"
     id="g58703"
     transform="translate(-661.64453,-203.95705)">
    <g
       transform="translate(779.23919,413.90908)"
       id="g58701">
      <g
         id="g58699">
        <path
           d="M 0.078125,-12.984375 H 3.25 L 6.4375,-4 9.640625,-12.984375 H 12.8125 L 7.828125,0 H 5.0625 Z m 0,0"
           id="path58697" />
      </g>
    </g>
  </g>
  <g
     fill="#ffffff"
     fill-opacity="1"
     id="g58711"
     transform="translate(-661.64453,-203.95705)">
    <g
       transform="translate(792.12504,413.90908)"
       id="g58709">
      <g
         id="g58707">
        <path
           d="m 7.765625,0.265625 c -1.5,0 -2.789063,-0.3046875 -3.859375,-0.921875 -1.0625,-0.613281 -1.859375,-1.4375 -2.390625,-2.46875 -0.523437,-1.03125 -0.78125,-2.179688 -0.78125,-3.453125 0,-1.207031 0.25,-2.3125 0.75,-3.3125 0.5,-1.007813 1.222656,-1.8125 2.171875,-2.40625 0.957031,-0.601563 2.09375,-0.90625 3.40625,-0.90625 1.21875,0 2.242188,0.257813 3.078125,0.765625 0.84375,0.5 1.476563,1.179688 1.90625,2.03125 0.425781,0.84375 0.640625,1.792969 0.640625,2.84375 0,0.523438 -0.07422,1.109375 -0.21875,1.765625 H 4.078125 c 0.175781,1.148437 0.625,2 1.34375,2.5625 0.726563,0.5625 1.609375,0.84375 2.640625,0.84375 1.394531,0 2.691406,-0.351563 3.890625,-1.0625 l 0.15625,2.71875 C 11.554688,-0.429688 10.910156,-0.1875 10.171875,0 9.429688,0.175781 8.628906,0.265625 7.765625,0.265625 Z m 1.640625,-8.25 c 0,-0.664063 -0.195312,-1.257813 -0.578125,-1.78125 -0.375,-0.519531 -0.964844,-0.78125 -1.765625,-0.78125 -0.792969,0 -1.433594,0.234375 -1.921875,0.703125 C 4.660156,-9.375 4.332031,-8.753906 4.15625,-7.984375 Z m 0,0"
           id="path58705" />
      </g>
    </g>
  </g>
  <g
     fill="#ffffff"
     fill-opacity="1"
     id="g58719"
     transform="translate(-661.64453,-203.95705)">
    <g
       transform="translate(805.5045,413.90908)"
       id="g58717">
      <g
         id="g58715">
        <path
           d="m 8.0625,-13.203125 c 1.601562,0 2.820312,0.539063 3.65625,1.609375 0.832031,1.074219 1.25,2.523438 1.25,4.34375 V 0 H 9.75 v -6.984375 c 0,-1.21875 -0.210938,-2.113281 -0.625,-2.6875 -0.40625,-0.582031 -1.058594,-0.875 -1.953125,-0.875 -0.992187,0 -1.804687,0.371094 -2.4375,1.109375 V 0 H 1.5 v -12.984375 h 3.015625 l 0.0625,0.90625 c 1.082031,-0.75 2.242187,-1.125 3.484375,-1.125 z m 0,0"
           id="path58713" />
      </g>
    </g>
  </g>
  <g
     fill="#ffffff"
     fill-opacity="1"
     id="g58727"
     transform="translate(-661.64453,-203.95705)">
    <g
       transform="translate(819.8452,413.90908)"
       id="g58725">
      <g
         id="g58723">
        <path
           d="m 5.75,0.265625 c -1.148438,0 -2.015625,-0.3320312 -2.609375,-1 -0.585937,-0.664063 -0.875,-1.46875 -0.875,-2.40625 v -7.203125 h -1.84375 l 0.28125,-2.640625 h 1.5625 v -2.859375 l 3.21875,-0.34375 v 3.203125 H 8.34375 v 2.640625 H 5.484375 v 5.875 c 0,0.6875 0.035156,1.167969 0.109375,1.4375 0.082031,0.273438 0.25,0.449219 0.5,0.53125 0.25,0.074219 0.703125,0.109375 1.359375,0.109375 H 8.34375 L 8.0625,0.265625 Z m 0,0"
           id="path58721" />
      </g>
    </g>
  </g>
  <g
     fill="#ffffff"
     fill-opacity="1"
     id="g58735"
     transform="translate(-661.64453,-203.95705)">
    <g
       transform="translate(828.78217,413.90908)"
       id="g58733">
      <g
         id="g58731">
        <path
           d="M 5.203125,0.265625 C 4.367188,0.265625 3.609375,0.1875 2.921875,0.03125 2.234375,-0.125 1.53125,-0.367188 0.8125,-0.703125 l 0.28125,-2.75 c 0.726562,0.429687 1.40625,0.75 2.03125,0.96875 0.632812,0.21875 1.289062,0.328125 1.96875,0.328125 1.3125,0 1.96875,-0.429688 1.96875,-1.296875 0,-0.46875 -0.171875,-0.828125 -0.515625,-1.078125 -0.34375,-0.25 -0.96875,-0.550781 -1.875,-0.90625 C 3.390625,-5.894531 2.445312,-6.421875 1.84375,-7.015625 1.238281,-7.617188 0.9375,-8.429688 0.9375,-9.453125 c 0,-1.125 0.429688,-2.035156 1.296875,-2.734375 C 3.097656,-12.894531 4.269531,-13.25 5.75,-13.25 c 1.46875,0 2.804688,0.339844 4.015625,1.015625 l -0.28125,2.75 c -0.65625,-0.445313 -1.277344,-0.789063 -1.859375,-1.03125 -0.585938,-0.25 -1.195312,-0.375 -1.828125,-0.375 -0.554687,0 -0.984375,0.117187 -1.296875,0.34375 -0.304688,0.21875 -0.453125,0.539063 -0.453125,0.953125 0,0.335938 0.085937,0.605469 0.265625,0.8125 0.1875,0.210938 0.445312,0.398438 0.78125,0.5625 0.332031,0.15625 0.878906,0.386719 1.640625,0.6875 1.257813,0.480469 2.164063,1.011719 2.71875,1.59375 0.5625,0.585938 0.84375,1.359375 0.84375,2.328125 0,1.230469 -0.445313,2.183594 -1.328125,2.859375 -0.886719,0.6796875 -2.140625,1.015625 -3.765625,1.015625 z m 0,0"
           id="path58729" />
      </g>
    </g>
  </g>
</svg>
