<?xml version="1.0" encoding="UTF-8" standalone="no"?>
<svg
   width="286.60413"
   zoomAndPan="magnify"
   viewBox="0 0 214.95309 214.94923"
   height="286.59897"
   preserveAspectRatio="xMidYMid"
   version="1.0"
   id="svg59461"
   sodipodi:docname="ft_personalize.svg"
   inkscape:version="1.2.2 (732a01da63, 2022-12-09)"
   xmlns:inkscape="http://www.inkscape.org/namespaces/inkscape"
   xmlns:sodipodi="http://sodipodi.sourceforge.net/DTD/sodipodi-0.dtd"
   xmlns="http://www.w3.org/2000/svg"
   xmlns:svg="http://www.w3.org/2000/svg">
  <sodipodi:namedview
     id="namedview59463"
     pagecolor="#ffffff"
     bordercolor="#000000"
     borderopacity="0.25"
     inkscape:showpageshadow="2"
     inkscape:pageopacity="0.0"
     inkscape:pagecheckerboard="0"
     inkscape:deskcolor="#d1d1d1"
     showgrid="false"
     inkscape:zoom="2.0922146"
     inkscape:cx="77.429915"
     inkscape:cy="130.48375"
     inkscape:window-width="1920"
     inkscape:window-height="1046"
     inkscape:window-x="-11"
     inkscape:window-y="-11"
     inkscape:window-maximized="1"
     inkscape:current-layer="svg59461" />
  <defs
     id="defs55587">
    <clipPath
       id="573027dfef">
      <path
         d="M 388.14453,203.95703 H 603.09766 V 419 H 388.14453 Z m 0,0"
         clip-rule="nonzero"
         id="path55551" />
    </clipPath>
    <clipPath
       id="70be4b32d2">
      <path
         d="m 401.63672,203.95703 h 187.96484 c 7.45313,0 13.4961,6.03906 13.4961,13.49219 V 405.6875 c 0,7.45312 -6.04297,13.49609 -13.4961,13.49609 H 401.63672 c -7.45313,0 -13.49219,-6.04297 -13.49219,-13.49609 V 217.44922 c 0,-7.45313 6.03906,-13.49219 13.49219,-13.49219 z m 0,0"
         clip-rule="nonzero"
         id="path55554" />
    </clipPath>
    <clipPath
       id="28c91cc42c">
      <path
         d="m 437.39844,222.47266 h 116.1914 v 116.19531 h -116.1914 z m 0,0"
         clip-rule="nonzero"
         id="path55557" />
    </clipPath>
  </defs>
  <rect
     style="fill:#000000;stroke-width:1.23551;fill-opacity:1"
     id="rect930"
     width="215.25"
     height="215.25"
     x="0"
     y="0" />
  <g
     clip-path="url(#573027dfef)"
     id="g57351"
     inkscape:export-filename="ft_custom.svg"
     inkscape:export-xdpi="96"
     inkscape:export-ydpi="96"
     transform="translate(-388.14456,-203.95705)">
    <g
       clip-path="url(#70be4b32d2)"
       id="g57349">
      <path
         fill="#aea5a6"
         d="M 388.14453,203.95703 H 603.09766 V 418.90625 H 388.14453 Z m 0,0"
         fill-opacity="1"
         fill-rule="nonzero"
         id="path57347" />
    </g>
  </g>
  <g
     clip-path="url(#28c91cc42c)"
     id="g57355"
     transform="translate(-388.14456,-203.95705)">
    <path
       fill="#ffffff"
       d="m 495.61719,222.47266 c -32.15235,0 -58.21875,26.07031 -58.21875,58.22265 0,32.14844 26.0664,58.21875 58.21875,58.21875 5.36718,0 9.70312,-4.33594 9.70312,-9.70312 0,-2.52344 -0.9375,-4.78907 -2.52344,-6.5 -1.51953,-1.71485 -2.42578,-3.94922 -2.42578,-6.4375 0,-5.3711 4.33594,-9.70313 9.70313,-9.70313 h 11.41797 c 17.85547,0 32.34375,-14.49219 32.34375,-32.34375 0,-28.59375 -26.07032,-51.7539 -58.21875,-51.7539 z m -35.57813,58.22265 c -5.37109,0 -9.70312,-4.33594 -9.70312,-9.70312 0,-5.3711 4.33203,-9.70313 9.70312,-9.70313 5.36719,0 9.70313,4.33203 9.70313,9.70313 0,5.36718 -4.33594,9.70312 -9.70313,9.70312 z m 19.40625,-25.875 c -5.37109,0 -9.70312,-4.33594 -9.70312,-9.70312 0,-5.3711 4.33203,-9.70313 9.70312,-9.70313 5.36719,0 9.70313,4.33203 9.70313,9.70313 0,5.36718 -4.33594,9.70312 -9.70313,9.70312 z m 32.34375,0 c -5.37109,0 -9.70312,-4.33594 -9.70312,-9.70312 0,-5.3711 4.33203,-9.70313 9.70312,-9.70313 5.36719,0 9.70313,4.33203 9.70313,9.70313 0,5.36718 -4.33594,9.70312 -9.70313,9.70312 z m 19.40625,25.875 c -5.37109,0 -9.70312,-4.33594 -9.70312,-9.70312 0,-5.3711 4.33203,-9.70313 9.70312,-9.70313 5.36719,0 9.70313,4.33203 9.70313,9.70313 0,5.36718 -4.33594,9.70312 -9.70313,9.70312 z m 0,0"
       fill-opacity="1"
       fill-rule="nonzero"
       id="path57353" />
  </g>
  <g
     fill="#ffffff"
     fill-opacity="1"
     id="g57855"
     transform="translate(-388.14456,-203.95705)">
    <g
       transform="translate(406.52863,376.80254)"
       id="g57853">
      <g
         id="g57851">
        <path
           d="m 10.234375,0.359375 c -1.835937,0 -3.460937,-0.3828125 -4.875,-1.15625 -1.40625,-0.78125 -2.5,-1.882813 -3.28125,-3.3125 -0.78125,-1.4375 -1.171875,-3.097656 -1.171875,-4.984375 0,-1.875 0.398438,-3.523438 1.203125,-4.953125 0.8125,-1.425781 1.929687,-2.53125 3.359375,-3.3125 1.425781,-0.789063 3.050781,-1.1875 4.875,-1.1875 1.75,0 3.316406,0.355469 4.703125,1.0625 L 14.6875,-14.3125 c -0.75,-0.332031 -1.46875,-0.585938 -2.15625,-0.765625 -0.679688,-0.1875 -1.417969,-0.28125 -2.21875,-0.28125 -1.855469,0 -3.28125,0.574219 -4.28125,1.71875 -0.992188,1.148437 -1.484375,2.664063 -1.484375,4.546875 0,1.886719 0.488281,3.402344 1.46875,4.546875 0.976563,1.148437 2.382813,1.71875 4.21875,1.71875 0.8125,0 1.5625,-0.085937 2.25,-0.265625 0.6875,-0.175781 1.421875,-0.4375 2.203125,-0.78125 l 0.359375,3.171875 c -1.511719,0.70703125 -3.117187,1.0625 -4.8125,1.0625 z m 0,0"
           id="path57849" />
      </g>
    </g>
  </g>
  <g
     fill="#ffffff"
     fill-opacity="1"
     id="g57863"
     transform="translate(-388.14456,-203.95705)">
    <g
       transform="translate(422.35017,376.80254)"
       id="g57861">
      <g
         id="g57859">
        <path
           d="M 12.84375,-12.984375 V 0 H 9.828125 l -0.0625,-0.78125 c -0.398437,0.292969 -0.855469,0.542969 -1.375,0.75 -0.523437,0.195312 -1.023437,0.296875 -1.5,0.296875 -1.929687,0 -3.328125,-0.550781 -4.203125,-1.65625 C 1.8125,-2.503906 1.375,-4.039062 1.375,-6 v -6.984375 H 4.59375 V -6 c 0,1.210938 0.203125,2.105469 0.609375,2.6875 0.414063,0.585938 1.070313,0.875 1.96875,0.875 1,0 1.8125,-0.363281 2.4375,-1.09375 v -9.453125 z m 0,0"
           id="path57857" />
      </g>
    </g>
  </g>
  <g
     fill="#ffffff"
     fill-opacity="1"
     id="g57871"
     transform="translate(-388.14456,-203.95705)">
    <g
       transform="translate(436.69087,376.80254)"
       id="g57869">
      <g
         id="g57867">
        <path
           d="M 5.203125,0.265625 C 4.367188,0.265625 3.609375,0.1875 2.921875,0.03125 2.234375,-0.125 1.53125,-0.367188 0.8125,-0.703125 l 0.28125,-2.75 c 0.726562,0.429687 1.40625,0.75 2.03125,0.96875 0.632812,0.21875 1.289062,0.328125 1.96875,0.328125 1.3125,0 1.96875,-0.429688 1.96875,-1.296875 0,-0.46875 -0.171875,-0.828125 -0.515625,-1.078125 -0.34375,-0.25 -0.96875,-0.550781 -1.875,-0.90625 C 3.390625,-5.894531 2.445312,-6.421875 1.84375,-7.015625 1.238281,-7.617188 0.9375,-8.429688 0.9375,-9.453125 c 0,-1.125 0.429688,-2.035156 1.296875,-2.734375 C 3.097656,-12.894531 4.269531,-13.25 5.75,-13.25 c 1.46875,0 2.804688,0.339844 4.015625,1.015625 l -0.28125,2.75 c -0.65625,-0.445313 -1.277344,-0.789063 -1.859375,-1.03125 -0.585938,-0.25 -1.195312,-0.375 -1.828125,-0.375 -0.554687,0 -0.984375,0.117187 -1.296875,0.34375 -0.304688,0.21875 -0.453125,0.539063 -0.453125,0.953125 0,0.335938 0.085937,0.605469 0.265625,0.8125 0.1875,0.210938 0.445312,0.398438 0.78125,0.5625 0.332031,0.15625 0.878906,0.386719 1.640625,0.6875 1.257813,0.480469 2.164063,1.011719 2.71875,1.59375 0.5625,0.585938 0.84375,1.359375 0.84375,2.328125 0,1.230469 -0.445313,2.183594 -1.328125,2.859375 -0.886719,0.6796875 -2.140625,1.015625 -3.765625,1.015625 z m 0,0"
           id="path57865" />
      </g>
    </g>
  </g>
  <g
     fill="#ffffff"
     fill-opacity="1"
     id="g57879"
     transform="translate(-388.14456,-203.95705)">
    <g
       transform="translate(447.68021,376.80254)"
       id="g57877">
      <g
         id="g57875">
        <path
           d="m 5.75,0.265625 c -1.148438,0 -2.015625,-0.3320312 -2.609375,-1 -0.585937,-0.664063 -0.875,-1.46875 -0.875,-2.40625 v -7.203125 h -1.84375 l 0.28125,-2.640625 h 1.5625 v -2.859375 l 3.21875,-0.34375 v 3.203125 H 8.34375 v 2.640625 H 5.484375 v 5.875 c 0,0.6875 0.035156,1.167969 0.109375,1.4375 0.082031,0.273438 0.25,0.449219 0.5,0.53125 0.25,0.074219 0.703125,0.109375 1.359375,0.109375 H 8.34375 L 8.0625,0.265625 Z m 0,0"
           id="path57873" />
      </g>
    </g>
  </g>
  <g
     fill="#ffffff"
     fill-opacity="1"
     id="g57887"
     transform="translate(-388.14456,-203.95705)">
    <g
       transform="translate(456.61717,376.80254)"
       id="g57885">
      <g
         id="g57883">
        <path
           d="m 7.40625,0.265625 c -1.367188,0 -2.554688,-0.3007812 -3.5625,-0.90625 -1,-0.613281 -1.773438,-1.429687 -2.3125,-2.453125 C 1,-4.113281 0.734375,-5.238281 0.734375,-6.46875 0.734375,-7.695312 1,-8.832031 1.53125,-9.875 c 0.539062,-1.039062 1.3125,-1.863281 2.3125,-2.46875 1.007812,-0.601562 2.195312,-0.90625 3.5625,-0.90625 1.363281,0 2.546875,0.304688 3.546875,0.90625 1.007813,0.605469 1.78125,1.429688 2.3125,2.46875 0.539063,1.042969 0.8125,2.179688 0.8125,3.40625 0,1.230469 -0.273437,2.355469 -0.8125,3.375 -0.53125,1.023438 -1.304687,1.839844 -2.3125,2.453125 -1,0.6054688 -2.183594,0.90625 -3.546875,0.90625 z m 0,-2.65625 c 1.050781,0 1.875,-0.367187 2.46875,-1.109375 0.601562,-0.75 0.90625,-1.738281 0.90625,-2.96875 0,-1.25 -0.304688,-2.25 -0.90625,-3 -0.59375,-0.757812 -1.417969,-1.140625 -2.46875,-1.140625 -1.054688,0 -1.882812,0.382813 -2.484375,1.140625 -0.59375,0.75 -0.890625,1.75 -0.890625,3 0,1.230469 0.296875,2.21875 0.890625,2.96875 0.601563,0.742188 1.429687,1.109375 2.484375,1.109375 z m 0,0"
           id="path57881" />
      </g>
    </g>
  </g>
  <g
     fill="#ffffff"
     fill-opacity="1"
     id="g57895"
     transform="translate(-388.14456,-203.95705)">
    <g
       transform="translate(471.42551,376.80254)"
       id="g57893">
      <g
         id="g57891">
        <path
           d="m 16.078125,-13.203125 c 1.738281,0 3.023437,0.527344 3.859375,1.578125 0.84375,1.042969 1.265625,2.511719 1.265625,4.40625 V 0 h -3.21875 v -6.984375 c 0,-1.226563 -0.195313,-2.128906 -0.578125,-2.703125 -0.375,-0.570312 -1,-0.859375 -1.875,-0.859375 -0.84375,0 -1.484375,0.292969 -1.921875,0.875 -0.429687,0.574219 -0.640625,1.390625 -0.640625,2.453125 V 0 H 9.75 V -6.984375 C 9.75,-8.210938 9.546875,-9.113281 9.140625,-9.6875 8.742188,-10.257812 8.113281,-10.546875 7.25,-10.546875 c -1.023438,0 -1.859375,0.371094 -2.515625,1.109375 V 0 H 1.5 v -12.984375 h 2.765625 l 0.09375,1.03125 c 1.175781,-0.832031 2.453125,-1.25 3.828125,-1.25 1.65625,0 2.894531,0.601563 3.71875,1.796875 0.445312,-0.570312 1.035156,-1.015625 1.765625,-1.328125 0.726563,-0.3125 1.53125,-0.46875 2.40625,-0.46875 z m 0,0"
           id="path57889" />
      </g>
    </g>
  </g>
  <g
     fill="#ffffff"
     fill-opacity="1"
     id="g57903"
     transform="translate(-388.14456,-203.95705)">
    <g
       transform="translate(494.00173,376.80254)"
       id="g57901">
      <g
         id="g57899">
        <path
           d="m 1.5,-18.1875 h 3.234375 v 3.21875 H 1.5 Z m 0,5.203125 H 4.734375 V 0 H 1.5 Z m 0,0"
           id="path57897" />
      </g>
    </g>
  </g>
  <g
     fill="#ffffff"
     fill-opacity="1"
     id="g57911"
     transform="translate(-388.14456,-203.95705)">
    <g
       transform="translate(500.23682,376.80254)"
       id="g57909">
      <g
         id="g57907">
        <path
           d="M 11.875,-2.734375 V 0 H 0.46875 l 6.3125,-10.265625 H 1.0625 v -2.71875 h 10.765625 l -6.3125,10.25 z m 0,0"
           id="path57905" />
      </g>
    </g>
  </g>
  <g
     fill="#ffffff"
     fill-opacity="1"
     id="g57919"
     transform="translate(-388.14456,-203.95705)">
    <g
       transform="translate(512.49916,376.80254)"
       id="g57917">
      <g
         id="g57915">
        <path
           d="m 7.765625,0.265625 c -1.5,0 -2.789063,-0.3046875 -3.859375,-0.921875 -1.0625,-0.613281 -1.859375,-1.4375 -2.390625,-2.46875 -0.523437,-1.03125 -0.78125,-2.179688 -0.78125,-3.453125 0,-1.207031 0.25,-2.3125 0.75,-3.3125 0.5,-1.007813 1.222656,-1.8125 2.171875,-2.40625 0.957031,-0.601563 2.09375,-0.90625 3.40625,-0.90625 1.21875,0 2.242188,0.257813 3.078125,0.765625 0.84375,0.5 1.476563,1.179688 1.90625,2.03125 0.425781,0.84375 0.640625,1.792969 0.640625,2.84375 0,0.523438 -0.07422,1.109375 -0.21875,1.765625 H 4.078125 c 0.175781,1.148437 0.625,2 1.34375,2.5625 0.726563,0.5625 1.609375,0.84375 2.640625,0.84375 1.394531,0 2.691406,-0.351563 3.890625,-1.0625 l 0.15625,2.71875 C 11.554688,-0.429688 10.910156,-0.1875 10.171875,0 9.429688,0.175781 8.628906,0.265625 7.765625,0.265625 Z m 1.640625,-8.25 c 0,-0.664063 -0.195312,-1.257813 -0.578125,-1.78125 -0.375,-0.519531 -0.964844,-0.78125 -1.765625,-0.78125 -0.792969,0 -1.433594,0.234375 -1.921875,0.703125 C 4.660156,-9.375 4.332031,-8.753906 4.15625,-7.984375 Z m 0,0"
           id="path57913" />
      </g>
    </g>
  </g>
  <g
     fill="#ffffff"
     fill-opacity="1"
     id="g57933"
     transform="translate(-388.14456,-203.95705)">
    <g
       transform="translate(531.72402,376.80254)"
       id="g57931">
      <g
         id="g57929">
        <path
           d="m 5.4375,-0.859375 -5.40625,-12.125 H 3.609375 L 6.9375,-4.625 l 3.375,-8.359375 h 3.59375 L 5.765625,6.28125 h -3.21875 z m 0,0"
           id="path57927" />
      </g>
    </g>
  </g>
  <g
     fill="#ffffff"
     fill-opacity="1"
     id="g57941"
     transform="translate(-388.14456,-203.95705)">
    <g
       transform="translate(545.67503,376.80254)"
       id="g57939">
      <g
         id="g57937">
        <path
           d="m 7.40625,0.265625 c -1.367188,0 -2.554688,-0.3007812 -3.5625,-0.90625 -1,-0.613281 -1.773438,-1.429687 -2.3125,-2.453125 C 1,-4.113281 0.734375,-5.238281 0.734375,-6.46875 0.734375,-7.695312 1,-8.832031 1.53125,-9.875 c 0.539062,-1.039062 1.3125,-1.863281 2.3125,-2.46875 1.007812,-0.601562 2.195312,-0.90625 3.5625,-0.90625 1.363281,0 2.546875,0.304688 3.546875,0.90625 1.007813,0.605469 1.78125,1.429688 2.3125,2.46875 0.539063,1.042969 0.8125,2.179688 0.8125,3.40625 0,1.230469 -0.273437,2.355469 -0.8125,3.375 -0.53125,1.023438 -1.304687,1.839844 -2.3125,2.453125 -1,0.6054688 -2.183594,0.90625 -3.546875,0.90625 z m 0,-2.65625 c 1.050781,0 1.875,-0.367187 2.46875,-1.109375 0.601562,-0.75 0.90625,-1.738281 0.90625,-2.96875 0,-1.25 -0.304688,-2.25 -0.90625,-3 -0.59375,-0.757812 -1.417969,-1.140625 -2.46875,-1.140625 -1.054688,0 -1.882812,0.382813 -2.484375,1.140625 -0.59375,0.75 -0.890625,1.75 -0.890625,3 0,1.230469 0.296875,2.21875 0.890625,2.96875 0.601563,0.742188 1.429687,1.109375 2.484375,1.109375 z m 0,0"
           id="path57935" />
      </g>
    </g>
  </g>
  <g
     fill="#ffffff"
     fill-opacity="1"
     id="g57949"
     transform="translate(-388.14456,-203.95705)">
    <g
       transform="translate(560.48338,376.80254)"
       id="g57947">
      <g
         id="g57945">
        <path
           d="M 12.84375,-12.984375 V 0 H 9.828125 l -0.0625,-0.78125 c -0.398437,0.292969 -0.855469,0.542969 -1.375,0.75 -0.523437,0.195312 -1.023437,0.296875 -1.5,0.296875 -1.929687,0 -3.328125,-0.550781 -4.203125,-1.65625 C 1.8125,-2.503906 1.375,-4.039062 1.375,-6 v -6.984375 H 4.59375 V -6 c 0,1.210938 0.203125,2.105469 0.609375,2.6875 0.414063,0.585938 1.070313,0.875 1.96875,0.875 1,0 1.8125,-0.363281 2.4375,-1.09375 v -9.453125 z m 0,0"
           id="path57943" />
      </g>
    </g>
  </g>
  <g
     fill="#ffffff"
     fill-opacity="1"
     id="g57957"
     transform="translate(-388.14456,-203.95705)">
    <g
       transform="translate(574.82407,376.80254)"
       id="g57955">
      <g
         id="g57953">
        <path
           d="m 1.5,-12.984375 h 3.015625 l 0.078125,1.375 c 0.382812,-0.4375 0.875,-0.816406 1.46875,-1.140625 0.601562,-0.332031 1.234375,-0.5 1.890625,-0.5 0.207031,0 0.394531,0.01563 0.5625,0.04687 l -0.234375,3.17188 c -0.324219,-0.08203 -0.695312,-0.125 -1.109375,-0.125 -0.542969,0 -1.039063,0.125 -1.484375,0.375 -0.449219,0.25 -0.765625,0.558594 -0.953125,0.921875 V 0 H 1.5 Z m 0,0"
           id="path57951" />
      </g>
    </g>
  </g>
  <g
     fill="#ffffff"
     fill-opacity="1"
     id="g57965"
     transform="translate(-388.14456,-203.95705)">
    <g
       transform="translate(457.89028,412.78498)"
       id="g57963">
      <g
         id="g57961">
        <path
           d="m 2,-18.1875 h 6.46875 c 4.3125,0 6.46875,1.960938 6.46875,5.875 0,2.023438 -0.546875,3.527344 -1.640625,4.515625 -1.085937,0.992187 -2.667969,1.484375 -4.75,1.484375 H 5.328125 V 0 H 2 Z m 6.15625,9.09375 c 1.144531,0 2,-0.257812 2.5625,-0.78125 0.5625,-0.519531 0.84375,-1.316406 0.84375,-2.390625 0,-1.070313 -0.289062,-1.863281 -0.859375,-2.375 -0.574219,-0.507813 -1.449219,-0.765625 -2.625,-0.765625 h -2.75 v 6.3125 z m 0,0"
           id="path57959" />
      </g>
    </g>
  </g>
  <g
     fill="#ffffff"
     fill-opacity="1"
     id="g57973"
     transform="translate(-388.14456,-203.95705)">
    <g
       transform="translate(473.37409,412.78498)"
       id="g57971">
      <g
         id="g57969">
        <path
           d="m 1.5,-12.984375 h 3.015625 l 0.078125,1.375 c 0.382812,-0.4375 0.875,-0.816406 1.46875,-1.140625 0.601562,-0.332031 1.234375,-0.5 1.890625,-0.5 0.207031,0 0.394531,0.01563 0.5625,0.04687 l -0.234375,3.17188 c -0.324219,-0.08203 -0.695312,-0.125 -1.109375,-0.125 -0.542969,0 -1.039063,0.125 -1.484375,0.375 -0.449219,0.25 -0.765625,0.558594 -0.953125,0.921875 V 0 H 1.5 Z m 0,0"
           id="path57967" />
      </g>
    </g>
  </g>
  <g
     fill="#ffffff"
     fill-opacity="1"
     id="g57981"
     transform="translate(-388.14456,-203.95705)">
    <g
       transform="translate(481.94733,412.78498)"
       id="g57979">
      <g
         id="g57977">
        <path
           d="m 7.40625,0.265625 c -1.367188,0 -2.554688,-0.3007812 -3.5625,-0.90625 -1,-0.613281 -1.773438,-1.429687 -2.3125,-2.453125 C 1,-4.113281 0.734375,-5.238281 0.734375,-6.46875 0.734375,-7.695312 1,-8.832031 1.53125,-9.875 c 0.539062,-1.039062 1.3125,-1.863281 2.3125,-2.46875 1.007812,-0.601562 2.195312,-0.90625 3.5625,-0.90625 1.363281,0 2.546875,0.304688 3.546875,0.90625 1.007813,0.605469 1.78125,1.429688 2.3125,2.46875 0.539063,1.042969 0.8125,2.179688 0.8125,3.40625 0,1.230469 -0.273437,2.355469 -0.8125,3.375 -0.53125,1.023438 -1.304687,1.839844 -2.3125,2.453125 -1,0.6054688 -2.183594,0.90625 -3.546875,0.90625 z m 0,-2.65625 c 1.050781,0 1.875,-0.367187 2.46875,-1.109375 0.601562,-0.75 0.90625,-1.738281 0.90625,-2.96875 0,-1.25 -0.304688,-2.25 -0.90625,-3 -0.59375,-0.757812 -1.417969,-1.140625 -2.46875,-1.140625 -1.054688,0 -1.882812,0.382813 -2.484375,1.140625 -0.59375,0.75 -0.890625,1.75 -0.890625,3 0,1.230469 0.296875,2.21875 0.890625,2.96875 0.601563,0.742188 1.429687,1.109375 2.484375,1.109375 z m 0,0"
           id="path57975" />
      </g>
    </g>
  </g>
  <g
     fill="#ffffff"
     fill-opacity="1"
     id="g57989"
     transform="translate(-388.14456,-203.95705)">
    <g
       transform="translate(496.75567,412.78498)"
       id="g57987">
      <g
         id="g57985">
        <path
           d="M 2.28125,-10.34375 H 0.4375 l 0.296875,-2.640625 H 2.28125 V -15.75 c 0,-1.15625 0.34375,-2.066406 1.03125,-2.734375 0.6875,-0.664063 1.660156,-1 2.921875,-1 0.707031,0 1.410156,0.07813 2.109375,0.234375 l -0.28125,2.59375 c -0.304688,-0.08203 -0.640625,-0.125 -1.015625,-0.125 -1.023437,0 -1.53125,0.539062 -1.53125,1.609375 v 2.1875 h 2.84375 v 2.640625 H 5.515625 V 0 H 2.28125 Z m 0,0"
           id="path57983" />
      </g>
    </g>
  </g>
  <g
     fill="#ffffff"
     fill-opacity="1"
     id="g57997"
     transform="translate(-388.14456,-203.95705)">
    <g
       transform="translate(505.58871,412.78498)"
       id="g57995">
      <g
         id="g57993">
        <path
           d="m 1.5,-18.1875 h 3.234375 v 3.21875 H 1.5 Z m 0,5.203125 H 4.734375 V 0 H 1.5 Z m 0,0"
           id="path57991" />
      </g>
    </g>
  </g>
  <g
     fill="#ffffff"
     fill-opacity="1"
     id="g58005"
     transform="translate(-388.14456,-203.95705)">
    <g
       transform="translate(511.8238,412.78498)"
       id="g58003">
      <g
         id="g58001">
        <path
           d="m 4.828125,0.265625 c -1.105469,0 -1.9375,-0.3164062 -2.5,-0.953125 C 1.773438,-1.320312 1.5,-2.140625 1.5,-3.140625 v -16.34375 H 4.734375 V -4.46875 c 0,0.6875 0.035156,1.179688 0.109375,1.46875 0.082031,0.28125 0.222656,0.453125 0.421875,0.515625 0.195313,0.0625 0.535156,0.09375 1.015625,0.09375 L 6,0.265625 Z m 0,0"
           id="path57999" />
      </g>
    </g>
  </g>
  <g
     fill="#ffffff"
     fill-opacity="1"
     id="g58013"
     transform="translate(-388.14456,-203.95705)">
    <g
       transform="translate(518.65642,412.78498)"
       id="g58011">
      <g
         id="g58009">
        <path
           d="m 7.765625,0.265625 c -1.5,0 -2.789063,-0.3046875 -3.859375,-0.921875 -1.0625,-0.613281 -1.859375,-1.4375 -2.390625,-2.46875 -0.523437,-1.03125 -0.78125,-2.179688 -0.78125,-3.453125 0,-1.207031 0.25,-2.3125 0.75,-3.3125 0.5,-1.007813 1.222656,-1.8125 2.171875,-2.40625 0.957031,-0.601563 2.09375,-0.90625 3.40625,-0.90625 1.21875,0 2.242188,0.257813 3.078125,0.765625 0.84375,0.5 1.476563,1.179688 1.90625,2.03125 0.425781,0.84375 0.640625,1.792969 0.640625,2.84375 0,0.523438 -0.07422,1.109375 -0.21875,1.765625 H 4.078125 c 0.175781,1.148437 0.625,2 1.34375,2.5625 0.726563,0.5625 1.609375,0.84375 2.640625,0.84375 1.394531,0 2.691406,-0.351563 3.890625,-1.0625 l 0.15625,2.71875 C 11.554688,-0.429688 10.910156,-0.1875 10.171875,0 9.429688,0.175781 8.628906,0.265625 7.765625,0.265625 Z m 1.640625,-8.25 c 0,-0.664063 -0.195312,-1.257813 -0.578125,-1.78125 -0.375,-0.519531 -0.964844,-0.78125 -1.765625,-0.78125 -0.792969,0 -1.433594,0.234375 -1.921875,0.703125 C 4.660156,-9.375 4.332031,-8.753906 4.15625,-7.984375 Z m 0,0"
           id="path58007" />
      </g>
    </g>
  </g>
</svg>
