<?xml version="1.0" encoding="UTF-8" standalone="no"?>
<!-- Created with Inkscape (http://www.inkscape.org/) -->

<svg
   width="21.739767mm"
   height="27.64362mm"
   viewBox="0 0 21.739767 27.64362"
   version="1.1"
   id="svg4201"
   xmlns="http://www.w3.org/2000/svg"
   xmlns:svg="http://www.w3.org/2000/svg">
  <defs
     id="defs4198">
    <clipPath
       id="82af5c65c3">
      <path
         d="m 256.32812,110.94141 h 40.97657 v 14.71875 h -40.97657 z m 0,0"
         clip-rule="nonzero"
         id="path2022" />
    </clipPath>
    <clipPath
       id="632c614e23">
      <path
         d="m 259.32812,118.82422 c 15.11329,-2.07031 27.21875,-4.0625 30.89063,-5.74219 1.40234,-0.66406 1.75391,-1.75781 2.65234,-2.03125 0.70313,-0.19531 1.5625,-0.11719 2.1875,0.15625 0.66407,0.23438 1.36719,0.9375 1.71875,1.40625 0.23438,0.35156 0.3125,0.70313 0.39063,1.05469 0.0781,0.39062 0.15625,0.70312 0.0781,1.13281 -0.11718,0.58594 -0.58593,1.5625 -0.97656,2.03125 -0.23437,0.3125 -0.50781,0.50781 -0.89844,0.66406 -0.54687,0.23438 -1.5625,0.39063 -2.1875,0.35157 -0.42968,-0.0391 -0.70312,-0.15625 -1.05468,-0.35157 -0.50782,-0.35156 -1.21094,-1.13281 -1.51954,-1.64062 -0.19531,-0.35156 -0.27343,-0.66406 -0.27343,-1.09375 -0.0391,-0.58594 0.11718,-1.5625 0.46875,-2.14844 0.34765,-0.625 1.05078,-1.17187 1.71484,-1.44531 0.625,-0.23438 1.60156,-0.23438 2.1875,-0.11719 0.42969,0.0781 0.70313,0.23438 1.01563,0.50781 0.46875,0.35157 1.13281,1.21094 1.36718,1.75782 0.15625,0.39062 0.19532,0.70312 0.15625,1.09375 -0.0391,0.625 -0.27343,1.44531 -0.70312,2.10937 -0.58594,0.89844 -1.28906,1.75781 -2.85156,2.57813 -4.01954,2.0664 -17.92188,4.09765 -24.13282,5.1914 -3.82422,0.66407 -7.26172,1.40625 -9.33203,1.28907 -1.05469,-0.0391 -1.75781,-0.11719 -2.38281,-0.54688 -0.625,-0.42969 -1.17188,-1.32812 -1.36719,-1.99219 -0.19531,-0.54687 -0.15625,-1.09375 -0.0391,-1.64062 0.15625,-0.50391 0.35156,-1.01172 0.78125,-1.44141 0.46875,-0.46875 2.10937,-1.13281 2.10937,-1.13281"
         clip-rule="nonzero"
         id="path2025" />
    </clipPath>
    <clipPath
       id="d61b6d50cb">
      <path
         d="m 271.4375,104.57813 h 26.35156 v 53.26953 H 271.4375 Z m 0,0"
         clip-rule="nonzero"
         id="path2028" />
    </clipPath>
    <clipPath
       id="c2ae658b8f">
      <path
         d="m 278.77344,108.28125 c -0.3086,10.30859 0.39062,18.42969 1.17187,22.92187 0.50781,3.04297 1.17188,5.34766 1.95313,7.61329 0.625,1.91406 1.21093,3.35937 2.07031,5.07812 0.9375,1.91406 1.91406,4.99609 3.4375,5.85547 1.21094,0.66406 4.05859,-0.54688 4.29297,-0.0781 0.19531,0.42969 -1.67578,2.34375 -1.83203,2.26563 -0.11719,-0.0781 0.35156,-1.75781 0.82031,-2.34375 0.46484,-0.625 1.44141,-1.17188 2.06641,-1.40625 0.46875,-0.15625 0.78125,-0.19531 1.25,-0.11719 0.66406,0.0781 1.71875,0.42969 2.30468,0.9375 0.58594,0.50781 1.09375,1.48438 1.28907,2.14844 0.11718,0.42969 0.0781,0.82031 0.0391,1.25 -0.0391,0.39062 -0.11719,0.78125 -0.35156,1.21094 -0.3125,0.58593 -1.13282,1.44531 -1.71875,1.79687 -0.39063,0.23438 -0.70313,0.35156 -1.17188,0.39063 -0.70312,0.0391 -1.79687,-0.0391 -2.46094,-0.42969 -0.70312,-0.35156 -1.36328,-1.09375 -1.71484,-1.79688 -0.3125,-0.74218 -0.42969,-1.71875 -0.23438,-2.5 0.15625,-0.74218 0.82032,-1.64062 1.28516,-2.10937 0.35156,-0.35156 0.625,-0.50781 1.09375,-0.625 0.625,-0.19531 1.83594,-0.27344 2.5,-0.11719 0.42969,0.0781 0.74219,0.23438 1.13281,0.50781 0.50782,0.42969 1.21094,1.40625 1.48438,1.99219 0.19531,0.46875 0.35156,0.74219 0.19531,1.25 -0.39062,1.17188 -3.00781,4.10156 -4.72656,5.03906 -1.44531,0.74219 -3.08203,0.85938 -4.56641,0.66407 -1.60156,-0.19532 -3.20312,-0.78125 -4.6875,-2.07032 -2.14844,-1.83593 -4.49219,-6.48437 -5.89453,-9.29687 -1.05469,-2.14453 -1.48437,-3.70703 -2.14844,-5.85547 -0.78125,-2.53906 -1.60156,-5.03906 -2.22656,-8.43359 -0.89844,-4.84375 -1.83594,-13.66797 -1.91406,-18.1211 -0.0391,-2.53906 0.0391,-4.60937 0.42969,-6.08984 0.23437,-0.9375 0.54687,-1.67969 1.01562,-2.22656 0.39063,-0.39063 0.85938,-0.70313 1.40625,-0.82031 0.66406,-0.15625 1.71875,-0.15625 2.42188,0.15625 0.70312,0.3125 1.36718,1.13281 1.71484,1.71875 0.23437,0.50781 0.27344,1.64062 0.27344,1.64062"
         clip-rule="nonzero"
         id="path2031" />
    </clipPath>
    <clipPath
       id="d08c211ff6">
      <path
         d="M 304.77344,79.351562 H 318 v 44.882818 h -13.22656 z m 0,0"
         clip-rule="nonzero"
         id="path2034" />
    </clipPath>
    <clipPath
       id="b5c5671b36">
      <path
         d="m 304.81641,120.26172 c 1.44531,-10.46484 4.52734,-22.101564 5.30859,-28.191408 0.54687,-4.023437 -0.11719,-8.125 0.625,-10.15625 0.39062,-1.011718 0.89844,-1.597656 1.60156,-1.988281 0.66406,-0.429687 1.71875,-0.625 2.5,-0.46875 0.78125,0.15625 1.71875,0.78125 2.1875,1.328125 0.42969,0.429688 0.58594,0.9375 0.74219,1.558594 0.19531,0.859375 0.23437,2.226562 0.11719,3.203125 -0.11719,0.78125 -0.39063,1.640625 -0.70313,2.1875 -0.23437,0.351563 -0.46875,0.585937 -0.85937,0.820313 -0.54688,0.3125 -1.48438,0.664062 -2.22657,0.625 -0.70312,-0.03906 -1.60156,-0.351563 -2.14843,-0.820313 -0.54688,-0.46875 -1.01563,-1.367187 -1.21094,-1.953125 -0.15625,-0.429688 -0.15625,-0.742188 -0.0781,-1.171875 0.11719,-0.625 0.42969,-1.5625 0.9375,-2.109375 0.50782,-0.546875 1.44532,-0.9375 2.03125,-1.132812 0.42969,-0.07813 0.74219,-0.07813 1.17188,0 0.58594,0.15625 1.60156,0.664062 2.07031,1.054687 0.3125,0.3125 0.50781,0.546875 0.66406,0.976563 0.19532,0.585937 0.42969,1.5625 0.27344,2.304687 -0.15625,0.703125 -0.74219,1.523437 -1.17187,1.992187 -0.3125,0.3125 -0.625,0.46875 -1.01563,0.585938 -0.35156,0.15625 -0.66406,0.273438 -1.13281,0.273438 -0.625,0 -1.60156,-0.195313 -2.22656,-0.585938 -0.625,-0.390625 -1.13282,-1.015625 -1.40625,-1.835938 -0.42969,-1.171874 -0.50782,-3.632812 -0.11719,-4.84375 0.3125,-0.855468 0.97656,-1.597656 1.60156,-1.988281 0.46875,-0.351562 1.05469,-0.507812 1.64063,-0.507812 0.74218,0 1.83593,0.3125 2.46093,0.742187 0.46875,0.351563 0.82032,0.859375 1.05469,1.367188 0.23438,0.503906 0.27344,0.894531 0.3125,1.675781 0.0781,1.953125 -0.42969,5.820313 -1.01562,10 -1.01563,7.144535 -3.35938,24.953125 -5.19532,28.777345 -0.54687,1.09375 -0.97656,1.48437 -1.67968,1.875 -0.66407,0.35156 -1.71875,0.46875 -2.46094,0.27344 -0.77734,-0.19532 -1.63672,-0.78125 -2.06641,-1.40625 -0.42968,-0.66407 -0.58593,-2.46094 -0.58593,-2.46094"
         clip-rule="nonzero"
         id="path2037" />
    </clipPath>
    <clipPath
       id="b998cb626e">
      <path
         d="m 298.05469,124.98828 h 12.23047 v 21.23438 h -12.23047 z m 0,0"
         clip-rule="nonzero"
         id="path2040" />
    </clipPath>
    <clipPath
       id="ec6a0fe7bb">
      <path
         d="m 306.73437,133.375 c -2.23828,2.80469 -1.92968,7.25781 -2.42187,9.19531 -0.33594,1.25781 -0.82813,2.22656 -1.31641,2.85547 -0.42968,0.48438 -0.94922,0.67969 -1.4414,0.77344 -0.48828,0.0508 -1.01172,0 -1.5,-0.33594 -0.58203,-0.4375 -1.32032,-1.45312 -1.625,-2.42187 -0.3086,-1.01563 -0.42969,-2.27344 -0.21485,-3.53516 0.30469,-1.83594 1.625,-4.40234 2.63672,-6.05078 0.85547,-1.44922 2.87891,-3 2.84766,-3.48438 -0.0312,-0.1914 -0.39844,-0.0977 -0.45703,-0.28906 -0.0937,-0.24219 0.0273,-0.82422 0.15234,-1.25781 0.15234,-0.67969 0.48828,-1.59766 0.88672,-2.17969 0.37109,-0.58203 0.85937,-1.11328 1.41016,-1.30859 0.67578,-0.23828 1.77734,-0.0937 2.42187,0.33984 0.52344,0.33985 0.94922,0.8711 1.25781,1.59766 0.36719,0.92187 0.94922,2.5664 0.67188,3.67968 -0.42578,1.74219 -3.73828,4.55079 -4.71875,4.55079 -0.42969,0 -0.64453,-0.4375 -0.94922,-0.92188 -0.39844,-0.67578 -0.91797,-2.07812 -1.07422,-2.95312 -0.12109,-0.62891 -0.15234,-1.11329 -0.0586,-1.74219 0.12109,-0.91797 0.45703,-2.32031 0.94922,-3.09766 0.48828,-0.82031 1.25781,-1.45312 1.92968,-1.59765 0.67578,-0.14453 1.625,0.24218 2.14453,0.6289 0.39844,0.24219 0.64454,0.63282 0.89063,1.06641 0.24609,0.38672 0.46094,0.82422 0.61328,1.45312 0.18359,0.8711 0.33594,2.3711 0.18359,3.4375 -0.15234,1.0625 -0.73437,2.27344 -1.13281,2.90235 -0.30859,0.48437 -0.55469,0.72656 -0.95312,0.87109 -0.58203,0.29297 -1.53125,0.48438 -2.20703,0.14453 -0.64063,-0.28906 -1.37891,-1.0625 -1.77735,-1.98437 -0.39844,-0.8711 -0.61328,-2.32422 -0.67187,-3.24219 -0.0312,-0.67578 0.0312,-1.11328 0.21484,-1.74219 0.21484,-0.82422 0.76563,-2.08203 1.31641,-2.71093 0.58203,-0.58204 2.02343,-1.16016 2.11328,-0.8711 0.15625,0.38672 -3.3711,5.22656 -3.61328,4.9375 -0.15625,-0.14453 0.21484,-1.74219 0.51953,-2.42187 0.27734,-0.72657 0.70312,-1.40235 1.16406,-1.78907 0.46094,-0.4375 1.04297,-0.67968 1.5625,-0.72656 0.55469,-0.0469 1.13672,0.14453 1.625,0.53125 0.46094,0.33985 0.94922,0.8711 1.25781,1.59766 0.36719,0.92187 0.55078,3.72656 0.67188,3.67968 0.0937,0 0.0937,-2.66406 0.0937,-2.66406 0,0 0.36719,5.03516 -0.33594,7.21485 -0.89062,2.71093 -4.32422,5.1289 -5.48828,7.0664 -0.67188,1.06641 -0.73438,2.22656 -1.31641,2.85547 -0.58203,0.58203 -1.5039,0.92188 -2.20703,0.72656 -0.67578,-0.14453 -1.5039,-0.87109 -1.96094,-1.69531 -0.42968,-0.87109 -0.73828,-2.17578 -0.73828,-3.33984 0.0312,-1.40235 0.76953,-2.85547 1.10547,-4.45313 0.33594,-1.83984 0.30469,-4.35547 0.88672,-6.05078 0.55469,-1.59766 1.53516,-3 2.45313,-3.92187 0.89062,-0.91797 2.11718,-1.74219 2.97265,-1.69141 0.70703,0 1.41016,0.57813 1.8711,1.16016 0.36718,0.48437 0.58203,1.11328 0.73437,1.79297 0.15234,0.6289 0.18359,1.40234 0.125,2.08203 -0.0625,0.67578 -0.24609,1.40234 -0.49219,1.98437 -0.24609,0.53125 -1.01172,1.35547 -1.01172,1.35547"
         clip-rule="nonzero"
         id="path2043" />
    </clipPath>
  </defs>
  <g
     id="layer1"
     transform="translate(-28.554915,-11.066885)">
    <g
       id="g4217"
       transform="matrix(0.35277777,0,0,0.35277777,-61.876074,-16.944934)">
      <g
         clip-path="url(#82af5c65c3)"
         id="g2576">
        <g
           clip-path="url(#632c614e23)"
           id="g2574">
          <path
             fill="#ffffff"
             d="m 254.875,109.48828 h 43.94922 v 17.69141 H 254.875 Z m 0,0"
             fill-opacity="1"
             fill-rule="nonzero"
             id="path2572" />
        </g>
      </g>
      <g
         clip-path="url(#d61b6d50cb)"
         id="g2582">
        <g
           clip-path="url(#c2ae658b8f)"
           id="g2580">
          <path
             fill="#ffffff"
             d="m 269.94922,103.20313 h 29.32812 v 56.13281 h -29.32812 z m 0,0"
             fill-opacity="1"
             fill-rule="nonzero"
             id="path2578" />
        </g>
      </g>
      <g
         clip-path="url(#d08c211ff6)"
         id="g2588">
        <g
           clip-path="url(#b5c5671b36)"
           id="g2586">
          <path
             fill="#ffffff"
             d="M 319.45703,125.69141 H 303.25391 V 77.832031 h 16.20312 z m 0,0"
             fill-opacity="1"
             fill-rule="nonzero"
             id="path2584" />
        </g>
      </g>
      <g
         clip-path="url(#b998cb626e)"
         id="g2594">
        <g
           clip-path="url(#ec6a0fe7bb)"
           id="g2592">
          <path
             fill="#ffffff"
             d="m 296.86719,123.0625 h 14.49609 v 25.14453 h -14.49609 z m 0,0"
             fill-opacity="1"
             fill-rule="nonzero"
             id="path2590" />
        </g>
      </g>
    </g>
  </g>
</svg>
