<?xml version="1.0" encoding="UTF-8" standalone="no"?>
<svg
   width="135.04167"
   zoomAndPan="magnify"
   viewBox="0 0 101.28125 107.60938"
   height="143.47917"
   preserveAspectRatio="xMidYMid"
   version="1.0"
   id="svg6370"
   sodipodi:docname="2.svg"
   xmlns:inkscape="http://www.inkscape.org/namespaces/inkscape"
   xmlns:sodipodi="http://sodipodi.sourceforge.net/DTD/sodipodi-0.dtd"
   xmlns="http://www.w3.org/2000/svg"
   xmlns:svg="http://www.w3.org/2000/svg">
  <sodipodi:namedview
     id="namedview6372"
     pagecolor="#ffffff"
     bordercolor="#000000"
     borderopacity="0.25"
     inkscape:showpageshadow="2"
     inkscape:pageopacity="0.0"
     inkscape:pagecheckerboard="0"
     inkscape:deskcolor="#d1d1d1"
     showgrid="false" />
  <defs
     id="defs6170">
    <clipPath
       id="7e319ac101">
      <path
         d="M 461.35937,20.507812 H 562.64062 V 128.51562 H 461.35937 Z m 0,0"
         clip-rule="nonzero"
         id="path6058" />
    </clipPath>
    <clipPath
       id="31e931ab88">
      <path
         d="m 496.59375,20.507812 h 30.8125 c 19.46094,0 35.23437,15.773438 35.23437,35.234376 v 37.210937 c 0,19.457035 -15.77343,35.234375 -35.23437,35.234375 h -30.8125 c -19.46094,0 -35.23438,-15.77734 -35.23438,-35.234375 V 55.742188 c 0,-19.460938 15.77344,-35.234376 35.23438,-35.234376 z m 0,0"
         clip-rule="nonzero"
         id="path6061" />
    </clipPath>
    <clipPath
       id="003688a408">
      <path
         d="m 481.15625,69.585938 h 40.97656 v 14.71875 h -40.97656 z m 0,0"
         clip-rule="nonzero"
         id="path6064" />
    </clipPath>
    <clipPath
       id="96b3f83ede">
      <path
         d="m 484.15625,77.464844 c 15.11328,-2.066406 27.21875,-4.058594 30.89062,-5.738282 1.40625,-0.664062 1.75782,-1.757812 2.65625,-2.03125 0.70313,-0.195312 1.5586,-0.117187 2.1836,0.15625 0.66406,0.234376 1.36719,0.9375 1.71875,1.40625 0.23437,0.351563 0.3125,0.703126 0.39062,1.054688 0.0781,0.390625 0.15625,0.703125 0.0781,1.132812 -0.11719,0.585938 -0.58594,1.5625 -0.97656,2.03125 -0.23438,0.3125 -0.50782,0.507813 -0.89844,0.664063 -0.54688,0.234375 -1.5586,0.390625 -2.1836,0.351563 -0.42968,-0.03906 -0.70312,-0.15625 -1.05468,-0.351563 C 516.45312,75.789062 515.75,75.007812 515.4375,74.5 c -0.19531,-0.351562 -0.27344,-0.664062 -0.27344,-1.09375 -0.0391,-0.585938 0.11719,-1.5625 0.46875,-2.148438 0.35156,-0.625 1.05469,-1.171874 1.71875,-1.445312 0.625,-0.234375 1.59766,-0.234375 2.1836,-0.117188 0.42968,0.07813 0.70312,0.234376 1.01562,0.507813 0.46875,0.351563 1.13281,1.210937 1.36719,1.757813 0.15625,0.390624 0.19531,0.703124 0.15625,1.09375 -0.0391,0.625 -0.27344,1.445312 -0.70313,2.109374 -0.58593,0.898438 -1.28906,1.757813 -2.84765,2.574219 -4.02344,2.070313 -17.92578,4.101563 -24.13672,5.195313 -3.82422,0.664062 -7.26172,1.40625 -9.33203,1.289062 -1.05469,-0.03906 -1.75782,-0.117187 -2.38282,-0.546875 -0.625,-0.429687 -1.17187,-1.328125 -1.36718,-1.992187 -0.19141,-0.546875 -0.15235,-1.09375 -0.0391,-1.640625 0.15625,-0.507813 0.35157,-1.015625 0.78125,-1.445313 0.46875,-0.46875 2.10938,-1.132812 2.10938,-1.132812"
         clip-rule="nonzero"
         id="path6067" />
    </clipPath>
    <clipPath
       id="8d2ade58e4">
      <path
         d="m 496.26953,63.222656 h 26.34766 v 53.269534 h -26.34766 z m 0,0"
         clip-rule="nonzero"
         id="path6070" />
    </clipPath>
    <clipPath
       id="cd71c872a2">
      <path
         d="m 503.60547,66.921875 c -0.3125,10.308594 0.39062,18.433594 1.17187,22.921875 0.50782,3.046875 1.17188,5.351562 1.94922,7.617188 0.625,1.914062 1.21094,3.359372 2.07031,5.074222 0.9375,1.91406 1.91407,5 3.4375,5.85937 1.21094,0.66406 4.0625,-0.54687 4.29688,-0.0781 0.19531,0.42968 -1.67969,2.34375 -1.83594,2.26562 -0.11719,-0.0781 0.35156,-1.75781 0.82031,-2.34375 0.46875,-0.625 1.44532,-1.17187 2.07032,-1.40625 0.46875,-0.15625 0.78125,-0.19531 1.24609,-0.11719 0.66406,0.0781 1.71875,0.42969 2.30469,0.9375 0.58594,0.50782 1.09375,1.48438 1.28906,2.14844 0.11719,0.42969 0.0781,0.82031 0.0391,1.25 -0.0391,0.39063 -0.11718,0.78125 -0.35156,1.21094 -0.3125,0.58594 -1.13281,1.44531 -1.71875,1.79687 -0.39062,0.23438 -0.70312,0.35157 -1.17187,0.39063 -0.70313,0.0391 -1.79297,-0.0391 -2.45704,-0.42969 -0.70312,-0.35156 -1.36718,-1.09375 -1.71875,-1.79687 -0.3125,-0.74219 -0.42968,-1.71875 -0.23437,-2.5 0.15625,-0.74219 0.82031,-1.64063 1.28906,-2.10938 0.35156,-0.35156 0.625,-0.50781 1.09375,-0.625 0.625,-0.19531 1.83203,-0.27344 2.4961,-0.11719 0.42968,0.0781 0.74218,0.23438 1.13281,0.50782 0.50781,0.42968 1.21094,1.40625 1.48437,1.99218 0.19532,0.46875 0.35157,0.74219 0.19532,1.25 -0.39063,1.17188 -3.00782,4.09766 -4.72266,5.03516 -1.44531,0.74219 -3.08594,0.85938 -4.57031,0.66406 -1.60157,-0.19531 -3.20313,-0.78125 -4.6875,-2.0664 -2.14844,-1.83594 -4.48828,-6.48438 -5.89453,-9.29688 -1.05469,-2.14844 -1.48438,-3.70703 -2.14844,-5.855468 -0.78125,-2.539062 -1.60156,-5.039062 -2.22656,-8.4375 C 497.35547,85.824219 496.41797,77 496.33984,72.546875 c -0.0391,-2.539063 0.0391,-4.609375 0.42969,-6.09375 0.23438,-0.9375 0.54688,-1.679687 1.01563,-2.222656 0.39062,-0.390625 0.85937,-0.703125 1.40625,-0.820313 0.66406,-0.15625 1.71875,-0.15625 2.42187,0.15625 0.70313,0.3125 1.36719,1.128906 1.71875,1.714844 0.23438,0.507812 0.27344,1.640625 0.27344,1.640625"
         clip-rule="nonzero"
         id="path6073" />
    </clipPath>
    <clipPath
       id="f0a5555fd6">
      <path
         d="m 529.60156,38 h 13.23047 v 44.878906 h -13.23047 z m 0,0"
         clip-rule="nonzero"
         id="path6076" />
    </clipPath>
    <clipPath
       id="837e572077">
      <path
         d="m 529.64453,78.90625 c 1.44531,-10.464844 4.53125,-22.101562 5.30859,-28.195312 0.54688,-4.019532 -0.11718,-8.121094 0.625,-10.152344 0.39063,-1.015625 0.89844,-1.601563 1.60157,-1.992188 0.66406,-0.429687 1.71875,-0.625 2.5,-0.46875 0.78125,0.15625 1.71875,0.78125 2.1875,1.328125 0.42968,0.429688 0.58593,0.9375 0.74218,1.5625 0.19532,0.859375 0.23438,2.226563 0.11719,3.203125 -0.11719,0.78125 -0.39062,1.640625 -0.70312,2.1875 -0.23438,0.351563 -0.46875,0.585938 -0.85938,0.820313 -0.54687,0.3125 -1.48437,0.664062 -2.22656,0.625 -0.70313,-0.03906 -1.60156,-0.351563 -2.14844,-0.820313 -0.54687,-0.46875 -1.01562,-1.367187 -1.21094,-1.953125 -0.15625,-0.429687 -0.15625,-0.742187 -0.0781,-1.171875 0.11719,-0.625 0.42969,-1.5625 0.9375,-2.109375 0.50781,-0.546875 1.44531,-0.9375 2.03125,-1.132812 0.42969,-0.07813 0.74219,-0.07813 1.17187,0 0.58594,0.15625 1.60157,0.664062 2.07032,1.054687 0.3125,0.3125 0.50781,0.546875 0.66406,0.976563 0.19531,0.585937 0.42969,1.5625 0.27344,2.304687 -0.15625,0.703125 -0.74219,1.523438 -1.17188,1.992188 -0.3125,0.3125 -0.625,0.46875 -1.01562,0.585937 -0.35157,0.15625 -0.66407,0.273438 -1.13282,0.273438 -0.625,0 -1.60156,-0.195313 -2.22656,-0.585938 -0.625,-0.390625 -1.13281,-1.015625 -1.40625,-1.835937 -0.42969,-1.171875 -0.50781,-3.632813 -0.11719,-4.84375 0.3125,-0.859375 0.97657,-1.601563 1.60157,-1.992188 0.46875,-0.351562 1.05468,-0.507812 1.64062,-0.507812 0.74219,0 1.83594,0.3125 2.46094,0.742187 0.46875,0.351563 0.82031,0.859375 1.05469,1.367188 0.23437,0.507812 0.27343,0.898437 0.3125,1.679687 0.0781,1.953125 -0.42969,5.820313 -1.01563,9.996094 -1.01562,7.148438 -3.35937,24.953125 -5.19531,28.78125 -0.54688,1.09375 -0.97656,1.484375 -1.67969,1.875 -0.66015,0.351562 -1.71484,0.46875 -2.45703,0.273438 -0.78125,-0.195313 -1.64062,-0.78125 -2.07031,-1.40625 -0.42969,-0.664063 -0.58594,-2.460938 -0.58594,-2.460938"
         clip-rule="nonzero"
         id="path6079" />
    </clipPath>
    <clipPath
       id="78ebbe5496">
      <path
         d="m 522.88281,83.632812 h 12.23438 v 21.234378 h -12.23438 z m 0,0"
         clip-rule="nonzero"
         id="path6082" />
    </clipPath>
    <clipPath
       id="25f5353a9d">
      <path
         d="m 531.5625,92.015625 c -2.23438,2.808594 -1.92969,7.261719 -2.42188,9.199215 -0.33593,1.25782 -0.82421,2.22657 -1.3164,2.85547 -0.42969,0.48438 -0.94922,0.67578 -1.44141,0.77344 -0.48828,0.0508 -1.01172,0 -1.5,-0.33984 -0.58203,-0.4336 -1.32031,-1.44922 -1.625,-2.41797 -0.30469,-1.01563 -0.42969,-2.277346 -0.21484,-3.535159 0.30469,-1.839843 1.625,-4.402343 2.63672,-6.050781 0.85937,-1.449219 2.8789,-3 2.85156,-3.484375 -0.0312,-0.195313 -0.39844,-0.09766 -0.46094,-0.289063 -0.0937,-0.242187 0.0312,-0.824218 0.15235,-1.257812 0.15234,-0.679688 0.49218,-1.597656 0.89062,-2.179688 0.36719,-0.582031 0.85547,-1.113281 1.41016,-1.308593 0.67187,-0.242188 1.77734,-0.09766 2.41797,0.339843 0.52343,0.339844 0.95312,0.871094 1.25781,1.597657 0.36719,0.917969 0.94922,2.566406 0.67578,3.679687 -0.42969,1.742188 -3.74219,4.550782 -4.72266,4.550782 -0.42578,0 -0.64062,-0.4375 -0.94922,-0.921876 -0.39843,-0.675781 -0.91796,-2.082031 -1.07031,-2.953124 -0.125,-0.628907 -0.15625,-1.113282 -0.0625,-1.742188 0.1211,-0.917969 0.46094,-2.324219 0.94922,-3.097656 0.49219,-0.824219 1.25781,-1.453125 1.92969,-1.597656 0.67578,-0.144532 1.625,0.242187 2.14844,0.628906 0.39843,0.242187 0.64062,0.628906 0.88671,1.066406 0.2461,0.386719 0.46094,0.820312 0.61329,1.453125 0.18359,0.871094 0.33593,2.371094 0.18359,3.433594 -0.15234,1.066406 -0.73438,2.277343 -1.13281,2.90625 -0.3086,0.484375 -0.55078,0.726562 -0.94922,0.871093 -0.58203,0.289063 -1.53516,0.484376 -2.20703,0.144532 -0.64453,-0.289063 -1.37891,-1.0625 -1.77735,-1.984375 -0.39843,-0.871094 -0.61328,-2.324219 -0.67578,-3.242188 -0.0312,-0.679687 0.0312,-1.113281 0.21485,-1.742187 0.21484,-0.824219 0.76562,-2.082032 1.3164,-2.710938 0.58203,-0.582031 2.02344,-1.164062 2.11719,-0.871094 0.15234,0.386719 -3.37109,5.226563 -3.61719,4.9375 -0.15234,-0.144531 0.21485,-1.742187 0.51953,-2.421874 0.27735,-0.726563 0.70703,-1.402344 1.16407,-1.789063 0.46093,-0.4375 1.04296,-0.679687 1.5664,-0.726563 0.55078,-0.05078 1.13281,0.144532 1.6211,0.53125 0.46093,0.339844 0.95312,0.871094 1.25781,1.597657 0.36719,0.917969 0.55078,3.726562 0.67578,3.679687 0.0898,0 0.0898,-2.664062 0.0898,-2.664062 0,0 0.36719,5.035156 -0.33593,7.214844 -0.89063,2.710937 -4.32032,5.128906 -5.48829,7.066402 -0.67187,1.0625 -0.73437,2.22657 -1.3164,2.85547 -0.58203,0.58203 -1.5,0.91797 -2.20703,0.72657 -0.67188,-0.14454 -1.5,-0.8711 -1.96094,-1.69532 -0.42969,-0.87109 -0.73438,-2.17968 -0.73438,-3.339841 0.0312,-1.402344 0.76563,-2.855469 1.10157,-4.453125 0.33593,-1.839844 0.30859,-4.355469 0.89062,-6.050782 0.55078,-1.597656 1.53125,-3 2.44922,-3.921874 0.89063,-0.917969 2.11719,-1.742188 2.97266,-1.691407 0.70703,0 1.41015,0.578125 1.87109,1.160157 0.36719,0.484374 0.58203,1.113281 0.73438,1.789062 0.15625,0.632812 0.18359,1.40625 0.125,2.082031 -0.0625,0.679688 -0.2461,1.40625 -0.49219,1.984375 -0.2461,0.535156 -1.01172,1.355469 -1.01172,1.355469"
         clip-rule="nonzero"
         id="path6085" />
    </clipPath>
    <clipPath
       id="c6f3c1f22e">
      <path
         d="m 478.73047,65.070312 h 40.97656 v 14.71875 h -40.97656 z m 0,0"
         clip-rule="nonzero"
         id="path6088" />
    </clipPath>
    <clipPath
       id="4439e5a5fe">
      <path
         d="m 481.73437,72.953125 c 15.10938,-2.070313 27.21485,-4.0625 30.88672,-5.738281 1.40625,-0.664063 1.75782,-1.757813 2.65625,-2.03125 0.70313,-0.195313 1.5625,-0.117188 2.1875,0.15625 0.66407,0.234375 1.36719,0.9375 1.71875,1.40625 0.23438,0.351562 0.3125,0.703125 0.39063,1.054687 0.0781,0.386719 0.15625,0.699219 0.0781,1.128907 -0.11718,0.585937 -0.58593,1.5625 -0.97656,2.03125 -0.23437,0.3125 -0.50781,0.507812 -0.89844,0.664062 -0.54687,0.234375 -1.5625,0.390625 -2.1875,0.351562 -0.42968,-0.03906 -0.70312,-0.15625 -1.05468,-0.351562 -0.50782,-0.351562 -1.21094,-1.132812 -1.52344,-1.640625 -0.19531,-0.351563 -0.27344,-0.664063 -0.27344,-1.09375 -0.0391,-0.585937 0.11719,-1.558594 0.46875,-2.144531 0.35156,-0.625 1.05469,-1.171875 1.71875,-1.445313 0.625,-0.234375 1.60156,-0.234375 2.1875,-0.117187 0.42969,0.07813 0.70313,0.234375 1.01563,0.507812 0.46875,0.351563 1.13281,1.210938 1.36718,1.757813 0.15625,0.390625 0.19532,0.699219 0.15625,1.089843 -0.0391,0.625 -0.27343,1.445313 -0.70312,2.109376 -0.58594,0.898437 -1.28906,1.757812 -2.85156,2.578124 -4.02344,2.070313 -17.92579,4.101563 -24.13282,5.195313 -3.82812,0.664063 -7.26562,1.40625 -9.33203,1.289063 -1.05469,-0.03906 -1.75781,-0.117188 -2.38281,-0.546876 -0.625,-0.429687 -1.17188,-1.328124 -1.36719,-1.992187 -0.19531,-0.546875 -0.15625,-1.09375 -0.0391,-1.640625 0.15625,-0.507812 0.35156,-1.015625 0.78125,-1.445312 0.46875,-0.46875 2.10937,-1.132813 2.10937,-1.132813"
         clip-rule="nonzero"
         id="path6091" />
    </clipPath>
    <clipPath
       id="5e86e1b1f7">
      <path
         d="m 493.84375,58.707031 h 26.34766 v 53.269529 h -26.34766 z m 0,0"
         clip-rule="nonzero"
         id="path6094" />
    </clipPath>
    <clipPath
       id="f339b6559f">
      <path
         d="m 501.17969,62.410156 c -0.3125,10.308594 0.39062,18.429688 1.17187,22.921875 0.50781,3.046875 1.17188,5.351563 1.95313,7.617188 0.625,1.910156 1.21093,3.355469 2.07031,5.074219 0.9375,1.914062 1.91016,5.000002 3.43359,5.859372 1.21094,0.66407 4.0625,-0.54687 4.29688,-0.0781 0.19531,0.42969 -1.67969,2.33984 -1.83594,2.26172 -0.11719,-0.0781 0.35156,-1.75391 0.82031,-2.33985 0.46875,-0.625 1.44532,-1.17187 2.07032,-1.40625 0.46875,-0.15625 0.78125,-0.19531 1.25,-0.11718 0.66406,0.0781 1.71875,0.42968 2.30468,0.9375 0.58594,0.50781 1.09375,1.48437 1.28907,2.14843 0.11718,0.42578 0.0781,0.81641 0.0391,1.2461 -0.0391,0.39062 -0.11719,0.78125 -0.35156,1.21093 -0.3125,0.58594 -1.13282,1.44532 -1.71875,1.79688 -0.39063,0.23437 -0.70313,0.35156 -1.17188,0.39062 -0.70312,0.0391 -1.79687,-0.0391 -2.46094,-0.42968 -0.70312,-0.35157 -1.36718,-1.09375 -1.71875,-1.79688 -0.3125,-0.74219 -0.42968,-1.71875 -0.23437,-2.49609 0.15625,-0.74219 0.82031,-1.64063 1.28906,-2.10938 0.35156,-0.35156 0.625,-0.50781 1.09375,-0.625 0.625,-0.19531 1.83594,-0.27343 2.5,-0.11718 0.42969,0.0781 0.74219,0.23437 1.13281,0.50781 0.50782,0.42969 1.21094,1.40625 1.48438,1.99219 0.19531,0.46875 0.35156,0.73828 0.19531,1.24609 -0.39062,1.17187 -3.00781,4.10156 -4.72656,5.03906 -1.44531,0.74219 -3.08594,0.85938 -4.57031,0.66406 -1.60157,-0.19531 -3.19922,-0.78125 -4.6836,-2.07031 -2.14844,-1.83594 -4.49219,-6.48047 -5.89844,-9.29297 -1.05468,-2.148435 -1.48437,-3.710935 -2.14843,-5.859372 -0.78125,-2.535157 -1.60157,-5.035157 -2.22657,-8.433594 -0.89453,-4.84375 -1.83203,-13.667969 -1.91015,-18.117188 -0.0391,-2.539062 0.0391,-4.609375 0.42969,-6.09375 0.23437,-0.9375 0.54687,-1.679687 1.01562,-2.226562 0.38672,-0.390625 0.85547,-0.703125 1.40234,-0.820313 0.66407,-0.15625 1.71875,-0.15625 2.42188,0.15625 0.70312,0.3125 1.36719,1.132813 1.71875,1.71875 0.23437,0.507813 0.27344,1.640625 0.27344,1.640625"
         clip-rule="nonzero"
         id="path6097" />
    </clipPath>
    <clipPath
       id="e310f0e8ba">
      <path
         d="m 527.17578,33.484375 h 13.23047 v 44.882813 h -13.23047 z m 0,0"
         clip-rule="nonzero"
         id="path6100" />
    </clipPath>
    <clipPath
       id="3699945329">
      <path
         d="m 527.21875,74.394531 c 1.44531,-10.464843 4.53125,-22.101562 5.3125,-28.195312 0.54687,-4.023438 -0.11719,-8.121094 0.625,-10.152344 0.39062,-1.015625 0.89844,-1.601563 1.60156,-1.992187 0.66406,-0.429688 1.71875,-0.625 2.4961,-0.46875 0.78125,0.15625 1.71875,0.78125 2.1875,1.328124 0.42968,0.429688 0.58593,0.9375 0.74218,1.5625 0.19532,0.859376 0.23438,2.226563 0.11719,3.203126 -0.11719,0.78125 -0.39062,1.636718 -0.70312,2.183593 -0.23438,0.351563 -0.46875,0.585938 -0.85938,0.820313 -0.54687,0.3125 -1.48437,0.664062 -2.22656,0.625 -0.69922,-0.03906 -1.59766,-0.351563 -2.14453,-0.820313 -0.54688,-0.46875 -1.01563,-1.367187 -1.21094,-1.949219 C 533,40.109375 533,39.796875 533.07812,39.367188 c 0.11719,-0.625 0.42969,-1.5625 0.9375,-2.109376 0.50782,-0.546874 1.44532,-0.9375 2.03125,-1.132812 0.42969,-0.07813 0.73829,-0.07813 1.16797,0 0.58594,0.15625 1.60157,0.664062 2.07032,1.054688 0.3125,0.3125 0.50781,0.546874 0.66406,0.976562 0.19531,0.585938 0.42969,1.5625 0.27344,2.304688 -0.15625,0.699218 -0.74219,1.519531 -1.17188,1.988281 -0.3125,0.3125 -0.625,0.46875 -1.01562,0.585937 -0.35157,0.15625 -0.66407,0.273438 -1.13282,0.273438 -0.62109,0 -1.59765,-0.195313 -2.22265,-0.585938 -0.625,-0.390625 -1.13282,-1.015625 -1.40625,-1.832031 -0.42969,-1.171875 -0.50782,-3.632813 -0.11719,-4.84375 0.3125,-0.859375 0.97656,-1.601563 1.60156,-1.992187 0.46875,-0.351563 1.05469,-0.507813 1.63672,-0.507813 0.74219,0 1.83594,0.3125 2.46094,0.742187 0.46875,0.351563 0.82031,0.859376 1.05469,1.367188 0.23437,0.507812 0.27343,0.898438 0.3125,1.679688 0.0781,1.953124 -0.42969,5.816406 -1.01563,9.996093 -1.01562,7.144531 -3.35547,24.953125 -5.19141,28.78125 -0.54687,1.09375 -0.97656,1.484375 -1.67968,1.875 -0.66407,0.351563 -1.71875,0.46875 -2.46094,0.273438 -0.78125,-0.195313 -1.64063,-0.78125 -2.07031,-1.40625 -0.42969,-0.664063 -0.58594,-2.460938 -0.58594,-2.460938"
         clip-rule="nonzero"
         id="path6103" />
    </clipPath>
    <clipPath
       id="b11f338c88">
      <path
         d="m 520.46094,79.117188 h 12.23047 v 21.238282 h -12.23047 z m 0,0"
         clip-rule="nonzero"
         id="path6106" />
    </clipPath>
    <clipPath
       id="80a58e8598">
      <path
         d="m 529.14062,87.503906 c -2.23828,2.808594 -1.93359,7.261719 -2.42187,9.195313 -0.33984,1.261719 -0.82813,2.226562 -1.32031,2.859375 -0.42578,0.480466 -0.94922,0.675786 -1.4375,0.773436 -0.49219,0.0469 -1.01172,0 -1.50391,-0.339842 -0.58203,-0.433594 -1.31641,-1.453126 -1.625,-2.421876 -0.30469,-1.015624 -0.42969,-2.273437 -0.21484,-3.53125 0.30859,-1.839843 1.625,-4.40625 2.63672,-6.050781 0.85937,-1.453125 2.88281,-3 2.85156,-3.484375 -0.0312,-0.195312 -0.39844,-0.09766 -0.46094,-0.292968 -0.0898,-0.242188 0.0312,-0.820313 0.15234,-1.257813 0.15625,-0.675781 0.49219,-1.597656 0.89063,-2.175781 0.36719,-0.582032 0.85937,-1.117188 1.41016,-1.308594 0.67578,-0.242188 1.77734,-0.09766 2.42187,0.339844 0.51953,0.335937 0.94922,0.871094 1.25391,1.597656 0.37109,0.917969 0.95312,2.5625 0.67578,3.675781 -0.42969,1.742188 -3.73828,4.550781 -4.71875,4.550781 -0.42969,0 -0.64453,-0.433593 -0.95313,-0.917968 -0.39843,-0.679688 -0.91797,-2.082032 -1.07031,-2.953125 -0.125,-0.628907 -0.15234,-1.113281 -0.0625,-1.742188 0.125,-0.921875 0.46094,-2.324219 0.94922,-3.097656 0.49219,-0.824219 1.25781,-1.453125 1.93359,-1.597656 0.67188,-0.144531 1.625,0.242187 2.14453,0.628906 0.39844,0.242187 0.64454,0.628906 0.89063,1.0625 0.24219,0.390625 0.45703,0.824219 0.60937,1.453125 0.1875,0.871094 0.33985,2.371094 0.1875,3.4375 -0.15625,1.066406 -0.73828,2.273438 -1.13671,2.90625 -0.30469,0.480469 -0.55079,0.722656 -0.94922,0.871094 -0.58203,0.289062 -1.53125,0.484375 -2.20703,0.144531 -0.64454,-0.292969 -1.37891,-1.066406 -1.77735,-1.984375 -0.39844,-0.871094 -0.61328,-2.324219 -0.67578,-3.246094 -0.0312,-0.675781 0.0312,-1.113281 0.21484,-1.742187 0.21485,-0.820313 0.76563,-2.078125 1.32032,-2.710938 0.58203,-0.578125 2.02343,-1.160156 2.11328,-0.871093 0.15234,0.386718 -3.3711,5.230468 -3.61719,4.9375 -0.15234,-0.144532 0.21484,-1.742188 0.52344,-2.417969 0.27344,-0.726563 0.70312,-1.40625 1.16406,-1.792969 0.45703,-0.433594 1.03906,-0.675781 1.5625,-0.726562 0.55078,-0.04688 1.13281,0.148437 1.625,0.535156 0.45703,0.335937 0.94922,0.871094 1.25391,1.597656 0.37109,0.917969 0.55468,3.726562 0.67578,3.675781 0.0937,0 0.0937,-2.660156 0.0937,-2.660156 0,0 0.36719,5.035156 -0.33985,7.210937 -0.88671,2.710938 -4.32031,5.132813 -5.48437,7.066407 -0.67578,1.066406 -0.73828,2.226562 -1.32031,2.859375 -0.58203,0.578126 -1.5,0.917966 -2.20703,0.722656 -0.67188,-0.14453 -1.5,-0.871094 -1.96094,-1.691406 -0.42969,-0.871094 -0.73438,-2.179688 -0.73438,-3.339844 0.0312,-1.40625 0.76563,-2.855469 1.10157,-4.453125 0.33984,-1.839844 0.30859,-4.359375 0.89062,-6.050781 0.55078,-1.597656 1.53125,-3.003906 2.45313,-3.921875 0.88671,-0.921875 2.11328,-1.742188 2.97265,-1.695313 0.70313,0 1.41016,0.582032 1.86719,1.164063 0.37109,0.484375 0.58594,1.113281 0.73828,1.789062 0.15234,0.628907 0.18359,1.402344 0.12109,2.082031 -0.0625,0.675782 -0.24609,1.402344 -0.48828,1.984376 -0.24609,0.53125 -1.01172,1.355468 -1.01172,1.355468"
         clip-rule="nonzero"
         id="path6109" />
    </clipPath>
  </defs>
  <g
     id="g6964"
     transform="translate(-461.35937,-20.507812)">
    <g
       clip-path="url(#7e319ac101)"
       id="g6182">
      <g
         clip-path="url(#31e931ab88)"
         id="g6180">
        <path
           fill="#ff516b"
           d="M 461.35937,20.507812 H 562.64062 V 128.11719 H 461.35937 Z m 0,0"
           fill-opacity="1"
           fill-rule="nonzero"
           id="path6178" />
      </g>
    </g>
    <g
       clip-path="url(#003688a408)"
       id="g6188">
      <g
         clip-path="url(#96b3f83ede)"
         id="g6186">
        <path
           fill="#09397a"
           d="m 479.70703,68.132812 h 43.94531 v 17.691407 h -43.94531 z m 0,0"
           fill-opacity="1"
           fill-rule="nonzero"
           id="path6184" />
      </g>
    </g>
    <g
       clip-path="url(#8d2ade58e4)"
       id="g6194">
      <g
         clip-path="url(#cd71c872a2)"
         id="g6192">
        <path
           fill="#09397a"
           d="m 494.77734,61.847656 h 29.32813 v 56.132814 h -29.32813 z m 0,0"
           fill-opacity="1"
           fill-rule="nonzero"
           id="path6190" />
      </g>
    </g>
    <g
       clip-path="url(#f0a5555fd6)"
       id="g6200">
      <g
         clip-path="url(#837e572077)"
         id="g6198">
        <path
           fill="#09397a"
           d="M 544.28906,84.335938 H 528.08203 V 36.476562 h 16.20703 z m 0,0"
           fill-opacity="1"
           fill-rule="nonzero"
           id="path6196" />
      </g>
    </g>
    <g
       clip-path="url(#78ebbe5496)"
       id="g6206">
      <g
         clip-path="url(#25f5353a9d)"
         id="g6204">
        <path
           fill="#09397a"
           d="m 521.69531,81.707031 h 14.4961 v 25.144529 h -14.4961 z m 0,0"
           fill-opacity="1"
           fill-rule="nonzero"
           id="path6202" />
      </g>
    </g>
    <g
       clip-path="url(#c6f3c1f22e)"
       id="g6212">
      <g
         clip-path="url(#4439e5a5fe)"
         id="g6210">
        <path
           fill="#ffffff"
           d="m 477.28125,63.621094 h 43.94922 v 17.6875 h -43.94922 z m 0,0"
           fill-opacity="1"
           fill-rule="nonzero"
           id="path6208" />
      </g>
    </g>
    <g
       clip-path="url(#5e86e1b1f7)"
       id="g6218">
      <g
         clip-path="url(#f339b6559f)"
         id="g6216">
        <path
           fill="#ffffff"
           d="m 492.35547,57.332031 h 29.32422 v 56.132809 h -29.32422 z m 0,0"
           fill-opacity="1"
           fill-rule="nonzero"
           id="path6214" />
      </g>
    </g>
    <g
       clip-path="url(#e310f0e8ba)"
       id="g6224">
      <g
         clip-path="url(#3699945329)"
         id="g6222">
        <path
           fill="#ffffff"
           d="M 541.86328,79.820312 H 525.65625 V 31.964844 h 16.20703 z m 0,0"
           fill-opacity="1"
           fill-rule="nonzero"
           id="path6220" />
      </g>
    </g>
    <g
       clip-path="url(#b11f338c88)"
       id="g6230">
      <g
         clip-path="url(#80a58e8598)"
         id="g6228">
        <path
           fill="#ffffff"
           d="m 519.26953,77.191406 h 14.49609 v 25.144534 h -14.49609 z m 0,0"
           fill-opacity="1"
           fill-rule="nonzero"
           id="path6226" />
      </g>
    </g>
  </g>
</svg>
