<?xml version="1.0" encoding="UTF-8" standalone="no"?>
<!-- Created with Inkscape (http://www.inkscape.org/) -->

<svg
   width="18.703627mm"
   height="18.117319mm"
   viewBox="0 0 18.703627 18.117319"
   version="1.1"
   id="svg4201"
   xmlns="http://www.w3.org/2000/svg"
   xmlns:svg="http://www.w3.org/2000/svg">
  <defs
     id="defs4198">
    <clipPath
       id="c15ef1f24b">
      <path
         d="m 167,230.0625 h 53.23828 v 51.45703 H 167 Z m 0,0"
         clip-rule="nonzero"
         id="path2052" />
    </clipPath>
    <clipPath
       id="213431e81c">
      <path
         d="m 176.60547,264.78516 c 0.82422,-33.8086 1.875,-34.63282 3.22265,-34.63282 2.69922,0.0742 7.57032,5.6211 11.2461,9.07032 4.19531,3.82421 8.32031,9.14453 12.36719,12.89453 3.52343,3.29687 7.57421,5.99609 10.57031,8.69531 2.32422,2.17578 5.69922,4.64844 5.99609,6.14844 0.0781,0.59765 -0.29687,1.19922 -0.67187,1.49609 -0.375,0.30078 -0.67578,0.375 -1.57422,0.375 -5.09766,-0.14844 -47.67969,-10.71875 -50.45313,-13.71484 -0.44922,-0.52735 -0.29687,-0.90235 -0.22265,-1.35157 0.14843,-0.52343 0.375,-0.82421 1.125,-1.42578 3.44531,-2.77343 30.43359,-16.11718 35.00781,-16.5664 1.04687,-0.0742 1.64844,0.15234 2.02344,0.60156 0.375,0.375 0.52343,0.89844 0.375,1.64844 -0.375,2.47265 -5.25,8.84765 -8.76953,13.86718 -4.42579,6.29688 -12.3711,15.44532 -16.04297,20.91797 -2.25,3.29688 -3.375,7.26953 -4.94922,8.24219 -0.67578,0.45313 -1.57422,0.60156 -2.02344,0.30078 -0.52344,-0.30078 -0.97656,-1.94922 -0.67578,-2.39844 0.375,-0.52343 2.02344,-0.82421 2.47656,-0.52343 0.52344,0.375 0.7461,2.02343 0.375,2.47265 -0.375,0.44922 -2.02734,0.52344 -2.47656,0.22657 -0.44922,-0.22657 -0.59766,-0.90235 -0.59766,-1.5 0.0742,-1.19922 1.04688,-2.69922 2.32422,-4.875 3.14844,-5.17188 13.49219,-17.61329 18.58985,-24.8125 3.74609,-5.2461 7.04687,-13.41797 9.37109,-14.16797 0.89844,-0.22266 2.02344,0.375 2.32422,0.97656 0.22265,0.52344 0.0742,1.42187 -0.67578,2.39844 -3.07422,3.67187 -31.9336,17.08984 -35.98438,16.86718 -0.89844,0 -1.27344,-0.44921 -1.57422,-0.89843 -0.22265,-0.45313 -0.375,-1.35157 -0.0742,-1.80078 0.22657,-0.52344 0.75,-0.97657 1.875,-1.125 5.02344,-0.75 37.48047,9.74609 45.05469,11.99609 2.6211,0.74609 4.42188,0.82422 5.2461,1.57422 0.44921,0.44922 0.59765,1.12109 0.59765,1.57422 -0.0742,0.52343 -0.59765,1.12109 -0.97265,1.34765 -0.44922,0.22657 -0.89844,0.30078 -1.72266,0 -2.69922,-1.05078 -11.47266,-9.44531 -16.41797,-14.09375 -4.42187,-4.19531 -8.92187,-9.59375 -12.07031,-12.51953 -1.94922,-1.72265 -3.44922,-2.39844 -4.8711,-3.89844 -1.42578,-1.49609 -2.85156,-5.46875 -3.75,-5.17187 -1.94921,0.60156 0.60157,28.41406 0,31.78516 -0.14843,0.67578 -0.14843,0.89843 -0.44921,1.19921 -0.375,0.375 -1.05079,0.75 -1.57422,0.60157 -0.52344,-0.15235 -1.57422,-1.80078 -1.57422,-1.80078"
         clip-rule="nonzero"
         id="path2055" />
    </clipPath>
  </defs>
  <g
     id="layer1"
     transform="translate(-8.9458546,-56.892742)">
    <g
       clip-path="url(#c15ef1f24b)"
       id="g3922"
       transform="matrix(0.35277777,0,0,0.35277777,-49.968055,-24.299887)">
      <g
         clip-path="url(#213431e81c)"
         id="g3920">
        <path
           fill="#09397a"
           d="m 164.08594,227.15234 h 58.83984 v 57.27344 h -58.83984 z m 0,0"
           fill-opacity="1"
           fill-rule="nonzero"
           id="path3918" />
      </g>
    </g>
  </g>
</svg>
